<svg version="1.1" xmlns="http://www.w3.org/2000/svg" viewBox="0 0 324.5417175292969 428.0000305175781" width="324.5417175292969" height="428.0000305175781" filter="invert(93%) hue-rotate(180deg)">
  <!-- svg-source:excalidraw -->
  
  <defs>
    <style>
      @font-face {
        font-family: "Virgil";
        src: url("https://excalidraw.com/Virgil.woff2");
      }
      @font-face {
        font-family: "Cascadia";
        src: url("https://excalidraw.com/Cascadia.woff2");
      }
    </style>
  </defs>
  <g transform="translate(97.3333740234375 10) rotate(0 0.33331298828125 41.66667175292969)" stroke="none" fill="#000000"><path d="M 1.45,-0.32 Q 1.45,-0.32 2.84,1.18 4.23,2.70 4.41,8.41 4.59,14.13 4.59,17.55 4.58,20.96 4.40,25.93 4.22,30.91 3.96,39.68 3.69,48.46 3.76,55.18 3.84,61.89 3.89,67.23 3.95,72.56 2.38,77.05 0.82,81.53 0.76,81.74 0.71,81.94 0.59,82.12 0.48,82.30 0.31,82.43 0.14,82.56 -0.05,82.63 -0.25,82.70 -0.46,82.71 -0.67,82.71 -0.88,82.64 -1.08,82.58 -1.25,82.45 -1.42,82.33 -1.54,82.15 -1.66,81.98 -1.72,81.77 -1.78,81.57 -1.78,81.36 -1.77,81.15 -1.69,80.95 -1.62,80.75 -1.48,80.58 -1.34,80.42 -1.16,80.31 -0.98,80.20 -0.78,80.15 -0.57,80.10 -0.36,80.12 -0.15,80.14 0.04,80.23 0.23,80.31 0.39,80.46 0.54,80.60 0.65,80.79 0.75,80.97 0.79,81.18 0.82,81.39 0.79,81.60 0.76,81.81 0.66,82.00 0.57,82.19 0.41,82.34 0.26,82.49 0.07,82.58 -0.11,82.67 -0.32,82.70 -0.53,82.72 -0.74,82.68 -0.95,82.64 -1.13,82.53 -1.32,82.42 -1.46,82.26 -1.60,82.10 -1.68,81.91 -1.76,81.71 -1.77,81.50 -1.79,81.29 -1.79,81.29 -1.79,81.29 -2.53,77.07 -3.28,72.85 -3.67,67.42 -4.06,61.98 -4.13,55.09 -4.21,48.21 -3.93,39.40 -3.64,30.59 -3.43,25.76 -3.21,20.93 -3.19,17.51 -3.17,14.09 -2.93,9.14 -2.69,4.19 -2.07,2.26 -1.45,0.32 -1.47,0.14 -1.49,-0.03 -1.46,-0.21 -1.44,-0.39 -1.37,-0.55 -1.30,-0.72 -1.20,-0.87 -1.09,-1.01 -0.95,-1.13 -0.82,-1.24 -0.65,-1.32 -0.49,-1.40 -0.32,-1.44 -0.14,-1.48 0.03,-1.48 0.21,-1.47 0.38,-1.43 0.56,-1.38 0.71,-1.29 0.87,-1.20 1.00,-1.08 1.14,-0.96 1.23,-0.81 1.33,-0.66 1.39,-0.49 1.45,-0.32 1.45,-0.32 L 1.45,-0.32 Z"/></g><g transform="translate(138.66668701171875 28.666671752929688) rotate(0 -1.666656494140625 18.666664123535156)" stroke="none" fill="#000000"><path d="M 1.36,0.41 Q 1.36,0.41 1.15,3.08 0.94,5.74 0.51,7.71 0.09,9.69 0.04,12.24 -0.00,14.80 -0.07,16.51 -0.14,18.23 0.04,20.72 0.23,23.21 0.21,26.13 0.19,29.04 -0.33,31.23 -0.87,33.43 -1.11,35.02 -1.36,36.61 -1.39,36.82 -1.42,37.03 -1.52,37.22 -1.62,37.41 -1.77,37.56 -1.92,37.71 -2.11,37.80 -2.30,37.89 -2.52,37.91 -2.73,37.94 -2.93,37.90 -3.14,37.85 -3.33,37.75 -3.51,37.64 -3.65,37.48 -3.79,37.32 -3.87,37.12 -3.95,36.92 -3.96,36.71 -3.98,36.50 -3.92,36.29 -3.87,36.09 -3.75,35.91 -3.63,35.73 -3.46,35.60 -3.30,35.47 -3.10,35.40 -2.89,35.33 -2.68,35.33 -2.47,35.33 -2.27,35.40 -2.07,35.46 -1.90,35.59 -1.72,35.71 -1.60,35.89 -1.48,36.06 -1.42,36.27 -1.36,36.47 -1.37,36.68 -1.38,36.90 -1.46,37.10 -1.54,37.29 -1.67,37.46 -1.81,37.62 -1.99,37.73 -2.17,37.84 -2.38,37.89 -2.58,37.94 -2.80,37.92 -3.01,37.90 -3.20,37.81 -3.39,37.72 -3.55,37.58 -3.71,37.43 -3.81,37.25 -3.91,37.06 -3.95,36.85 -3.98,36.64 -3.98,36.64 -3.98,36.64 -4.26,35.06 -4.54,33.47 -5.13,31.32 -5.72,29.17 -5.86,26.37 -6.01,23.57 -6.12,20.74 -6.24,17.91 -6.12,16.12 -6.01,14.32 -5.62,11.33 -5.23,8.34 -4.61,6.28 -4.00,4.22 -2.68,1.90 -1.36,-0.41 -1.29,-0.57 -1.22,-0.73 -1.11,-0.87 -1.01,-1.00 -0.87,-1.11 -0.74,-1.21 -0.58,-1.29 -0.42,-1.36 -0.26,-1.39 -0.09,-1.42 0.08,-1.41 0.25,-1.40 0.41,-1.35 0.58,-1.30 0.72,-1.21 0.87,-1.12 0.99,-1.00 1.12,-0.88 1.21,-0.73 1.30,-0.59 1.35,-0.42 1.40,-0.26 1.41,-0.09 1.42,0.08 1.39,0.25 1.36,0.42 1.36,0.42 L 1.36,0.41 Z"/></g><g transform="translate(142 45.333343505859375) rotate(0 58.66668701171875 45.66667175292969)" stroke="none" fill="#000000"><path d="M 0.36,-1.29 Q 0.36,-1.29 1.99,-1.89 3.61,-2.50 5.39,-2.32 7.17,-2.15 9.67,-2.08 12.17,-2.02 14.76,-1.76 17.35,-1.51 19.47,-1.41 21.58,-1.31 25.51,-1.27 29.45,-1.23 33.44,-1.21 37.43,-1.19 41.92,-1.38 46.41,-1.57 49.92,-1.65 53.43,-1.73 56.54,-1.96 59.66,-2.18 63.10,-2.47 66.55,-2.76 69.04,-2.89 71.54,-3.02 73.60,-3.26 75.67,-3.49 77.66,-3.61 79.66,-3.73 81.67,-3.78 83.69,-3.83 85.89,-3.85 88.09,-3.87 90.55,-3.88 93.02,-3.89 95.41,-3.89 97.80,-3.90 99.58,-3.90 101.36,-3.91 103.29,-3.71 105.23,-3.51 106.44,-3.43 107.64,-3.36 108.90,-3.33 110.15,-3.30 111.72,-3.07 113.30,-2.84 114.71,-2.73 116.13,-2.61 117.50,-1.96 118.88,-1.31 119.83,-0.05 120.78,1.19 121.00,2.72 121.22,4.24 121.07,6.87 120.92,9.49 120.66,13.17 120.41,16.85 120.11,21.28 119.81,25.71 119.87,31.66 119.94,37.60 119.97,43.65 120.00,49.71 120.01,55.35 120.02,60.99 119.83,65.96 119.64,70.93 119.37,74.79 119.09,78.66 118.36,81.95 117.63,85.24 115.54,88.23 113.45,91.23 113.34,91.41 113.23,91.59 113.07,91.73 112.91,91.87 112.71,91.95 112.51,92.03 112.30,92.04 112.09,92.05 111.88,92.00 111.68,91.94 111.50,91.82 111.32,91.71 111.19,91.54 111.07,91.37 111.00,91.17 110.93,90.97 110.93,90.75 110.93,90.54 110.99,90.34 111.06,90.14 111.19,89.97 111.32,89.80 111.49,89.68 111.67,89.56 111.87,89.50 112.08,89.44 112.29,89.45 112.50,89.46 112.70,89.54 112.90,89.62 113.06,89.76 113.22,89.89 113.33,90.08 113.44,90.26 113.49,90.46 113.53,90.67 113.51,90.88 113.49,91.09 113.40,91.29 113.31,91.48 113.17,91.64 113.02,91.79 112.84,91.89 112.65,91.99 112.44,92.03 112.23,92.06 112.02,92.03 111.81,91.99 111.62,91.90 111.43,91.80 111.29,91.64 111.14,91.49 111.05,91.30 110.96,91.10 110.94,90.89 110.91,90.68 110.96,90.47 111.00,90.27 111.00,90.27 111.00,90.27 110.75,87.19 110.50,84.11 110.76,81.10 111.03,78.09 111.30,74.35 111.57,70.62 111.75,65.81 111.94,61.01 111.92,55.38 111.91,49.75 111.89,43.71 111.86,37.68 111.80,31.42 111.74,25.16 112.04,20.72 112.35,16.28 112.61,12.62 112.87,8.95 113.55,7.03 114.23,5.11 113.16,5.00 112.10,4.90 111.02,4.72 109.94,4.53 108.55,4.49 107.16,4.46 105.76,4.36 104.36,4.27 102.86,4.09 101.36,3.91 99.59,3.91 97.81,3.91 95.43,3.91 93.04,3.91 90.60,3.92 88.15,3.93 86.01,3.94 83.86,3.96 81.98,4.00 80.09,4.03 78.31,4.12 76.53,4.21 74.23,4.46 71.93,4.71 69.56,4.83 67.19,4.94 63.69,5.23 60.20,5.51 56.90,5.74 53.61,5.96 50.16,6.03 46.72,6.11 42.05,6.29 37.39,6.47 33.38,6.45 29.36,6.43 25.28,6.38 21.20,6.33 18.89,6.21 16.58,6.09 14.16,5.83 11.75,5.57 8.79,5.33 5.83,5.10 3.79,4.56 1.75,4.03 0.69,2.66 -0.36,1.29 -0.51,1.22 -0.66,1.16 -0.79,1.06 -0.92,0.97 -1.02,0.84 -1.13,0.72 -1.20,0.57 -1.27,0.42 -1.30,0.27 -1.33,0.11 -1.33,-0.04 -1.32,-0.21 -1.28,-0.36 -1.23,-0.52 -1.15,-0.66 -1.07,-0.80 -0.96,-0.92 -0.85,-1.03 -0.71,-1.12 -0.58,-1.21 -0.42,-1.26 -0.27,-1.31 -0.11,-1.32 0.04,-1.34 0.20,-1.31 0.36,-1.29 0.36,-1.29 L 0.36,-1.29 Z"/></g><g transform="translate(91.3333740234375 44.66667175292969) rotate(0 3.33331298828125 116.33334350585938)" stroke="none" fill="#000000"><path d="M -0.42,1.49 Q -0.42,1.49 -1.96,1.81 -3.50,2.13 -5.94,2.00 -8.37,1.88 -11.22,2.04 -14.06,2.19 -16.71,2.63 -19.35,3.06 -22.43,3.62 -25.50,4.19 -28.30,4.81 -31.11,5.43 -34.17,6.25 -37.23,7.08 -40.80,8.19 -44.38,9.29 -47.85,10.35 -51.31,11.40 -54.49,12.42 -57.66,13.44 -60.48,14.10 -63.30,14.76 -65.57,15.05 -67.83,15.35 -69.58,15.47 -71.33,15.59 -72.45,15.64 -73.58,15.69 -74.75,15.72 -75.91,15.75 -77.38,15.74 -78.85,15.73 -79.37,15.64 -79.89,15.56 -80.26,15.63 -80.63,15.70 -81.00,15.68 -81.38,15.66 -81.73,15.55 -82.09,15.44 -82.42,15.24 -82.74,15.05 -83.00,14.79 -83.27,14.52 -83.47,14.20 -83.66,13.88 -83.77,13.52 -83.89,13.16 -83.91,12.79 -83.93,12.41 -83.87,12.05 -83.80,11.68 -83.65,11.33 -83.50,10.99 -83.26,10.69 -83.03,10.40 -82.74,10.17 -82.44,9.93 -82.10,9.78 -81.76,9.62 -80.10,10.32 -78.43,11.02 -77.88,12.13 -77.33,13.24 -76.87,14.67 -76.41,16.10 -76.36,17.23 -76.31,18.36 -76.28,19.98 -76.25,21.61 -76.06,23.25 -75.86,24.89 -75.76,27.13 -75.66,29.38 -75.44,31.71 -75.21,34.04 -74.74,36.65 -74.28,39.26 -73.87,42.23 -73.46,45.19 -72.74,48.80 -72.01,52.41 -71.50,55.17 -70.99,57.92 -70.40,60.55 -69.82,63.18 -69.35,66.17 -68.88,69.17 -68.48,72.97 -68.08,76.78 -67.91,79.79 -67.74,82.80 -67.66,85.63 -67.59,88.47 -67.56,91.01 -67.53,93.56 -67.51,95.79 -67.49,98.02 -67.67,100.84 -67.85,103.65 -68.12,105.86 -68.40,108.07 -68.49,110.52 -68.59,112.97 -68.63,115.19 -68.67,117.40 -68.69,119.30 -68.71,121.20 -68.71,122.96 -68.71,124.73 -68.71,126.43 -68.71,128.13 -68.44,130.14 -68.18,132.14 -68.12,133.82 -68.06,135.49 -67.88,136.73 -67.70,137.97 -67.61,139.07 -67.52,140.17 -66.96,141.57 -66.40,142.98 -66.10,144.46 -65.81,145.94 -65.87,147.38 -65.92,148.82 -65.96,150.76 -66.00,152.70 -65.74,154.75 -65.48,156.79 -65.43,157.90 -65.39,159.00 -65.12,160.43 -64.84,161.85 -64.51,163.53 -64.18,165.21 -64.10,167.00 -64.03,168.79 -63.76,169.98 -63.49,171.16 -63.00,173.47 -62.51,175.78 -62.35,177.79 -62.19,179.80 -61.96,181.58 -61.73,183.35 -61.44,185.03 -61.16,186.71 -60.27,189.63 -59.38,192.54 -59.00,194.50 -58.61,196.46 -58.26,198.44 -57.91,200.41 -57.40,202.46 -56.90,204.51 -56.63,206.40 -56.37,208.30 -56.10,209.67 -55.83,211.04 -55.54,212.13 -55.26,213.21 -55.07,214.78 -54.88,216.35 -54.53,218.75 -54.17,221.15 -53.96,222.46 -53.75,223.77 -53.57,226.01 -53.39,228.25 -53.37,229.32 -53.36,230.40 -52.04,229.99 -50.73,229.58 -48.39,229.51 -46.05,229.43 -44.06,229.05 -42.07,228.67 -38.37,228.11 -34.66,227.54 -31.25,226.93 -27.83,226.31 -24.14,225.84 -20.46,225.37 -16.89,224.80 -13.32,224.24 -9.80,223.79 -6.28,223.34 -2.86,222.61 0.54,221.88 4.53,220.98 8.52,220.09 11.64,219.50 14.75,218.91 17.73,218.29 20.72,217.67 23.41,217.20 26.10,216.74 29.34,216.51 32.59,216.29 35.09,216.21 37.59,216.12 39.62,216.09 41.64,216.05 43.27,216.04 44.90,216.02 46.10,215.84 47.31,215.66 48.84,215.56 50.37,215.46 52.78,215.42 55.18,215.39 57.14,215.37 59.09,215.35 60.69,215.35 62.29,215.34 64.33,215.54 66.36,215.74 67.77,215.62 69.17,215.50 71.34,215.45 73.50,215.40 75.16,215.20 76.82,215.00 78.68,214.90 80.55,214.80 82.11,214.76 83.67,214.72 85.42,214.55 87.17,214.37 87.64,214.42 88.11,214.47 88.56,214.64 89.00,214.80 89.39,215.06 89.78,215.33 90.10,215.67 90.41,216.02 90.64,216.44 90.86,216.85 90.98,217.31 91.10,217.77 91.10,218.24 91.11,218.71 91.00,219.17 90.89,219.63 90.68,220.05 90.46,220.47 90.15,220.83 89.84,221.18 89.46,221.46 89.07,221.73 88.64,221.90 88.20,222.07 87.73,222.13 87.26,222.20 86.16,221.92 85.05,221.64 84.00,221.34 82.96,221.04 79.95,220.73 76.95,220.43 76.74,220.45 76.53,220.47 76.32,220.43 76.12,220.38 75.93,220.27 75.75,220.16 75.62,220.00 75.48,219.83 75.40,219.64 75.32,219.44 75.31,219.23 75.30,219.01 75.36,218.81 75.42,218.61 75.53,218.43 75.65,218.25 75.82,218.13 75.99,218.00 76.20,217.93 76.40,217.86 76.61,217.86 76.82,217.87 77.02,217.93 77.22,218.00 77.39,218.13 77.56,218.26 77.68,218.44 77.80,218.61 77.86,218.82 77.91,219.02 77.90,219.23 77.89,219.45 77.81,219.64 77.73,219.84 77.59,220.00 77.45,220.16 77.27,220.27 77.09,220.38 76.88,220.43 76.67,220.47 76.46,220.45 76.25,220.43 76.06,220.34 75.87,220.25 75.71,220.10 75.56,219.95 75.46,219.76 75.36,219.58 75.33,219.37 75.29,219.16 75.33,218.95 75.36,218.74 75.46,218.55 75.56,218.36 75.72,218.22 75.87,218.07 76.06,217.98 76.26,217.89 76.26,217.89 76.26,217.89 79.69,216.47 83.13,215.05 85.15,214.71 87.17,214.37 87.64,214.42 88.11,214.47 88.56,214.64 89.00,214.80 89.39,215.06 89.78,215.32 90.10,215.67 90.41,216.02 90.64,216.44 90.86,216.85 90.98,217.31 91.10,217.77 91.10,218.24 91.11,218.71 91.00,219.17 90.89,219.63 90.68,220.05 90.46,220.47 90.15,220.83 89.85,221.18 89.46,221.46 89.07,221.73 88.64,221.90 88.20,222.07 87.73,222.13 87.26,222.20 88.35,221.62 89.44,221.05 86.65,221.88 83.87,222.71 82.42,222.75 80.96,222.79 79.34,222.87 77.73,222.95 75.70,223.17 73.68,223.39 71.68,223.44 69.69,223.48 67.62,223.59 65.56,223.69 63.94,223.51 62.32,223.33 60.74,223.34 59.16,223.35 57.23,223.36 55.30,223.38 53.08,223.41 50.86,223.44 49.62,223.51 48.39,223.58 46.68,223.80 44.98,224.01 43.38,224.03 41.78,224.04 39.82,224.08 37.86,224.11 35.48,224.19 33.10,224.27 30.28,224.44 27.47,224.61 24.90,225.06 22.34,225.50 19.29,226.14 16.23,226.77 13.25,227.33 10.27,227.89 6.24,228.79 2.20,229.69 -1.53,230.48 -5.27,231.27 -8.67,231.70 -12.07,232.13 -15.76,232.71 -19.45,233.30 -22.94,233.74 -26.42,234.18 -29.94,234.81 -33.46,235.43 -37.06,235.98 -40.66,236.53 -43.23,236.97 -45.81,237.41 -47.89,237.47 -49.98,237.52 -51.94,237.67 -53.90,237.83 -55.41,237.63 -56.93,237.43 -58.37,236.43 -59.81,235.44 -60.56,233.83 -61.32,232.22 -61.35,230.37 -61.38,228.53 -61.45,227.07 -61.53,225.62 -61.79,224.41 -62.05,223.19 -62.16,221.53 -62.27,219.87 -62.63,217.54 -62.99,215.21 -63.34,213.89 -63.68,212.56 -63.98,210.96 -64.29,209.36 -64.48,207.88 -64.66,206.40 -65.22,204.11 -65.77,201.82 -66.12,199.90 -66.46,197.98 -66.80,196.18 -67.15,194.39 -67.48,192.93 -67.81,191.47 -68.42,189.77 -69.03,188.06 -69.34,186.22 -69.65,184.37 -69.91,182.37 -70.16,180.36 -70.25,178.87 -70.34,177.38 -70.62,176.00 -70.90,174.61 -71.18,173.00 -71.46,171.39 -71.74,170.21 -72.01,169.03 -71.98,167.63 -71.96,166.22 -72.42,164.09 -72.88,161.96 -73.12,160.62 -73.36,159.28 -73.44,157.43 -73.52,155.57 -73.71,153.11 -73.89,150.66 -73.55,148.49 -73.21,146.32 -74.01,144.76 -74.80,143.20 -75.17,141.11 -75.54,139.03 -75.77,136.65 -75.99,134.27 -76.08,132.64 -76.17,131.02 -76.39,129.57 -76.60,128.13 -76.59,126.41 -76.58,124.69 -76.57,122.90 -76.56,121.12 -76.53,119.17 -76.50,117.23 -76.45,114.93 -76.39,112.63 -76.26,109.85 -76.12,107.07 -75.86,105.09 -75.59,103.11 -75.40,100.59 -75.20,98.07 -75.21,95.86 -75.21,93.65 -75.24,91.15 -75.27,88.66 -75.33,85.94 -75.40,83.23 -75.55,80.40 -75.70,77.57 -76.07,73.95 -76.43,70.34 -76.85,67.59 -77.28,64.84 -77.89,62.08 -78.50,59.32 -79.00,56.61 -79.51,53.91 -80.27,50.07 -81.03,46.23 -81.41,43.40 -81.80,40.57 -82.29,37.66 -82.78,34.75 -83.01,32.21 -83.24,29.68 -83.30,27.68 -83.37,25.68 -83.56,23.66 -83.76,21.64 -83.72,19.05 -83.68,16.46 -83.36,15.35 -83.03,14.24 -81.46,14.90 -79.89,15.56 -80.26,15.63 -80.63,15.70 -81.00,15.68 -81.38,15.66 -81.73,15.55 -82.09,15.44 -82.42,15.24 -82.74,15.05 -83.00,14.79 -83.27,14.52 -83.47,14.20 -83.66,13.88 -83.77,13.52 -83.89,13.16 -83.91,12.79 -83.93,12.41 -83.87,12.05 -83.80,11.68 -83.65,11.33 -83.50,10.99 -83.26,10.69 -83.03,10.40 -82.74,10.17 -82.44,9.93 -82.10,9.78 -81.76,9.62 -81.42,9.58 -81.07,9.53 -79.46,9.54 -77.86,9.55 -76.49,9.54 -75.12,9.53 -73.44,9.46 -71.75,9.40 -70.18,9.29 -68.60,9.19 -66.65,8.95 -64.70,8.71 -62.13,8.12 -59.55,7.53 -56.33,6.50 -53.12,5.47 -49.66,4.42 -46.21,3.37 -42.53,2.23 -38.84,1.09 -35.64,0.23 -32.44,-0.62 -29.53,-1.25 -26.63,-1.89 -23.48,-2.48 -20.34,-3.06 -17.37,-3.53 -14.40,-4.01 -11.26,-4.17 -8.11,-4.34 -6.32,-4.25 -4.53,-4.15 -3.19,-3.91 -1.85,-3.67 -0.71,-2.58 0.42,-1.49 0.60,-1.42 0.77,-1.35 0.92,-1.23 1.07,-1.12 1.19,-0.98 1.31,-0.83 1.39,-0.66 1.47,-0.49 1.51,-0.31 1.55,-0.13 1.54,0.05 1.53,0.24 1.48,0.42 1.43,0.60 1.34,0.76 1.24,0.93 1.11,1.06 0.98,1.20 0.83,1.30 0.67,1.40 0.49,1.46 0.31,1.52 0.12,1.53 -0.05,1.55 -0.24,1.52 -0.42,1.49 -0.42,1.49 L -0.42,1.49 Z"/></g><g transform="translate(205.3333740234375 242) rotate(0 14 24.333343505859375)" stroke="none" fill="#000000"><path d="M -1.30,-0.26 Q -1.30,-0.26 -1.43,-1.26 -1.56,-2.26 -2.92,-1.90 -4.27,-1.54 -5.58,-0.15 -6.90,1.23 -7.68,2.28 -8.47,3.32 -9.24,4.75 -10.00,6.18 -10.51,7.28 -11.02,8.39 -11.40,11.09 -11.78,13.79 -11.88,15.22 -11.99,16.65 -12.02,18.55 -12.06,20.46 -11.88,22.66 -11.71,24.86 -11.45,27.14 -11.19,29.41 -10.72,31.56 -10.26,33.71 -9.38,35.70 -8.50,37.69 -7.46,39.37 -6.41,41.05 -4.67,42.65 -2.93,44.24 -1.16,45.45 0.60,46.67 3.01,47.64 5.43,48.62 8.02,49.21 10.61,49.80 13.31,50.05 16.00,50.30 18.61,50.04 21.22,49.78 23.38,49.00 25.54,48.21 27.54,47.19 29.53,46.16 31.15,44.90 32.77,43.65 34.07,42.14 35.38,40.64 36.22,39.21 37.07,37.79 37.73,35.88 38.39,33.97 38.87,31.91 39.35,29.84 39.34,28.31 39.33,26.78 39.16,25.02 39.00,23.26 38.74,21.58 38.49,19.90 38.06,18.43 37.62,16.97 36.94,15.56 36.27,14.15 35.42,12.58 34.57,11.00 33.72,9.69 32.87,8.38 31.95,7.84 31.03,7.30 29.84,6.59 28.66,5.88 27.36,5.52 26.05,5.17 24.47,4.77 22.89,4.37 20.80,4.03 18.70,3.69 16.76,3.55 14.83,3.41 13.25,3.48 11.66,3.55 10.19,3.74 8.72,3.93 7.53,3.78 6.34,3.62 4.05,2.77 1.76,1.93 1.57,1.83 1.39,1.74 1.24,1.59 1.09,1.43 0.99,1.24 0.90,1.05 0.87,0.84 0.85,0.63 0.89,0.42 0.93,0.21 1.03,0.03 1.14,-0.14 1.30,-0.29 1.46,-0.43 1.65,-0.51 1.85,-0.59 2.06,-0.61 2.27,-0.62 2.48,-0.57 2.69,-0.52 2.86,-0.40 3.04,-0.29 3.17,-0.12 3.31,0.04 3.38,0.24 3.45,0.44 3.45,0.65 3.46,0.86 3.39,1.06 3.33,1.27 3.21,1.44 3.08,1.61 2.91,1.73 2.73,1.86 2.53,1.92 2.33,1.98 2.11,1.97 1.90,1.96 1.70,1.89 1.50,1.81 1.34,1.68 1.17,1.55 1.06,1.37 0.95,1.19 0.90,0.98 0.85,0.77 0.87,0.56 0.89,0.35 0.97,0.15 1.06,-0.03 1.20,-0.19 1.34,-0.34 1.53,-0.45 1.71,-0.55 1.92,-0.59 2.13,-0.63 2.34,-0.60 2.55,-0.57 2.55,-0.57 2.55,-0.57 3.76,-1.03 4.97,-1.50 6.04,-2.03 7.10,-2.55 9.12,-3.24 11.14,-3.92 13.27,-4.10 15.39,-4.28 17.67,-4.10 19.95,-3.93 22.36,-3.53 24.76,-3.13 26.56,-2.69 28.36,-2.24 30.50,-1.53 32.64,-0.81 34.16,0.10 35.67,1.02 37.49,2.50 39.30,3.99 40.37,5.63 41.44,7.28 42.41,9.06 43.38,10.84 44.27,12.81 45.17,14.78 45.73,16.76 46.28,18.74 46.56,20.65 46.84,22.56 47.03,24.75 47.21,26.94 47.12,29.28 47.03,31.62 46.42,34.16 45.81,36.70 44.80,39.31 43.80,41.92 42.54,43.91 41.27,45.90 39.41,47.92 37.54,49.94 35.33,51.57 33.11,53.20 30.59,54.45 28.07,55.70 25.01,56.67 21.95,57.64 18.60,57.90 15.24,58.16 12.02,57.82 8.79,57.48 5.58,56.69 2.36,55.89 -0.76,54.51 -3.89,53.14 -6.15,51.52 -8.41,49.90 -10.74,47.53 -13.08,45.17 -14.39,42.94 -15.71,40.72 -16.79,38.03 -17.87,35.35 -18.39,32.81 -18.91,30.28 -19.18,27.84 -19.45,25.41 -19.61,22.83 -19.77,20.25 -19.70,18.14 -19.62,16.03 -19.47,14.31 -19.32,12.59 -18.99,10.63 -18.66,8.66 -18.25,6.92 -17.83,5.18 -17.12,3.75 -16.40,2.32 -15.20,0.48 -13.99,-1.35 -12.85,-2.58 -11.70,-3.82 -10.68,-4.71 -9.65,-5.60 -8.51,-6.47 -7.36,-7.34 -5.98,-7.96 -4.60,-8.58 -3.41,-8.73 -2.22,-8.88 -0.47,-7.97 1.28,-7.06 1.82,-5.44 2.37,-3.83 2.35,-2.69 2.33,-1.56 1.82,-0.65 1.30,0.26 1.25,0.41 1.20,0.56 1.12,0.70 1.03,0.83 0.91,0.94 0.80,1.06 0.66,1.14 0.52,1.22 0.37,1.26 0.21,1.31 0.05,1.32 -0.10,1.32 -0.25,1.29 -0.41,1.26 -0.56,1.19 -0.70,1.12 -0.83,1.02 -0.95,0.92 -1.05,0.79 -1.15,0.67 -1.21,0.52 -1.27,0.37 -1.30,0.21 -1.33,0.05 -1.31,-0.10 -1.30,-0.26 -1.30,-0.26 L -1.30,-0.26 Z"/></g><g transform="translate(222 248.66668701171875) rotate(0 -9 20.666656494140625)" stroke="none" fill="#000000"><path d="M 1.28,0.77 Q 1.28,0.77 1.11,3.27 0.93,5.76 -0.17,8.48 -1.28,11.19 -2.16,13.51 -3.04,15.84 -4.02,18.24 -5.00,20.64 -5.75,22.87 -6.50,25.10 -7.45,27.66 -8.40,30.21 -9.50,32.64 -10.61,35.07 -11.87,37.08 -13.13,39.09 -14.77,40.69 -16.41,42.29 -16.52,42.47 -16.63,42.65 -16.80,42.78 -16.97,42.91 -17.16,42.99 -17.36,43.06 -17.58,43.07 -17.79,43.07 -17.99,43.01 -18.20,42.95 -18.37,42.82 -18.54,42.70 -18.66,42.53 -18.79,42.35 -18.85,42.15 -18.91,41.95 -18.91,41.74 -18.90,41.52 -18.83,41.32 -18.76,41.12 -18.62,40.96 -18.49,40.79 -18.31,40.68 -18.13,40.56 -17.92,40.51 -17.72,40.46 -17.51,40.48 -17.29,40.50 -17.10,40.58 -16.90,40.66 -16.75,40.81 -16.59,40.95 -16.48,41.13 -16.38,41.32 -16.34,41.53 -16.30,41.73 -16.33,41.95 -16.36,42.16 -16.45,42.35 -16.55,42.54 -16.70,42.69 -16.85,42.84 -17.04,42.93 -17.23,43.03 -17.44,43.05 -17.65,43.08 -17.86,43.04 -18.06,43.00 -18.25,42.90 -18.43,42.79 -18.58,42.64 -18.72,42.48 -18.80,42.28 -18.89,42.09 -18.90,41.88 -18.92,41.66 -18.87,41.46 -18.82,41.25 -18.82,41.25 -18.82,41.25 -18.72,38.81 -18.62,36.37 -17.91,34.40 -17.20,32.44 -16.38,30.04 -15.56,27.63 -14.68,25.13 -13.81,22.63 -12.98,20.17 -12.14,17.71 -11.19,15.40 -10.24,13.08 -9.29,10.62 -8.33,8.16 -6.93,5.03 -5.53,1.89 -3.41,0.56 -1.28,-0.77 -1.17,-0.91 -1.06,-1.05 -0.92,-1.17 -0.78,-1.28 -0.61,-1.35 -0.45,-1.43 -0.27,-1.46 -0.09,-1.49 0.08,-1.48 0.26,-1.47 0.43,-1.42 0.61,-1.37 0.76,-1.27 0.92,-1.18 1.05,-1.05 1.17,-0.92 1.27,-0.77 1.36,-0.62 1.42,-0.44 1.47,-0.27 1.48,-0.09 1.49,0.08 1.46,0.26 1.43,0.44 1.36,0.60 1.28,0.77 1.28,0.77 L 1.28,0.77 Z"/></g><g transform="translate(199.3333740234375 252.66668701171875) rotate(0 17.33331298828125 14.666656494140625)" stroke="none" fill="#000000"><path d="M 1.04,-0.95 Q 1.04,-0.95 3.95,0.60 6.87,2.16 8.88,3.94 10.89,5.73 13.56,7.75 16.23,9.77 18.66,11.92 21.09,14.06 23.08,15.94 25.07,17.82 26.68,19.08 28.28,20.34 29.89,22.21 31.50,24.08 32.93,25.87 34.37,27.65 34.53,27.79 34.70,27.92 34.81,28.10 34.93,28.28 34.98,28.48 35.03,28.69 35.01,28.90 35.00,29.11 34.91,29.31 34.83,29.50 34.69,29.66 34.55,29.82 34.36,29.93 34.18,30.03 33.97,30.07 33.76,30.11 33.55,30.08 33.34,30.05 33.15,29.96 32.96,29.87 32.81,29.72 32.66,29.57 32.56,29.38 32.47,29.18 32.44,28.97 32.41,28.76 32.45,28.56 32.49,28.35 32.59,28.16 32.70,27.98 32.85,27.83 33.01,27.69 33.21,27.61 33.40,27.52 33.61,27.51 33.83,27.49 34.03,27.54 34.24,27.59 34.42,27.71 34.60,27.82 34.73,27.99 34.86,28.15 34.94,28.35 35.01,28.55 35.02,28.76 35.02,28.97 34.96,29.18 34.90,29.38 34.77,29.55 34.65,29.73 34.48,29.85 34.31,29.97 34.10,30.04 33.90,30.10 33.69,30.09 33.47,30.09 33.28,30.02 33.08,29.94 33.08,29.94 33.08,29.94 30.24,29.33 27.41,28.71 25.58,27.51 23.75,26.31 21.79,24.85 19.82,23.40 17.91,21.60 16.00,19.81 13.76,17.82 11.53,15.82 8.62,13.51 5.71,11.21 3.63,9.12 1.55,7.03 0.25,3.99 -1.04,0.95 -1.14,0.81 -1.24,0.67 -1.30,0.52 -1.36,0.36 -1.39,0.19 -1.41,0.02 -1.39,-0.14 -1.38,-0.31 -1.32,-0.47 -1.26,-0.63 -1.17,-0.77 -1.07,-0.92 -0.95,-1.03 -0.82,-1.15 -0.67,-1.23 -0.52,-1.31 -0.35,-1.35 -0.19,-1.40 -0.02,-1.40 0.14,-1.40 0.31,-1.37 0.48,-1.33 0.63,-1.25 0.78,-1.17 0.91,-1.06 1.04,-0.95 1.04,-0.95 L 1.04,-0.95 Z"/></g><g transform="translate(250 264) rotate(0 2.3333740234375 -25)" stroke="none" fill="#000000"><path d="M -0.28,-1.42 Q -0.28,-1.42 0.53,-2.31 1.35,-3.21 2.49,-3.34 3.63,-3.46 4.83,-3.44 6.03,-3.42 4.91,-2.78 3.78,-2.14 3.44,-3.20 3.10,-4.26 2.71,-5.39 2.32,-6.53 1.98,-7.57 1.65,-8.61 1.28,-9.91 0.92,-11.21 0.33,-12.47 -0.24,-13.73 -0.72,-15.07 -1.20,-16.40 -1.47,-17.86 -1.75,-19.32 -2.15,-20.80 -2.55,-22.29 -2.84,-23.81 -3.12,-25.33 -3.46,-26.97 -3.79,-28.61 -3.85,-29.78 -3.91,-30.95 -4.23,-32.05 -4.55,-33.14 -4.58,-34.31 -4.62,-35.47 -4.62,-36.79 -4.63,-38.12 -4.93,-40.11 -5.23,-42.11 -5.26,-43.34 -5.28,-44.57 -5.29,-45.69 -5.30,-46.81 -4.58,-48.12 -3.86,-49.43 -3.89,-49.64 -3.92,-49.85 -3.89,-50.06 -3.85,-50.27 -3.75,-50.46 -3.65,-50.64 -3.49,-50.79 -3.33,-50.93 -3.14,-51.02 -2.95,-51.11 -2.73,-51.13 -2.52,-51.15 -2.32,-51.10 -2.11,-51.05 -1.93,-50.94 -1.75,-50.83 -1.61,-50.66 -1.48,-50.50 -1.40,-50.30 -1.32,-50.10 -1.32,-49.89 -1.31,-49.68 -1.37,-49.47 -1.43,-49.27 -1.55,-49.10 -1.67,-48.92 -1.84,-48.80 -2.01,-48.67 -2.21,-48.60 -2.41,-48.54 -2.63,-48.54 -2.84,-48.54 -3.04,-48.61 -3.24,-48.68 -3.41,-48.81 -3.58,-48.95 -3.69,-49.12 -3.81,-49.30 -3.86,-49.51 -3.92,-49.71 -3.90,-49.92 -3.89,-50.14 -3.81,-50.33 -3.73,-50.53 -3.59,-50.69 -3.45,-50.85 -3.26,-50.96 -3.08,-51.06 -2.87,-51.11 -2.66,-51.15 -2.45,-51.12 -2.24,-51.10 -2.05,-51.01 -1.86,-50.91 -1.71,-50.77 -1.55,-50.62 -1.46,-50.43 -1.36,-50.24 -1.36,-50.24 -1.36,-50.24 -0.03,-48.53 1.30,-46.82 1.30,-45.74 1.30,-44.66 1.23,-43.21 1.15,-41.77 1.56,-39.94 1.96,-38.12 1.96,-36.82 1.96,-35.53 1.96,-34.45 1.96,-33.36 2.29,-32.35 2.62,-31.33 2.68,-30.13 2.73,-28.93 3.02,-27.45 3.31,-25.96 3.58,-24.19 3.84,-22.42 4.30,-21.27 4.76,-20.12 5.03,-19.08 5.31,-18.04 5.59,-16.85 5.88,-15.67 6.62,-13.96 7.37,-12.25 7.67,-11.14 7.98,-10.02 8.26,-8.76 8.54,-7.50 8.92,-6.46 9.29,-5.42 9.81,-4.06 10.34,-2.70 9.73,-0.80 9.12,1.08 7.36,1.70 5.61,2.32 4.04,2.38 2.48,2.44 1.38,1.93 0.28,1.42 0.11,1.43 -0.06,1.44 -0.23,1.42 -0.40,1.39 -0.56,1.32 -0.73,1.25 -0.86,1.14 -1.00,1.04 -1.11,0.90 -1.22,0.77 -1.30,0.61 -1.37,0.45 -1.41,0.28 -1.44,0.11 -1.43,-0.06 -1.43,-0.23 -1.38,-0.40 -1.33,-0.57 -1.24,-0.72 -1.15,-0.87 -1.03,-1.00 -0.91,-1.12 -0.76,-1.21 -0.61,-1.31 -0.45,-1.36 -0.28,-1.42 -0.28,-1.42 L -0.28,-1.42 Z"/></g><g transform="translate(248 210.66668701171875) rotate(0 0.66668701171875 1.33331298828125)" stroke="none" fill="#000000"><path d="M 1.34,0.26 Q 1.34,0.26 1.64,1.01 1.94,1.75 0.29,0.58 -1.36,-0.59 -1.17,-0.69 -0.99,-0.79 -0.78,-0.84 -0.57,-0.88 -0.36,-0.85 -0.15,-0.82 0.03,-0.72 0.22,-0.63 0.37,-0.48 0.52,-0.33 0.62,-0.14 0.71,0.04 0.74,0.25 0.77,0.46 0.73,0.67 0.69,0.88 0.59,1.06 0.48,1.25 0.32,1.39 0.17,1.53 -0.02,1.62 -0.21,1.70 -0.43,1.72 -0.64,1.74 -0.84,1.69 -1.05,1.63 -1.23,1.52 -1.41,1.41 -1.54,1.24 -1.67,1.08 -1.75,0.88 -1.82,0.68 -1.83,0.46 -1.83,0.25 -1.77,0.05 -1.71,-0.14 -1.59,-0.32 -1.46,-0.49 -1.29,-0.61 -1.12,-0.74 -0.91,-0.80 -0.71,-0.86 -0.50,-0.86 -0.29,-0.85 -0.09,-0.78 0.10,-0.71 0.27,-0.57 0.43,-0.44 0.55,-0.26 0.66,-0.08 0.72,0.11 0.77,0.32 0.75,0.53 0.73,0.74 0.65,0.94 0.57,1.13 0.42,1.29 0.28,1.45 0.28,1.45 0.28,1.45 0.80,-0.37 1.31,-2.19 2.45,-1.73 3.59,-1.27 4.28,-0.19 4.97,0.88 4.73,2.09 4.49,3.31 3.12,4.26 1.75,5.21 0.41,4.94 -0.92,4.67 -1.81,3.37 -2.71,2.07 -2.03,0.90 -1.34,-0.26 -1.29,-0.42 -1.24,-0.58 -1.15,-0.72 -1.06,-0.86 -0.94,-0.97 -0.82,-1.09 -0.68,-1.17 -0.54,-1.26 -0.38,-1.30 -0.22,-1.35 -0.06,-1.36 0.10,-1.36 0.26,-1.33 0.42,-1.30 0.57,-1.23 0.72,-1.16 0.85,-1.05 0.98,-0.95 1.08,-0.82 1.18,-0.69 1.25,-0.53 1.31,-0.38 1.34,-0.22 1.37,-0.06 1.35,0.10 1.34,0.26 1.34,0.26 L 1.34,0.26 Z"/></g><g transform="translate(254.66668701171875 199.33334350585938) rotate(0 -2 5.3333282470703125)" stroke="none" fill="#000000"><path d="M -0.78,1.17 Q -0.78,1.17 -2.24,0.88 -3.69,0.59 -4.93,0.90 -6.16,1.21 -7.99,2.08 -9.82,2.95 -9.77,4.21 -9.71,5.47 -9.17,6.98 -8.63,8.48 -7.67,8.94 -6.71,9.40 -5.00,9.79 -3.29,10.19 -1.10,9.69 1.07,9.19 2.82,8.35 4.58,7.51 4.32,5.61 4.06,3.70 2.20,2.54 0.34,1.38 -2.34,0.70 -5.02,0.02 -7.75,-0.41 -10.48,-0.85 -10.69,-0.86 -10.90,-0.87 -11.10,-0.94 -11.30,-1.02 -11.46,-1.16 -11.62,-1.30 -11.73,-1.48 -11.84,-1.66 -11.89,-1.87 -11.94,-2.07 -11.91,-2.28 -11.89,-2.50 -11.80,-2.69 -11.72,-2.88 -11.57,-3.04 -11.42,-3.19 -11.24,-3.29 -11.05,-3.39 -10.84,-3.43 -10.63,-3.46 -10.42,-3.43 -10.21,-3.40 -10.02,-3.30 -9.84,-3.20 -9.69,-3.05 -9.54,-2.89 -9.45,-2.70 -9.36,-2.51 -9.34,-2.30 -9.31,-2.09 -9.36,-1.88 -9.40,-1.67 -9.51,-1.49 -9.62,-1.30 -9.78,-1.17 -9.94,-1.03 -10.14,-0.95 -10.34,-0.87 -10.55,-0.86 -10.76,-0.84 -10.97,-0.90 -11.17,-0.96 -11.35,-1.07 -11.52,-1.19 -11.65,-1.36 -11.78,-1.53 -11.85,-1.73 -11.92,-1.93 -11.92,-2.14 -11.92,-2.36 -11.86,-2.56 -11.79,-2.76 -11.66,-2.93 -11.53,-3.10 -11.36,-3.22 -11.18,-3.34 -10.98,-3.40 -10.77,-3.46 -10.77,-3.46 -10.77,-3.46 -7.29,-4.60 -3.80,-5.74 0.15,-4.88 4.12,-4.02 7.09,-1.55 10.05,0.90 10.85,3.97 11.66,7.04 10.00,10.14 8.35,13.24 5.32,14.72 2.29,16.20 -1.35,16.65 -5.00,17.09 -8.00,16.10 -11.00,15.12 -13.00,13.22 -15.01,11.32 -15.47,10.07 -15.92,8.82 -16.26,6.92 -16.60,5.02 -16.17,2.89 -15.74,0.76 -14.44,-0.79 -13.14,-2.35 -11.45,-3.20 -9.77,-4.04 -8.50,-4.32 -7.23,-4.60 -5.26,-4.68 -3.29,-4.76 -2.09,-4.21 -0.90,-3.65 -0.05,-2.41 0.78,-1.17 0.91,-1.06 1.04,-0.95 1.14,-0.81 1.24,-0.67 1.30,-0.51 1.36,-0.36 1.38,-0.19 1.41,-0.02 1.39,0.14 1.37,0.31 1.31,0.47 1.26,0.63 1.16,0.77 1.07,0.92 0.94,1.03 0.82,1.15 0.67,1.23 0.52,1.31 0.35,1.35 0.19,1.40 0.02,1.40 -0.14,1.40 -0.31,1.36 -0.47,1.32 -0.63,1.25 -0.78,1.17 -0.78,1.17 L -0.78,1.17 Z"/></g><g transform="translate(240.66668701171875 201.33334350585938) rotate(0 -22.666656494140625 -22)" stroke="none" fill="#000000"><path d="M -0.96,1.12 Q -0.96,1.12 -2.65,0.38 -4.35,-0.35 -7.88,-3.35 -11.41,-6.35 -13.33,-8.01 -15.25,-9.67 -16.92,-11.17 -18.59,-12.67 -20.21,-13.98 -21.83,-15.29 -23.27,-16.39 -24.72,-17.49 -26.21,-18.44 -27.70,-19.40 -29.11,-20.51 -30.52,-21.61 -31.71,-22.67 -32.90,-23.73 -34.18,-25.22 -35.46,-26.71 -36.73,-28.55 -37.99,-30.39 -38.87,-31.32 -39.75,-32.26 -40.55,-33.83 -41.35,-35.40 -42.01,-36.26 -42.67,-37.12 -43.34,-38.14 -44.02,-39.17 -43.74,-40.88 -43.46,-42.60 -43.44,-42.39 -43.42,-42.18 -43.47,-41.97 -43.52,-41.76 -43.63,-41.58 -43.75,-41.40 -43.91,-41.27 -44.07,-41.13 -44.27,-41.06 -44.47,-40.98 -44.68,-40.97 -44.90,-40.97 -45.10,-41.03 -45.30,-41.09 -45.48,-41.21 -45.65,-41.33 -45.78,-41.50 -45.90,-41.67 -45.97,-41.88 -46.03,-42.08 -46.03,-42.29 -46.03,-42.50 -45.95,-42.70 -45.88,-42.90 -45.75,-43.07 -45.62,-43.24 -45.44,-43.35 -45.27,-43.47 -45.06,-43.52 -44.85,-43.58 -44.64,-43.56 -44.43,-43.55 -44.23,-43.47 -44.04,-43.38 -43.88,-43.24 -43.72,-43.10 -43.61,-42.92 -43.51,-42.74 -43.46,-42.53 -43.42,-42.32 -43.45,-42.11 -43.47,-41.90 -43.57,-41.71 -43.66,-41.52 -43.81,-41.36 -43.96,-41.21 -44.14,-41.12 -44.33,-41.02 -44.54,-40.99 -44.75,-40.96 -44.96,-40.99 -45.17,-41.03 -45.36,-41.13 -45.55,-41.24 -45.69,-41.39 -45.83,-41.55 -45.92,-41.75 -46.00,-41.94 -46.00,-41.94 -46.00,-41.94 -42.74,-43.42 -39.48,-44.91 -38.31,-43.57 -37.14,-42.24 -36.37,-41.09 -35.61,-39.93 -34.46,-37.99 -33.31,-36.04 -32.49,-34.91 -31.66,-33.77 -30.79,-33.04 -29.92,-32.32 -28.87,-30.79 -27.82,-29.27 -26.80,-28.30 -25.79,-27.33 -24.70,-26.37 -23.61,-25.42 -21.95,-24.23 -20.28,-23.03 -18.80,-21.79 -17.32,-20.55 -15.67,-19.04 -14.01,-17.54 -12.48,-16.04 -10.95,-14.53 -8.95,-12.73 -6.96,-10.93 -3.98,-7.58 -1.01,-4.24 -0.02,-2.68 0.96,-1.12 1.08,-0.99 1.20,-0.86 1.29,-0.70 1.38,-0.54 1.42,-0.37 1.47,-0.20 1.47,-0.02 1.47,0.15 1.43,0.32 1.39,0.50 1.31,0.66 1.23,0.82 1.12,0.96 1.00,1.09 0.85,1.20 0.71,1.30 0.54,1.37 0.37,1.43 0.20,1.46 0.02,1.48 -0.15,1.46 -0.33,1.44 -0.50,1.38 -0.66,1.32 -0.81,1.22 -0.96,1.12 -0.96,1.12 L -0.96,1.12 Z"/></g><g transform="translate(257.3333740234375 128.66668701171875) rotate(0 -0.333343505859375 7.33331298828125)" stroke="none" fill="#000000"><path d="M 0,1.48 Q 0,1.48 -2.22,1.96 -4.45,2.45 -5.54,3.31 -6.63,4.17 -6.56,6.23 -6.50,8.29 -5.32,9.28 -4.15,10.27 -2.76,10.85 -1.37,11.43 1.45,11.10 4.28,10.76 5.59,10.06 6.90,9.35 5.66,8.03 4.41,6.71 1.68,5.70 -1.05,4.69 -3.99,4.05 -6.93,3.40 -8.99,2.71 -11.04,2.01 -11.25,1.97 -11.46,1.92 -11.64,1.82 -11.83,1.71 -11.97,1.55 -12.11,1.40 -12.19,1.20 -12.28,1.00 -12.29,0.79 -12.31,0.58 -12.26,0.37 -12.20,0.17 -12.09,-0.00 -11.97,-0.18 -11.81,-0.31 -11.64,-0.44 -11.44,-0.51 -11.24,-0.59 -11.03,-0.59 -10.81,-0.60 -10.61,-0.53 -10.41,-0.47 -10.24,-0.34 -10.07,-0.22 -9.94,-0.05 -9.82,0.12 -9.76,0.32 -9.70,0.52 -9.70,0.74 -9.71,0.95 -9.79,1.15 -9.86,1.35 -9.99,1.51 -10.13,1.68 -10.31,1.79 -10.49,1.90 -10.69,1.95 -10.90,2.00 -11.11,1.99 -11.32,1.97 -11.52,1.88 -11.71,1.80 -11.87,1.65 -12.03,1.51 -12.13,1.33 -12.24,1.14 -12.27,0.93 -12.31,0.72 -12.28,0.51 -12.25,0.30 -12.16,0.11 -12.06,-0.07 -11.91,-0.22 -11.76,-0.37 -11.57,-0.46 -11.38,-0.55 -11.17,-0.58 -10.96,-0.61 -10.96,-0.61 -10.96,-0.61 -8.50,-1.16 -6.04,-1.71 -2.42,-1.20 1.18,-0.70 4.84,0.98 8.51,2.67 10.36,5.20 12.21,7.74 11.29,10.71 10.37,13.67 8.03,15.01 5.70,16.36 2.57,16.96 -0.56,17.56 -2.23,17.10 -3.91,16.63 -6.09,15.45 -8.27,14.27 -10.10,12.02 -11.92,9.78 -12.19,6.92 -12.46,4.07 -11.00,1.86 -9.54,-0.33 -7.14,-1.39 -4.74,-2.45 -2.37,-1.96 0,-1.48 0.17,-1.46 0.35,-1.44 0.52,-1.37 0.68,-1.31 0.83,-1.21 0.98,-1.11 1.10,-0.97 1.22,-0.84 1.30,-0.68 1.38,-0.52 1.42,-0.35 1.47,-0.17 1.47,0.00 1.47,0.17 1.42,0.35 1.38,0.52 1.30,0.68 1.22,0.84 1.10,0.97 0.98,1.11 0.83,1.21 0.68,1.31 0.52,1.37 0.35,1.44 0.17,1.46 -0.00,1.48 -0.00,1.48 L 0,1.48 Z"/></g><g transform="translate(55.875091552734375 352.6667175292969) rotate(0 0 -2)" stroke="none" fill="#000000"><path d="M 1.27,-0.39 Q 1.27,-0.39 1.29,-0.07 1.31,0.24 1.18,0.53 1.05,0.82 0.80,1.02 0.54,1.22 0.23,1.27 -0.08,1.33 -0.38,1.24 -0.69,1.14 -0.91,0.91 -1.14,0.69 -1.24,0.38 -1.33,0.08 -1.27,-0.23 -1.22,-0.54 -1.02,-0.80 -0.82,-1.05 -0.53,-1.18 -0.24,-1.31 0.07,-1.29 0.39,-1.27 0.67,-1.11 0.94,-0.94 1.11,-0.67 L 1.27,-0.39 Z"/></g><g transform="translate(89.20834350585938 324.6667175292969) rotate(0 -15.333251953125 46.666656494140625)" stroke="none" fill="#000000"><path d="M 0,1.38 Q 0,1.38 -2.3,2.00 -4.6,2.63 -6.72,2.74 -8.84,2.86 -12.07,3.86 -15.31,4.85 -18.53,6.02 -21.75,7.18 -24.61,9.38 -27.47,11.59 -29.71,13.02 -31.96,14.45 -32.77,15.70 -33.58,16.96 -33.83,18.47 -34.08,19.97 -33.21,22.33 -32.33,24.69 -30.37,26.95 -28.41,29.22 -23.29,32.35 -18.16,35.48 -13.06,38.94 -7.96,42.39 -3.01,46.23 1.93,50.07 5.53,54.75 9.12,59.44 10.43,64.33 11.74,69.23 10.61,74.20 9.47,79.16 6.71,83.10 3.94,87.05 -1.98,90.14 -7.91,93.24 -14.58,94.10 -21.25,94.97 -26.02,94.88 -30.79,94.78 -34.35,93.81 -37.90,92.84 -38.66,91.76 -39.42,90.69 -39.76,90.55 -40.10,90.42 -40.40,90.20 -40.70,89.99 -40.94,89.71 -41.18,89.43 -41.35,89.10 -41.52,88.77 -41.60,88.41 -41.68,88.06 -41.67,87.69 -41.67,87.32 -41.58,86.96 -41.48,86.61 -41.31,86.28 -41.13,85.96 -40.88,85.69 -40.63,85.41 -40.32,85.21 -40.02,85.00 -39.67,84.88 -39.33,84.75 -38.96,84.72 -38.59,84.68 -38.23,84.73 -37.86,84.78 -35.75,84.65 -33.64,84.53 -33.43,84.49 -33.22,84.45 -33.01,84.48 -32.80,84.51 -32.61,84.60 -32.42,84.70 -32.27,84.85 -32.12,85.00 -32.03,85.19 -31.94,85.38 -31.91,85.59 -31.88,85.80 -31.92,86.01 -31.96,86.22 -32.07,86.41 -32.18,86.59 -32.33,86.73 -32.49,86.87 -32.69,86.96 -32.88,87.04 -33.10,87.06 -33.31,87.07 -33.51,87.02 -33.72,86.97 -33.90,86.85 -34.08,86.74 -34.21,86.57 -34.34,86.40 -34.41,86.20 -34.49,86.00 -34.49,85.79 -34.50,85.58 -34.43,85.38 -34.37,85.17 -34.24,85.00 -34.12,84.83 -33.95,84.71 -33.77,84.58 -33.57,84.52 -33.37,84.46 -33.15,84.47 -32.94,84.47 -32.74,84.55 -32.54,84.62 -32.38,84.76 -32.21,84.89 -32.10,85.07 -31.99,85.25 -31.94,85.46 -31.89,85.66 -31.90,85.87 -31.92,86.09 -32.01,86.28 -32.09,86.48 -32.23,86.63 -32.38,86.79 -32.56,86.89 -32.75,87.00 -32.75,87.00 -32.75,87.00 -36.08,88.84 -39.42,90.69 -39.76,90.55 -40.10,90.42 -40.40,90.20 -40.70,89.99 -40.94,89.71 -41.18,89.43 -41.35,89.10 -41.51,88.77 -41.60,88.41 -41.68,88.06 -41.67,87.69 -41.67,87.32 -41.58,86.96 -41.48,86.61 -41.31,86.28 -41.13,85.96 -40.88,85.69 -40.63,85.41 -40.33,85.21 -40.02,85.00 -39.67,84.88 -39.33,84.75 -38.96,84.72 -38.59,84.68 -38.23,84.73 -37.86,84.78 -36.79,85.15 -35.71,85.53 -33.15,86.17 -30.58,86.80 -26.37,86.89 -22.16,86.97 -16.72,86.45 -11.28,85.93 -6.74,83.96 -2.20,81.99 -0.18,79.42 1.82,76.85 2.92,73.72 4.02,70.58 3.37,67.24 2.73,63.90 -0.07,60.03 -2.88,56.16 -7.60,52.49 -12.31,48.82 -17.32,45.43 -22.32,42.04 -28.36,38.08 -34.39,34.13 -37.04,30.55 -39.69,26.98 -40.64,22.80 -41.58,18.63 -40.71,15.58 -39.84,12.54 -38.01,10.31 -36.19,8.09 -34.02,6.72 -31.86,5.36 -27.96,2.80 -24.06,0.25 -20.40,-0.77 -16.74,-1.79 -12.80,-2.32 -8.86,-2.86 -6.73,-2.74 -4.6,-2.63 -2.3,-2.00 0,-1.38 0.16,-1.36 0.33,-1.33 0.48,-1.28 0.64,-1.22 0.77,-1.12 0.91,-1.03 1.02,-0.90 1.13,-0.78 1.21,-0.63 1.29,-0.48 1.33,-0.32 1.37,-0.16 1.37,0.00 1.37,0.16 1.33,0.32 1.29,0.48 1.21,0.63 1.13,0.78 1.02,0.90 0.91,1.03 0.77,1.12 0.64,1.22 0.48,1.28 0.33,1.34 0.16,1.36 -0.00,1.38 -0.00,1.38 L 0,1.38 Z"/></g><g transform="translate(157.20834350585938 383.3333435058594) rotate(0 14.00006103515625 8.66668701171875)" stroke="none" fill="#000000"><path d="M 1.36,-0.68 Q 1.36,-0.68 3.03,0.41 4.70,1.50 5.63,4.80 6.56,8.10 7.29,11.30 8.02,14.51 8.34,17.60 8.67,20.69 8.81,23.15 8.94,25.62 8.99,27.01 9.04,28.41 9.01,28.86 8.98,29.32 8.84,29.75 8.70,30.19 8.46,30.58 8.22,30.97 7.89,31.29 7.56,31.61 7.17,31.84 6.78,32.08 6.34,32.21 5.90,32.34 5.45,32.36 4.99,32.39 4.54,32.30 4.09,32.22 3.68,32.02 3.26,31.83 2.90,31.55 2.55,31.26 2.27,30.90 1.99,30.54 1.80,30.12 1.62,29.70 1.54,29.25 1.46,28.80 1.90,29.87 2.33,30.95 1.14,28.56 -0.04,26.18 -0.34,22.76 -0.65,19.35 -0.40,14.75 -0.15,10.15 0.74,6.05 1.64,1.95 3.77,-1.71 5.89,-5.39 8.11,-7.81 10.33,-10.24 13.98,-12.21 17.62,-14.18 20.23,-14.82 22.84,-15.46 25.31,-14.45 27.79,-13.44 28.87,-11.41 29.95,-9.38 30.04,-9.19 30.14,-9.00 30.17,-8.79 30.20,-8.58 30.16,-8.37 30.12,-8.16 30.02,-7.97 29.92,-7.79 29.76,-7.64 29.60,-7.50 29.41,-7.41 29.21,-7.33 29.00,-7.31 28.79,-7.29 28.58,-7.34 28.38,-7.39 28.20,-7.50 28.02,-7.62 27.88,-7.78 27.75,-7.95 27.67,-8.15 27.60,-8.34 27.59,-8.56 27.58,-8.77 27.64,-8.97 27.70,-9.18 27.83,-9.35 27.95,-9.52 28.12,-9.65 28.29,-9.77 28.50,-9.84 28.70,-9.90 28.91,-9.90 29.12,-9.89 29.32,-9.82 29.52,-9.75 29.69,-9.62 29.86,-9.49 29.97,-9.31 30.09,-9.13 30.14,-8.92 30.19,-8.72 30.18,-8.51 30.16,-8.29 30.08,-8.10 30.00,-7.90 29.86,-7.74 29.72,-7.58 29.53,-7.48 29.35,-7.37 29.14,-7.33 28.93,-7.29 28.72,-7.32 28.51,-7.34 28.32,-7.44 28.13,-7.53 27.98,-7.68 27.82,-7.83 27.82,-7.83 27.82,-7.83 26.05,-8.47 24.28,-9.11 22.69,-8.34 21.10,-7.57 18.48,-6.23 15.85,-4.89 14.15,-3.12 12.45,-1.35 10.75,1.23 9.06,3.82 8.18,7.24 7.30,10.66 6.98,14.73 6.65,18.80 6.69,22.18 6.73,25.56 7.88,26.98 9.04,28.41 9.01,28.86 8.98,29.32 8.84,29.75 8.70,30.19 8.46,30.58 8.22,30.97 7.89,31.29 7.57,31.61 7.17,31.84 6.78,32.08 6.34,32.21 5.90,32.34 5.45,32.36 4.99,32.39 4.54,32.30 4.09,32.22 3.68,32.02 3.26,31.83 2.90,31.55 2.55,31.26 2.27,30.90 1.99,30.54 1.80,30.12 1.62,29.70 1.54,29.25 1.46,28.80 1.41,27.41 1.35,26.02 1.24,23.73 1.12,21.45 0.87,18.78 0.62,16.10 -0.01,12.97 -0.66,9.83 -1.14,7.23 -1.63,4.63 -1.50,2.65 -1.36,0.68 -1.42,0.50 -1.48,0.33 -1.50,0.15 -1.52,-0.02 -1.49,-0.21 -1.47,-0.39 -1.40,-0.56 -1.33,-0.73 -1.22,-0.88 -1.12,-1.03 -0.98,-1.15 -0.84,-1.27 -0.67,-1.35 -0.51,-1.43 -0.33,-1.47 -0.15,-1.51 0.02,-1.51 0.21,-1.50 0.39,-1.46 0.56,-1.41 0.72,-1.32 0.89,-1.23 1.02,-1.11 1.16,-0.98 1.26,-0.83 1.36,-0.68 1.36,-0.68 L 1.36,-0.68 Z"/></g><g transform="translate(209.20834350585938 383.3333435058594) rotate(0 2.66668701171875 14.000030517578125)" stroke="none" fill="#000000"><path d="M 1.28,-0.96 Q 1.28,-0.96 3.38,-0.05 5.48,0.85 6.31,3.71 7.13,6.57 7.75,9.87 8.37,13.17 8.64,16.27 8.90,19.36 8.90,21.85 8.89,24.34 6.19,26.71 3.48,29.08 3.27,29.13 3.06,29.17 2.85,29.15 2.64,29.13 2.45,29.04 2.26,28.95 2.10,28.80 1.95,28.66 1.85,28.47 1.75,28.28 1.71,28.07 1.68,27.86 1.71,27.65 1.75,27.44 1.85,27.26 1.95,27.07 2.10,26.92 2.26,26.78 2.45,26.69 2.64,26.60 2.85,26.57 3.06,26.55 3.27,26.60 3.48,26.64 3.66,26.75 3.84,26.86 3.98,27.02 4.12,27.19 4.20,27.38 4.28,27.58 4.29,27.79 4.30,28.00 4.24,28.21 4.18,28.41 4.07,28.59 3.95,28.77 3.78,28.89 3.61,29.02 3.41,29.09 3.21,29.16 2.99,29.16 2.78,29.16 2.58,29.09 2.38,29.02 2.21,28.89 2.04,28.77 1.92,28.59 1.80,28.41 1.74,28.21 1.69,28.01 1.70,27.79 1.71,27.58 1.79,27.38 1.87,27.19 2.00,27.02 2.14,26.86 2.32,26.75 2.51,26.64 2.51,26.64 2.51,26.64 1.98,25.62 1.45,24.60 1.23,22.32 1.01,20.04 0.77,17.32 0.54,14.60 -0.02,11.45 -0.58,8.30 -0.73,6.79 -0.88,5.28 -1.08,3.12 -1.28,0.96 -1.38,0.79 -1.48,0.62 -1.53,0.44 -1.59,0.25 -1.59,0.06 -1.60,-0.13 -1.56,-0.32 -1.52,-0.51 -1.44,-0.68 -1.36,-0.86 -1.23,-1.01 -1.11,-1.16 -0.95,-1.27 -0.80,-1.39 -0.62,-1.47 -0.44,-1.54 -0.25,-1.57 -0.06,-1.60 0.13,-1.59 0.32,-1.57 0.50,-1.51 0.69,-1.45 0.85,-1.35 1.01,-1.24 1.15,-1.10 1.28,-0.96 1.28,-0.96 L 1.28,-0.96 Z"/></g><g transform="translate(206.54171752929688 355.3333435058594) rotate(0 1.33331298828125 -2.666656494140625)" stroke="none" fill="#000000"><path d="M -1.46,0 Q -1.46,0 -2.50,-1.66 -3.55,-3.32 -3.19,-3.84 -2.84,-4.36 -2.78,-4.80 -2.73,-5.23 -2.58,-5.63 -2.42,-6.04 -2.18,-6.40 -1.93,-6.76 -1.60,-7.05 -1.28,-7.33 -0.89,-7.54 -0.51,-7.74 -0.09,-7.84 0.33,-7.95 0.76,-7.95 1.20,-7.95 1.62,-7.84 2.04,-7.74 2.43,-7.54 2.81,-7.33 3.14,-7.05 3.46,-6.76 3.71,-6.40 3.96,-6.04 4.11,-5.63 4.26,-5.23 4.32,-4.80 4.37,-4.36 3.15,-2.58 1.94,-0.80 1.81,-0.64 1.67,-0.47 1.50,-0.35 1.32,-0.24 1.11,-0.18 0.91,-0.13 0.70,-0.14 0.48,-0.16 0.29,-0.24 0.09,-0.32 -0.06,-0.46 -0.22,-0.60 -0.32,-0.78 -0.43,-0.97 -0.47,-1.18 -0.52,-1.38 -0.49,-1.59 -0.47,-1.81 -0.37,-2.00 -0.28,-2.19 -0.13,-2.34 0.01,-2.49 0.19,-2.59 0.38,-2.69 0.59,-2.72 0.80,-2.75 1.01,-2.71 1.22,-2.67 1.41,-2.57 1.59,-2.47 1.74,-2.31 1.88,-2.16 1.97,-1.96 2.06,-1.77 2.08,-1.56 2.10,-1.35 2.05,-1.14 2.00,-0.93 1.89,-0.75 1.77,-0.57 1.61,-0.44 1.45,-0.30 1.25,-0.23 1.05,-0.15 0.84,-0.14 0.62,-0.13 0.42,-0.19 0.22,-0.25 0.04,-0.37 -0.12,-0.50 -0.25,-0.67 -0.37,-0.84 -0.44,-1.04 -0.50,-1.24 -0.50,-1.45 -0.50,-1.67 -0.43,-1.87 -0.36,-2.07 -0.36,-2.07 -0.36,-2.07 -1.60,-3.22 -2.84,-4.36 -2.78,-4.80 -2.73,-5.23 -2.58,-5.63 -2.42,-6.04 -2.18,-6.40 -1.93,-6.76 -1.60,-7.05 -1.28,-7.33 -0.89,-7.54 -0.51,-7.74 -0.09,-7.84 0.33,-7.95 0.76,-7.95 1.20,-7.95 1.62,-7.84 2.04,-7.74 2.43,-7.54 2.81,-7.33 3.14,-7.05 3.46,-6.76 3.71,-6.40 3.96,-6.04 4.11,-5.63 4.26,-5.23 4.32,-4.80 4.37,-4.36 3.96,-3.59 3.55,-2.81 2.50,-1.40 1.46,0 1.43,0.17 1.41,0.34 1.35,0.51 1.29,0.67 1.19,0.82 1.09,0.96 0.96,1.08 0.83,1.20 0.67,1.28 0.51,1.36 0.34,1.40 0.17,1.45 -0.00,1.45 -0.17,1.45 -0.34,1.40 -0.51,1.36 -0.67,1.28 -0.83,1.20 -0.96,1.08 -1.09,0.96 -1.19,0.82 -1.29,0.67 -1.35,0.51 -1.41,0.34 -1.43,0.17 -1.46,-0.00 -1.46,-0.00 L -1.46,0 Z"/></g><g transform="translate(237.20834350585938 386.0000305175781) rotate(0 22.00006103515625 6.666656494140625)" stroke="none" fill="#000000"><path d="M -0.13,-1.34 Q -0.13,-1.34 3.58,-2.82 7.30,-4.29 10.57,-5.19 13.84,-6.09 15.79,-6.69 17.74,-7.28 16.21,-9.06 14.67,-10.83 13.37,-11.17 12.08,-11.50 10.87,-11.70 9.66,-11.89 8.21,-11.00 6.76,-10.11 5.83,-8.95 4.89,-7.79 4.29,-5.78 3.69,-3.78 3.01,-0.28 2.34,3.20 2.44,5.91 2.55,8.62 3.29,11.83 4.03,15.05 5.62,17.49 7.20,19.93 9.73,21.42 12.25,22.92 14.88,23.55 17.51,24.17 20.89,23.75 24.28,23.32 27.63,22.47 30.98,21.62 33.65,20.95 36.31,20.27 38.52,19.69 40.73,19.11 42.92,18.60 45.11,18.08 45.31,18.00 45.50,17.92 45.72,17.90 45.93,17.89 46.13,17.94 46.34,17.99 46.52,18.11 46.69,18.23 46.83,18.39 46.96,18.56 47.03,18.76 47.10,18.96 47.10,19.17 47.11,19.39 47.04,19.59 46.98,19.79 46.85,19.96 46.73,20.13 46.55,20.26 46.38,20.38 46.18,20.44 45.97,20.50 45.76,20.49 45.55,20.48 45.35,20.41 45.15,20.33 44.99,20.20 44.82,20.06 44.71,19.88 44.60,19.70 44.55,19.50 44.50,19.29 44.52,19.08 44.54,18.87 44.62,18.67 44.71,18.48 44.85,18.32 45.00,18.16 45.18,18.06 45.37,17.96 45.58,17.92 45.79,17.88 46.00,17.91 46.21,17.94 46.40,18.04 46.58,18.14 46.73,18.29 46.88,18.44 46.97,18.63 47.07,18.82 47.09,19.03 47.12,19.24 47.08,19.45 47.04,19.66 46.93,19.85 46.82,20.03 46.66,20.17 46.50,20.31 46.50,20.31 46.50,20.31 44.82,22.22 43.13,24.12 40.75,25.74 38.37,27.36 35.64,28.24 32.91,29.13 28.98,30.15 25.05,31.16 20.32,31.52 15.60,31.88 11.76,30.74 7.93,29.60 4.26,26.95 0.60,24.30 -1.54,20.58 -3.69,16.87 -4.53,12.82 -5.36,8.77 -5.35,5.20 -5.33,1.64 -4.43,-2.41 -3.52,-6.46 -2.21,-9.58 -0.90,-12.70 0.86,-14.58 2.63,-16.46 4.66,-17.58 6.69,-18.70 8.82,-18.93 10.94,-19.17 12.85,-18.73 14.76,-18.30 17.20,-17.15 19.64,-16.00 21.76,-13.52 23.89,-11.03 24.15,-8.56 24.40,-6.10 22.63,-3.59 20.86,-1.08 18.26,-0.11 15.66,0.84 11.84,1.80 8.02,2.76 4.08,2.05 0.13,1.34 -0.02,1.34 -0.19,1.34 -0.34,1.29 -0.50,1.25 -0.64,1.17 -0.79,1.09 -0.91,0.98 -1.03,0.87 -1.12,0.74 -1.21,0.60 -1.26,0.44 -1.32,0.29 -1.33,0.13 -1.35,-0.02 -1.33,-0.19 -1.30,-0.35 -1.24,-0.50 -1.18,-0.65 -1.08,-0.78 -0.99,-0.91 -0.86,-1.02 -0.74,-1.13 -0.59,-1.20 -0.45,-1.27 -0.29,-1.31 -0.13,-1.34 -0.13,-1.34 L -0.13,-1.34 Z"/></g><g transform="translate(299.8750915527344 376.6667175292969) rotate(0 -1.3333740234375 18.666656494140625)" stroke="none" fill="#000000"><path d="M 0.24,1.45 Q 0.24,1.45 -1.94,2.52 -4.12,3.59 -5.95,3.87 -7.79,4.15 -8.93,4.65 -10.08,5.14 -11.29,6.26 -12.51,7.39 -10.31,9.14 -8.12,10.88 -4.80,12.12 -1.48,13.36 1.68,14.74 4.85,16.12 8.27,17.84 11.69,19.56 13.73,21.88 15.77,24.20 15.84,27.27 15.90,30.34 13.40,33.23 10.89,36.13 6.68,37.72 2.47,39.31 -0.89,39.77 -4.26,40.23 -8.07,38.82 -11.89,37.41 -12.09,37.36 -12.30,37.31 -12.48,37.20 -12.66,37.09 -12.80,36.92 -12.93,36.76 -13.01,36.56 -13.08,36.36 -13.09,36.15 -13.10,35.94 -13.04,35.74 -12.98,35.53 -12.86,35.36 -12.74,35.18 -12.57,35.06 -12.39,34.93 -12.19,34.87 -11.99,34.80 -11.78,34.80 -11.56,34.81 -11.36,34.88 -11.16,34.95 -11.00,35.08 -10.83,35.21 -10.71,35.39 -10.60,35.57 -10.54,35.77 -10.49,35.98 -10.50,36.19 -10.52,36.40 -10.60,36.60 -10.68,36.79 -10.82,36.95 -10.96,37.11 -11.14,37.22 -11.33,37.33 -11.54,37.37 -11.74,37.41 -11.95,37.39 -12.17,37.36 -12.36,37.27 -12.55,37.18 -12.70,37.03 -12.85,36.88 -12.95,36.69 -13.05,36.50 -13.08,36.29 -13.11,36.08 -13.07,35.87 -13.03,35.66 -12.93,35.48 -12.83,35.29 -12.67,35.15 -12.52,35.00 -12.32,34.92 -12.13,34.83 -11.92,34.81 -11.71,34.79 -11.71,34.79 -11.71,34.79 -8.57,33.86 -5.43,32.92 -2.73,32.37 -0.03,31.82 2.81,31.01 5.66,30.21 7.15,29.29 8.63,28.37 8.36,27.18 8.09,25.98 5.06,24.24 2.03,22.50 -0.96,21.16 -3.96,19.81 -7.93,18.25 -11.91,16.68 -14.71,14.59 -17.52,12.50 -18.41,9.76 -19.30,7.02 -18.08,4.49 -16.86,1.97 -14.49,0.41 -12.12,-1.15 -10.25,-1.56 -8.38,-1.97 -6.72,-2.01 -5.07,-2.05 -2.65,-1.75 -0.24,-1.45 -0.06,-1.46 0.11,-1.47 0.28,-1.43 0.46,-1.40 0.62,-1.32 0.78,-1.25 0.92,-1.13 1.06,-1.02 1.16,-0.88 1.27,-0.74 1.34,-0.57 1.41,-0.41 1.44,-0.24 1.47,-0.06 1.46,0.11 1.44,0.28 1.39,0.45 1.33,0.62 1.24,0.77 1.14,0.92 1.01,1.05 0.89,1.17 0.73,1.26 0.58,1.35 0.41,1.40 0.24,1.45 0.24,1.45 L 0.24,1.45 Z"/></g><g transform="translate(115.87509155273438 396.6667175292969) rotate(0 13.99993896484375 -0.000030517578125)" stroke="none" fill="#000000"><path d="M 0.44,-1.34 Q 0.44,-1.34 1.83,-1.69 3.22,-2.05 4.54,-2.00 5.85,-1.95 7.68,-2.27 9.50,-2.60 11.04,-3.69 12.58,-4.78 14.40,-6.29 16.22,-7.80 16.69,-9.11 17.16,-10.42 16.72,-11.87 16.27,-13.32 15.09,-13.07 13.90,-12.82 12.71,-12.55 11.52,-12.28 10.37,-10.61 9.22,-8.94 7.98,-5.83 6.73,-2.73 7.01,1.18 7.30,5.09 8.19,7.80 9.08,10.51 10.97,11.27 12.86,12.03 15.91,11.30 18.95,10.57 23.09,10.23 27.22,9.88 27.43,9.86 27.65,9.83 27.85,9.88 28.06,9.93 28.24,10.04 28.42,10.15 28.56,10.31 28.70,10.47 28.78,10.67 28.85,10.87 28.87,11.08 28.88,11.29 28.82,11.49 28.76,11.70 28.64,11.87 28.52,12.05 28.35,12.18 28.18,12.31 27.98,12.37 27.78,12.44 27.57,12.44 27.35,12.44 27.15,12.37 26.95,12.30 26.78,12.17 26.61,12.04 26.50,11.87 26.38,11.69 26.32,11.49 26.26,11.28 26.28,11.07 26.29,10.86 26.37,10.66 26.45,10.46 26.59,10.30 26.72,10.14 26.91,10.03 27.09,9.92 27.30,9.88 27.50,9.83 27.71,9.86 27.93,9.88 28.12,9.97 28.31,10.06 28.46,10.21 28.62,10.35 28.72,10.54 28.82,10.73 28.85,10.94 28.88,11.15 28.85,11.36 28.81,11.57 28.71,11.75 28.61,11.94 28.46,12.09 28.30,12.23 28.11,12.32 27.92,12.41 27.92,12.41 27.92,12.41 24.08,14.25 20.24,16.09 15.53,17.17 10.82,18.26 7.10,16.05 3.38,13.85 1.88,9.60 0.39,5.35 0.46,0.09 0.53,-5.15 2.41,-9.18 4.28,-13.22 6.86,-15.72 9.43,-18.22 11.61,-18.74 13.78,-19.27 16.66,-18.89 19.55,-18.52 20.88,-17.04 22.20,-15.57 22.68,-14.01 23.17,-12.45 23.05,-10.24 22.93,-8.04 21.67,-5.61 20.40,-3.17 18.14,-1.29 15.87,0.57 13.22,2.05 10.57,3.53 7.93,3.83 5.29,4.13 3.33,3.86 1.37,3.58 0.46,2.46 -0.44,1.34 -0.60,1.26 -0.75,1.19 -0.88,1.08 -1.01,0.97 -1.12,0.84 -1.22,0.70 -1.29,0.55 -1.35,0.39 -1.38,0.22 -1.41,0.05 -1.39,-0.11 -1.38,-0.28 -1.33,-0.44 -1.27,-0.60 -1.18,-0.74 -1.09,-0.89 -0.97,-1.01 -0.84,-1.12 -0.70,-1.21 -0.55,-1.30 -0.39,-1.34 -0.22,-1.39 -0.05,-1.40 0.11,-1.40 0.28,-1.37 0.44,-1.34 0.44,-1.34 L 0.44,-1.34 Z"/></g></svg>