<svg version="1.1" xmlns="http://www.w3.org/2000/svg" viewBox="0 0 483.3333435058594 427.3333740234375" width="483.3333435058594" height="427.3333740234375" filter="invert(93%) hue-rotate(180deg)">
  <!-- svg-source:excalidraw -->
  
  <defs>
    <style>
      @font-face {
        font-family: "Virgil";
        src: url("https://excalidraw.com/Virgil.woff2");
      }
      @font-face {
        font-family: "Cascadia";
        src: url("https://excalidraw.com/Cascadia.woff2");
      }
    </style>
  </defs>
  <g transform="translate(190.00003051757812 86.66667175292969) rotate(0 1.666656494140625 25.666671752929688)" stroke="none" fill="#000000"><path d="M -1.31,0 Q -1.31,0 -1.68,-2.10 -2.05,-4.21 -2.15,-5.68 -2.25,-7.15 -2.76,-8.40 -3.28,-9.64 -3.24,-9.99 -3.20,-10.34 -3.07,-10.67 -2.95,-10.99 -2.75,-11.28 -2.55,-11.57 -2.29,-11.80 -2.03,-12.03 -1.72,-12.19 -1.41,-12.36 -1.07,-12.44 -0.73,-12.52 -0.38,-12.52 -0.03,-12.52 0.30,-12.44 0.64,-12.36 0.95,-12.19 1.26,-12.03 1.52,-11.80 1.78,-11.57 1.98,-11.28 2.18,-10.99 2.30,-10.67 2.43,-10.34 2.47,-9.99 2.51,-9.64 2.71,-8.12 2.91,-6.61 3.27,-3.44 3.62,-0.28 4.06,5.70 4.50,11.69 4.66,17.52 4.83,23.36 4.89,27.75 4.95,32.15 5.15,37.99 5.34,43.83 5.52,48.35 5.70,52.86 5.37,56.53 5.05,60.20 5.04,60.41 5.04,60.63 4.97,60.83 4.90,61.03 4.77,61.20 4.64,61.36 4.47,61.48 4.29,61.60 4.08,61.65 3.88,61.71 3.67,61.70 3.45,61.68 3.26,61.60 3.06,61.52 2.90,61.38 2.74,61.24 2.63,61.06 2.52,60.88 2.48,60.67 2.44,60.46 2.46,60.25 2.49,60.04 2.58,59.85 2.67,59.66 2.81,59.50 2.96,59.35 3.15,59.25 3.34,59.15 3.55,59.12 3.76,59.09 3.97,59.13 4.18,59.16 4.36,59.26 4.55,59.36 4.70,59.52 4.84,59.68 4.93,59.87 5.02,60.06 5.04,60.27 5.06,60.49 5.01,60.69 4.96,60.90 4.85,61.08 4.74,61.26 4.58,61.40 4.42,61.53 4.22,61.61 4.02,61.69 3.81,61.70 3.59,61.71 3.39,61.65 3.19,61.59 3.01,61.47 2.84,61.35 2.71,61.18 2.58,61.01 2.52,60.81 2.45,60.60 2.45,60.60 2.45,60.60 1.00,57.05 -0.43,53.50 -1.20,48.80 -1.98,44.10 -2.21,38.17 -2.44,32.24 -2.49,27.88 -2.53,23.52 -2.61,17.78 -2.70,12.04 -2.84,6.12 -2.99,0.21 -3.11,-2.99 -3.24,-6.19 -3.26,-7.92 -3.28,-9.64 -3.24,-9.99 -3.20,-10.34 -3.07,-10.67 -2.95,-10.99 -2.75,-11.28 -2.55,-11.57 -2.29,-11.80 -2.03,-12.03 -1.72,-12.19 -1.41,-12.36 -1.07,-12.44 -0.73,-12.52 -0.38,-12.52 -0.03,-12.52 0.30,-12.44 0.64,-12.36 0.95,-12.19 1.26,-12.03 1.52,-11.80 1.78,-11.57 1.98,-11.28 2.18,-10.99 2.30,-10.67 2.43,-10.34 2.47,-9.99 2.51,-9.64 2.52,-9.59 2.52,-9.54 2.38,-8.35 2.25,-7.15 2.15,-5.68 2.05,-4.21 1.68,-2.10 1.31,0 1.29,0.15 1.27,0.31 1.21,0.46 1.16,0.61 1.07,0.74 0.98,0.87 0.86,0.97 0.74,1.08 0.60,1.15 0.46,1.22 0.31,1.26 0.15,1.30 -0.00,1.30 -0.15,1.30 -0.31,1.26 -0.46,1.22 -0.60,1.15 -0.74,1.08 -0.86,0.97 -0.98,0.87 -1.07,0.74 -1.16,0.61 -1.21,0.46 -1.27,0.31 -1.29,0.15 -1.31,-0.00 -1.31,-0.00 L -1.31,0 Z"/></g><g transform="translate(227.33334350585938 90.66667175292969) rotate(0 1.666656494140625 19.666664123535156)" stroke="none" fill="#000000"><path d="M 1.42,0 Q 1.42,0 2.05,3.44 2.68,6.89 3.15,11.31 3.62,15.72 3.79,18.25 3.95,20.78 4.18,23.12 4.41,25.47 4.53,28.59 4.65,31.71 4.31,34.86 3.96,38.00 3.93,38.21 3.90,38.42 3.80,38.61 3.70,38.80 3.55,38.94 3.40,39.09 3.20,39.18 3.01,39.27 2.80,39.30 2.59,39.32 2.38,39.28 2.17,39.24 1.99,39.13 1.81,39.02 1.67,38.86 1.53,38.70 1.45,38.50 1.37,38.30 1.36,38.09 1.34,37.88 1.40,37.67 1.45,37.47 1.57,37.29 1.69,37.12 1.86,36.99 2.02,36.86 2.23,36.79 2.43,36.72 2.64,36.71 2.85,36.71 3.05,36.78 3.26,36.85 3.43,36.97 3.60,37.10 3.72,37.27 3.84,37.45 3.90,37.65 3.95,37.86 3.94,38.07 3.94,38.28 3.86,38.48 3.78,38.68 3.65,38.84 3.51,39.00 3.33,39.12 3.15,39.23 2.94,39.27 2.73,39.32 2.52,39.30 2.31,39.28 2.12,39.19 1.92,39.10 1.77,38.96 1.61,38.81 1.51,38.63 1.41,38.44 1.37,38.23 1.34,38.02 1.34,38.02 1.34,38.02 0.94,35.19 0.55,32.35 -0.31,29.22 -1.18,26.08 -1.48,23.61 -1.77,21.15 -1.93,18.68 -2.08,16.20 -2.38,11.55 -2.68,6.90 -2.05,3.45 -1.42,0 -1.40,-0.17 -1.37,-0.34 -1.31,-0.50 -1.25,-0.66 -1.16,-0.80 -1.06,-0.94 -0.93,-1.05 -0.80,-1.16 -0.65,-1.24 -0.50,-1.32 -0.33,-1.36 -0.17,-1.41 0.00,-1.41 0.17,-1.41 0.33,-1.36 0.50,-1.32 0.65,-1.24 0.80,-1.16 0.93,-1.05 1.06,-0.94 1.16,-0.80 1.25,-0.66 1.31,-0.50 1.37,-0.33 1.40,-0.16 1.42,0.00 1.42,0.00 L 1.42,0 Z"/></g><g transform="translate(190.00003051757812 111.33334350585938) rotate(0 -23.3333740234375 84.66667175292969)" stroke="none" fill="#000000"><path d="M 0.16,1.30 Q 0.16,1.30 -1.24,2.53 -2.64,3.77 -4.39,4.09 -6.14,4.41 -7.81,4.72 -9.49,5.02 -11.39,5.35 -13.28,5.67 -14.78,5.99 -16.29,6.30 -17.69,6.47 -19.10,6.64 -21.14,6.89 -23.19,7.13 -25.99,7.78 -28.80,8.43 -31.26,8.92 -33.73,9.42 -35.94,9.82 -38.14,10.22 -39.76,10.41 -41.38,10.59 -42.42,10.83 -43.46,11.06 -44.96,11.21 -46.46,11.35 -48.31,11.82 -50.16,12.30 -51.78,12.53 -53.41,12.77 -54.69,12.94 -55.97,13.11 -57.19,13.28 -58.41,13.46 -57.46,15.82 -56.50,18.18 -56.41,20.81 -56.31,23.45 -56.08,26.76 -55.85,30.07 -55.38,33.49 -54.90,36.91 -54.69,40.47 -54.47,44.04 -54.38,48.83 -54.29,53.62 -54.44,57.65 -54.60,61.69 -54.66,64.66 -54.73,67.63 -54.95,71.29 -55.17,74.94 -55.26,77.75 -55.35,80.55 -55.20,82.94 -55.04,85.32 -54.98,87.42 -54.91,89.51 -54.70,91.17 -54.49,92.84 -54.39,94.70 -54.28,96.56 -54.44,98.70 -54.59,100.85 -54.86,103.07 -55.12,105.28 -55.22,107.04 -55.31,108.79 -55.35,110.30 -55.40,111.80 -55.41,113.58 -55.43,115.36 -55.64,117.46 -55.84,119.56 -56.12,122.28 -56.39,125.01 -56.71,127.39 -57.03,129.76 -57.15,131.39 -57.27,133.02 -57.07,135.24 -56.87,137.45 -56.85,138.76 -56.82,140.06 -56.54,142.53 -56.25,145.00 -56.42,146.37 -56.60,147.74 -56.39,149.28 -56.19,150.83 -55.88,153.04 -55.58,155.25 -55.53,156.61 -55.49,157.98 -55.47,159.13 -55.45,160.28 -55.44,162.10 -55.43,163.93 -55.45,165.16 -55.46,166.40 -54.72,165.60 -53.97,164.81 -52.69,164.62 -51.41,164.43 -49.39,163.98 -47.36,163.53 -44.29,162.94 -41.21,162.34 -38.02,161.71 -34.82,161.08 -31.85,160.61 -28.88,160.13 -25.24,160.11 -21.60,160.08 -19.61,160.08 -17.61,160.08 -15.80,159.89 -13.99,159.70 -12.29,159.43 -10.59,159.16 -8.26,158.84 -5.92,158.52 -4.05,158.21 -2.18,157.89 -0.66,157.58 0.84,157.26 2.49,157.09 4.13,156.92 6.29,156.05 8.45,155.18 10.12,154.73 11.79,154.27 12.04,154.96 12.30,155.65 12.26,155.45 12.21,155.24 12.24,155.03 12.27,154.82 12.36,154.63 12.46,154.44 12.61,154.28 12.76,154.13 12.95,154.04 13.14,153.94 13.35,153.91 13.56,153.88 13.77,153.92 13.98,153.96 14.16,154.07 14.35,154.17 14.49,154.33 14.63,154.48 14.72,154.68 14.80,154.87 14.82,155.09 14.84,155.30 14.79,155.50 14.74,155.71 14.62,155.89 14.51,156.07 14.34,156.20 14.18,156.34 13.98,156.41 13.78,156.49 13.57,156.49 13.36,156.50 13.15,156.44 12.95,156.38 12.78,156.25 12.60,156.13 12.48,155.96 12.35,155.79 12.29,155.58 12.23,155.38 12.23,155.17 12.24,154.95 12.31,154.75 12.38,154.56 12.51,154.39 12.65,154.22 12.82,154.11 13.00,153.99 13.21,153.94 13.42,153.89 13.63,153.90 13.84,153.92 14.03,154.00 14.23,154.09 14.39,154.23 14.55,154.37 14.65,154.55 14.76,154.74 14.76,154.74 14.76,154.74 14.28,158.35 13.80,161.96 12.67,162.23 11.54,162.50 10.02,163.13 8.50,163.76 6.72,164.29 4.93,164.81 3.69,164.92 2.45,165.03 0.78,165.38 -0.87,165.72 -2.87,166.05 -4.87,166.38 -7.14,166.68 -9.41,166.97 -11.32,167.25 -13.24,167.53 -15.42,167.72 -17.60,167.92 -19.60,167.92 -21.59,167.92 -24.63,167.90 -27.67,167.88 -30.49,168.33 -33.31,168.78 -36.52,169.41 -39.73,170.04 -42.71,170.62 -45.69,171.19 -48.00,171.69 -50.31,172.19 -52.00,172.41 -53.69,172.64 -56.61,172.09 -59.54,171.53 -60.86,170.44 -62.17,169.36 -62.68,168.03 -63.20,166.71 -63.21,165.33 -63.23,163.95 -63.24,162.17 -63.25,160.40 -63.27,159.31 -63.28,158.22 -63.37,156.06 -63.46,153.89 -63.74,151.65 -64.02,149.40 -64.01,147.42 -63.99,145.43 -64.05,144.24 -64.11,143.05 -64.34,141.64 -64.57,140.23 -64.65,138.00 -64.72,135.78 -64.86,134.12 -65.00,132.46 -64.86,130.60 -64.72,128.73 -64.41,126.48 -64.11,124.23 -63.83,121.49 -63.55,118.75 -63.36,117.01 -63.17,115.27 -63.15,113.42 -63.12,111.57 -63.07,109.96 -63.02,108.34 -62.90,106.35 -62.78,104.37 -62.53,102.30 -62.28,100.23 -62.13,98.60 -61.98,96.97 -62.06,95.36 -62.14,93.75 -62.38,91.76 -62.61,89.76 -62.67,87.77 -62.73,85.77 -62.88,83.04 -63.03,80.31 -62.93,77.39 -62.84,74.47 -62.62,70.97 -62.40,67.46 -62.33,64.42 -62.26,61.38 -62.11,57.57 -61.96,53.76 -62.04,49.13 -62.12,44.49 -62.31,41.21 -62.50,37.93 -62.98,34.25 -63.47,30.58 -63.68,27.12 -63.89,23.66 -63.94,21.19 -64.00,18.72 -64.13,16.11 -64.27,13.50 -64.13,11.99 -64.00,10.48 -63.23,9.39 -62.46,8.30 -61.49,7.61 -60.53,6.92 -59.17,6.60 -57.81,6.29 -56.66,6.03 -55.52,5.77 -53.79,5.63 -52.06,5.49 -50.90,5.17 -49.75,4.85 -48.41,4.58 -47.08,4.31 -46.01,4.23 -44.95,4.15 -43.56,3.86 -42.17,3.57 -40.79,3.42 -39.41,3.27 -37.26,2.88 -35.11,2.49 -32.74,2.01 -30.37,1.54 -27.21,0.83 -24.05,0.11 -21.97,-0.13 -19.89,-0.38 -18.81,-0.50 -17.74,-0.61 -16.11,-0.95 -14.48,-1.29 -12.61,-1.61 -10.74,-1.93 -8.96,-2.24 -7.19,-2.55 -5.34,-2.78 -3.49,-3.00 -1.82,-2.15 -0.16,-1.30 -0.00,-1.30 0.15,-1.30 0.30,-1.26 0.46,-1.22 0.60,-1.15 0.74,-1.08 0.86,-0.97 0.97,-0.87 1.07,-0.74 1.16,-0.61 1.21,-0.46 1.27,-0.31 1.29,-0.16 1.31,-0.00 1.29,0.15 1.27,0.30 1.22,0.45 1.16,0.60 1.07,0.73 0.98,0.86 0.86,0.97 0.74,1.07 0.60,1.15 0.46,1.22 0.31,1.26 0.16,1.30 0.16,1.30 L 0.16,1.30 Z"/></g><g transform="translate(219.33334350585938 254.66668701171875) rotate(0 15 17.333328247070312)" stroke="none" fill="#000000"><path d="M -1.31,-0.21 Q -1.31,-0.21 -1.51,-1.41 -1.70,-2.61 -2.57,-1.82 -3.44,-1.03 -5.08,0.68 -6.72,2.40 -8.21,4.72 -9.70,7.04 -10.68,9.04 -11.65,11.03 -11.94,13.21 -12.24,15.39 -12.41,17.49 -12.58,19.60 -12.29,21.49 -12.00,23.37 -11.08,25.14 -10.16,26.91 -8.07,29.18 -5.97,31.45 -3.73,33.09 -1.49,34.74 1.37,35.67 4.25,36.60 7.70,36.82 11.16,37.03 14.85,36.78 18.55,36.53 22.25,35.70 25.94,34.88 29.30,33.63 32.65,32.39 35.12,30.71 37.58,29.04 39.09,26.84 40.61,24.64 40.97,21.55 41.34,18.46 40.71,15.64 40.08,12.83 37.30,9.79 34.52,6.76 28.89,3.85 23.27,0.94 18.92,-0.36 14.57,-1.66 12.00,-2.24 9.44,-2.82 8.18,-3.18 6.93,-3.53 5.22,-2.28 3.52,-1.02 3.33,-0.92 3.14,-0.82 2.94,-0.79 2.73,-0.75 2.52,-0.79 2.31,-0.82 2.12,-0.92 1.93,-1.02 1.78,-1.18 1.64,-1.33 1.55,-1.52 1.46,-1.72 1.44,-1.93 1.42,-2.14 1.46,-2.35 1.51,-2.55 1.62,-2.74 1.73,-2.92 1.89,-3.06 2.05,-3.19 2.25,-3.27 2.45,-3.35 2.66,-3.36 2.87,-3.37 3.08,-3.31 3.28,-3.26 3.46,-3.14 3.63,-3.02 3.76,-2.85 3.89,-2.68 3.96,-2.48 4.02,-2.28 4.02,-2.06 4.02,-1.85 3.95,-1.65 3.89,-1.45 3.76,-1.28 3.63,-1.11 3.45,-0.99 3.28,-0.87 3.07,-0.82 2.87,-0.76 2.65,-0.77 2.44,-0.78 2.25,-0.86 2.05,-0.94 1.89,-1.08 1.72,-1.22 1.62,-1.40 1.51,-1.58 1.46,-1.79 1.42,-2.00 1.44,-2.21 1.46,-2.42 1.55,-2.61 1.64,-2.81 1.79,-2.96 1.93,-3.11 1.93,-3.11 1.93,-3.11 3.93,-4.66 5.92,-6.21 7.95,-7.74 9.98,-9.28 13.34,-9.04 16.70,-8.79 21.78,-7.26 26.87,-5.72 33.51,-1.95 40.16,1.82 43.71,6.41 47.25,10.99 47.99,15.27 48.72,19.55 47.78,24.15 46.84,28.75 44.37,32.00 41.90,35.26 38.62,37.39 35.33,39.53 31.46,40.95 27.59,42.36 23.32,43.28 19.04,44.19 14.79,44.44 10.55,44.68 6.15,44.26 1.75,43.84 -2.13,42.38 -6.02,40.91 -8.86,38.71 -11.71,36.52 -14.37,33.37 -17.04,30.21 -18.28,27.33 -19.53,24.45 -19.83,21.71 -20.14,18.97 -19.90,16.51 -19.66,14.05 -18.99,10.89 -18.32,7.73 -17.03,5.28 -15.73,2.83 -13.70,0.11 -11.66,-2.60 -9.81,-4.23 -7.96,-5.87 -6.26,-6.62 -4.56,-7.37 -3.17,-7.41 -1.77,-7.46 -0.51,-7.02 0.75,-6.58 1.50,-5.57 2.25,-4.57 2.36,-3.28 2.47,-1.98 1.89,-0.88 1.31,0.21 1.27,0.37 1.22,0.52 1.14,0.66 1.06,0.80 0.95,0.92 0.84,1.03 0.70,1.12 0.56,1.20 0.41,1.25 0.26,1.30 0.10,1.32 -0.05,1.33 -0.21,1.30 -0.37,1.28 -0.52,1.21 -0.67,1.15 -0.80,1.05 -0.92,0.95 -1.03,0.83 -1.13,0.70 -1.20,0.56 -1.26,0.41 -1.30,0.25 -1.33,0.10 -1.32,-0.05 -1.31,-0.21 -1.31,-0.21 L -1.31,-0.21 Z"/></g><g transform="translate(237.33334350585938 252.66668701171875) rotate(0 -8.666656494140625 20.333328247070312)" stroke="none" fill="#000000"><path d="M 1.36,0.17 Q 1.36,0.17 1.98,1.80 2.60,3.44 2.02,5.91 1.44,8.38 0.68,11.09 -0.07,13.81 -1.21,16.64 -2.35,19.47 -3.60,22.20 -4.85,24.93 -6.55,28.25 -8.25,31.56 -9.81,34.28 -11.38,36.99 -13.84,38.60 -16.30,40.20 -16.49,40.30 -16.68,40.40 -16.89,40.44 -17.10,40.47 -17.31,40.44 -17.52,40.41 -17.70,40.31 -17.89,40.21 -18.04,40.06 -18.19,39.91 -18.28,39.71 -18.37,39.52 -18.40,39.31 -18.42,39.10 -18.38,38.89 -18.33,38.68 -18.23,38.50 -18.12,38.32 -17.96,38.18 -17.80,38.04 -17.60,37.96 -17.40,37.88 -17.19,37.86 -16.98,37.85 -16.77,37.91 -16.57,37.96 -16.39,38.08 -16.22,38.20 -16.09,38.36 -15.95,38.53 -15.89,38.73 -15.82,38.93 -15.81,39.15 -15.81,39.36 -15.88,39.56 -15.94,39.76 -16.07,39.93 -16.20,40.10 -16.37,40.22 -16.55,40.34 -16.75,40.40 -16.95,40.46 -17.17,40.45 -17.38,40.44 -17.58,40.37 -17.78,40.29 -17.94,40.15 -18.10,40.02 -18.21,39.84 -18.32,39.66 -18.37,39.45 -18.42,39.24 -18.40,39.03 -18.38,38.82 -18.29,38.63 -18.20,38.43 -18.06,38.28 -17.91,38.12 -17.91,38.12 -17.91,38.12 -17.74,35.87 -17.57,33.62 -16.17,30.90 -14.77,28.18 -13.11,25.01 -11.45,21.85 -10.21,19.25 -8.97,16.66 -7.85,14.16 -6.73,11.67 -5.78,9.08 -4.83,6.49 -4.10,4.58 -3.36,2.68 -2.36,1.25 -1.36,-0.17 -1.32,-0.33 -1.28,-0.49 -1.21,-0.64 -1.13,-0.78 -1.02,-0.91 -0.91,-1.03 -0.77,-1.13 -0.63,-1.22 -0.48,-1.28 -0.32,-1.34 -0.16,-1.36 0.00,-1.38 0.17,-1.35 0.33,-1.33 0.49,-1.27 0.64,-1.21 0.78,-1.12 0.91,-1.02 1.02,-0.90 1.13,-0.77 1.21,-0.63 1.29,-0.48 1.33,-0.32 1.37,-0.16 1.37,0.00 1.36,0.17 1.36,0.17 L 1.36,0.17 Z"/></g><g transform="translate(216.66665649414062 259.3333435058594) rotate(0 17.333343505859375 14.333328247070312)" stroke="none" fill="#000000"><path d="M 0.88,-1.06 Q 0.88,-1.06 2.59,-0.76 4.29,-0.47 6.38,1.15 8.47,2.78 11.05,5.20 13.64,7.63 15.48,9.45 17.32,11.26 19.06,12.99 20.80,14.72 23.15,16.69 25.49,18.66 27.81,20.24 30.14,21.83 32.14,24.34 34.15,26.85 34.32,26.98 34.48,27.12 34.59,27.30 34.70,27.48 34.75,27.68 34.80,27.89 34.78,28.10 34.76,28.31 34.68,28.51 34.59,28.70 34.44,28.86 34.30,29.01 34.11,29.12 33.93,29.22 33.72,29.26 33.51,29.29 33.30,29.26 33.09,29.23 32.90,29.13 32.71,29.04 32.56,28.89 32.41,28.73 32.32,28.54 32.23,28.35 32.20,28.14 32.18,27.93 32.22,27.72 32.26,27.51 32.37,27.33 32.48,27.14 32.64,27.00 32.80,26.86 32.99,26.78 33.19,26.70 33.40,26.69 33.61,26.67 33.82,26.73 34.03,26.78 34.20,26.90 34.38,27.01 34.51,27.18 34.64,27.35 34.71,27.55 34.78,27.75 34.79,27.96 34.79,28.17 34.73,28.38 34.66,28.58 34.53,28.75 34.41,28.92 34.23,29.04 34.06,29.16 33.86,29.22 33.65,29.28 33.44,29.28 33.23,29.27 33.03,29.19 32.83,29.12 32.83,29.12 32.83,29.12 29.53,28.53 26.22,27.95 23.39,26.24 20.55,24.52 17.97,22.34 15.39,20.16 13.66,18.43 11.93,16.70 10.11,14.88 8.29,13.06 5.86,10.55 3.44,8.04 1.87,6.17 0.30,4.30 -0.29,2.68 -0.88,1.06 -1.00,0.94 -1.11,0.82 -1.19,0.67 -1.28,0.53 -1.32,0.36 -1.37,0.20 -1.37,0.04 -1.38,-0.12 -1.34,-0.28 -1.31,-0.45 -1.23,-0.60 -1.16,-0.75 -1.05,-0.88 -0.95,-1.01 -0.81,-1.10 -0.68,-1.20 -0.52,-1.27 -0.37,-1.33 -0.20,-1.36 -0.04,-1.38 0.12,-1.37 0.29,-1.35 0.44,-1.30 0.60,-1.24 0.74,-1.15 0.88,-1.06 0.88,-1.06 L 0.88,-1.06 Z"/></g><g transform="translate(266.6666564941406 273.3333435058594) rotate(0 0.3333740234375 -83.33333587646484)" stroke="none" fill="#000000"><path d="M -0.12,-1.37 Q -0.12,-1.37 1.87,-2.73 3.87,-4.09 6.01,-4.21 8.15,-4.32 9.82,-4.55 11.49,-4.78 13.35,-4.89 15.22,-5.01 16.58,-5.06 17.94,-5.10 19.29,-5.12 20.65,-5.14 22.65,-5.33 24.65,-5.52 25.75,-5.62 26.86,-5.72 28.51,-5.78 30.17,-5.85 29.80,-4.77 29.42,-3.70 29.00,-4.90 28.58,-6.10 28.11,-7.86 27.64,-9.61 27.21,-11.65 26.78,-13.69 26.41,-15.70 26.04,-17.71 25.69,-19.72 25.34,-21.73 25.00,-23.95 24.65,-26.17 24.49,-28.61 24.33,-31.06 24.26,-33.04 24.20,-35.03 24.16,-36.84 24.13,-38.64 23.93,-40.16 23.73,-41.67 23.64,-43.28 23.54,-44.89 23.50,-46.95 23.46,-49.00 23.44,-50.82 23.43,-52.64 23.62,-54.59 23.82,-56.53 23.89,-58.28 23.96,-60.04 23.81,-61.11 23.66,-62.18 23.58,-63.66 23.50,-65.14 23.67,-67.32 23.84,-69.50 24.11,-71.39 24.38,-73.28 24.48,-74.66 24.57,-76.03 24.61,-77.74 24.65,-79.44 24.67,-80.95 24.69,-82.45 24.90,-84.45 25.11,-86.44 25.40,-88.25 25.68,-90.06 25.58,-91.76 25.49,-93.45 25.28,-95.13 25.07,-96.80 24.96,-98.87 24.85,-100.95 24.81,-102.58 24.77,-104.21 24.75,-106.07 24.73,-107.93 24.73,-109.48 24.72,-111.03 24.72,-112.65 24.72,-114.27 24.72,-115.91 24.72,-117.56 24.72,-119.22 24.72,-120.88 24.72,-122.35 24.73,-123.82 24.73,-125.40 24.73,-126.98 24.46,-129.41 24.20,-131.83 24.16,-133.02 24.13,-134.20 23.84,-136.24 23.56,-138.27 23.12,-139.86 22.69,-141.45 22.52,-142.75 22.35,-144.05 22.29,-145.18 22.23,-146.31 21.81,-148.17 21.39,-150.03 21.25,-151.34 21.12,-152.65 21.09,-153.80 21.07,-154.95 21.07,-156.28 21.07,-157.61 20.86,-158.76 20.65,-159.91 20.60,-161.22 20.55,-162.52 20.32,-163.61 20.09,-164.70 20.82,-163.89 21.55,-163.07 20.20,-162.92 18.85,-162.78 17.47,-162.52 16.09,-162.25 14.54,-161.95 12.98,-161.65 11.14,-161.32 9.29,-160.99 6.78,-160.83 4.28,-160.67 1.90,-160.61 -0.48,-160.55 -3.09,-160.34 -5.71,-160.13 -7.93,-159.86 -10.16,-159.58 -12.46,-159.27 -14.76,-158.96 -16.95,-158.51 -19.14,-158.05 -21.13,-157.77 -23.11,-157.49 -24.74,-157.12 -26.37,-156.75 -28.83,-156.57 -31.29,-156.40 -31.50,-156.37 -31.71,-156.34 -31.92,-156.37 -32.13,-156.41 -32.31,-156.51 -32.50,-156.61 -32.65,-156.76 -32.79,-156.91 -32.88,-157.11 -32.97,-157.30 -32.99,-157.51 -33.01,-157.72 -32.97,-157.93 -32.92,-158.14 -32.81,-158.32 -32.70,-158.50 -32.54,-158.64 -32.38,-158.78 -32.18,-158.85 -31.98,-158.93 -31.77,-158.94 -31.56,-158.95 -31.35,-158.90 -31.15,-158.84 -30.97,-158.72 -30.80,-158.60 -30.67,-158.43 -30.54,-158.26 -30.47,-158.06 -30.41,-157.86 -30.41,-157.65 -30.41,-157.43 -30.48,-157.23 -30.54,-157.03 -30.67,-156.86 -30.80,-156.69 -30.98,-156.57 -31.15,-156.46 -31.36,-156.40 -31.56,-156.34 -31.78,-156.35 -31.99,-156.37 -32.19,-156.45 -32.38,-156.53 -32.54,-156.66 -32.71,-156.80 -32.82,-156.98 -32.92,-157.17 -32.97,-157.37 -33.01,-157.58 -32.99,-157.79 -32.97,-158.00 -32.88,-158.20 -32.79,-158.39 -32.64,-158.54 -32.50,-158.70 -32.31,-158.80 -32.12,-158.89 -32.12,-158.89 -32.12,-158.89 -30.23,-160.18 -28.34,-161.46 -26.40,-162.59 -24.45,-163.72 -22.54,-164.26 -20.64,-164.80 -18.17,-165.38 -15.70,-165.95 -13.36,-166.27 -11.02,-166.58 -8.65,-166.87 -6.27,-167.16 -3.46,-167.39 -0.65,-167.61 1.60,-167.67 3.86,-167.72 5.96,-167.84 8.06,-167.95 9.85,-168.27 11.63,-168.58 13.20,-168.89 14.78,-169.20 16.24,-169.47 17.71,-169.75 20.10,-169.91 22.50,-170.07 23.66,-169.70 24.82,-169.33 25.79,-167.69 26.77,-166.05 27.13,-164.40 27.48,-162.74 27.58,-161.38 27.69,-160.02 27.99,-158.90 28.28,-157.79 28.35,-156.55 28.41,-155.31 28.59,-153.54 28.77,-151.77 29.08,-150.55 29.39,-149.32 29.65,-148.03 29.91,-146.73 30.03,-145.18 30.15,-143.63 30.48,-142.55 30.80,-141.48 31.15,-139.47 31.50,-137.46 31.73,-135.96 31.97,-134.46 32.00,-133.39 32.03,-132.32 32.10,-131.20 32.16,-130.08 32.38,-128.54 32.60,-126.99 32.60,-125.41 32.60,-123.82 32.60,-122.35 32.60,-120.88 32.60,-119.22 32.61,-117.57 32.61,-115.93 32.61,-114.28 32.62,-112.68 32.62,-111.07 32.63,-109.53 32.64,-108.00 32.66,-106.21 32.67,-104.41 32.71,-102.87 32.75,-101.33 32.83,-99.54 32.92,-97.75 33.15,-95.74 33.39,-93.74 33.44,-91.29 33.49,-88.84 33.22,-87.20 32.96,-85.56 32.77,-83.96 32.58,-82.35 32.56,-80.79 32.53,-79.24 32.48,-77.35 32.43,-75.46 32.30,-73.80 32.17,-72.14 31.92,-70.48 31.67,-68.83 31.51,-67.18 31.35,-65.52 31.41,-64.30 31.47,-63.08 31.63,-61.40 31.80,-59.72 31.71,-57.71 31.62,-55.70 31.45,-54.20 31.28,-52.70 31.29,-50.92 31.31,-49.15 31.34,-47.24 31.37,-45.34 31.45,-43.97 31.52,-42.59 31.73,-40.68 31.94,-38.76 31.96,-37.02 31.98,-35.28 32.03,-33.41 32.09,-31.55 32.21,-29.45 32.34,-27.36 32.67,-25.21 33.00,-23.06 33.34,-21.09 33.69,-19.12 34.04,-17.20 34.39,-15.27 34.77,-13.46 35.15,-11.64 35.67,-9.74 36.19,-7.84 36.47,-6.62 36.75,-5.40 36.89,-3.78 37.04,-2.15 36.63,-1.11 36.22,-0.07 35.07,0.64 33.93,1.36 32.62,1.62 31.30,1.88 30.13,1.90 28.96,1.91 27.31,2.00 25.66,2.10 23.21,2.31 20.75,2.53 19.46,2.54 18.17,2.55 16.91,2.59 15.64,2.63 14.03,2.70 12.43,2.78 10.44,3.01 8.46,3.23 6.50,3.28 4.55,3.32 2.33,2.35 0.12,1.37 -0.04,1.36 -0.20,1.36 -0.36,1.31 -0.52,1.27 -0.67,1.19 -0.81,1.11 -0.93,0.99 -1.06,0.88 -1.15,0.74 -1.24,0.60 -1.29,0.44 -1.34,0.28 -1.36,0.12 -1.37,-0.04 -1.35,-0.20 -1.32,-0.37 -1.26,-0.52 -1.20,-0.67 -1.10,-0.81 -1.00,-0.94 -0.87,-1.05 -0.74,-1.15 -0.59,-1.23 -0.45,-1.30 -0.28,-1.33 -0.12,-1.37 -0.12,-1.37 L -0.12,-1.37 Z"/></g><g transform="translate(129.33334350585938 276) rotate(0 42.666656494140625 61.333343505859375)" stroke="none" fill="#000000"><path d="M 1.07,-0.76 Q 1.07,-0.76 2.76,0.05 4.45,0.88 5.31,2.45 6.16,4.02 6.61,6.15 7.06,8.28 7.25,10.31 7.45,12.34 7.53,13.96 7.62,15.57 7.66,17.03 7.69,18.49 7.71,20.08 7.73,21.66 7.92,23.28 8.11,24.91 8.21,27.15 8.32,29.39 8.55,31.51 8.77,33.63 8.89,35.84 9.00,38.05 9.23,39.96 9.46,41.87 9.58,43.81 9.69,45.75 9.74,47.35 9.79,48.94 9.81,50.78 9.84,52.62 10.03,54.14 10.22,55.67 10.32,57.28 10.42,58.89 10.45,60.36 10.49,61.82 10.51,63.60 10.53,65.37 10.71,66.42 10.89,67.47 10.99,68.96 11.09,70.45 11.13,71.65 11.17,72.86 11.19,74.34 11.21,75.82 11.22,77.21 11.23,78.60 11.24,79.96 11.24,81.32 11.24,82.86 11.25,84.39 11.25,85.81 11.25,87.23 11.04,89.03 10.84,90.83 10.55,92.39 10.25,93.95 10.12,95.92 9.99,97.89 10.23,99.65 10.47,101.41 10.79,104.14 11.10,106.88 11.43,109.55 11.76,112.22 11.80,113.48 11.85,114.74 12.13,115.98 12.40,117.21 13.09,118.15 13.79,119.09 15.43,118.90 17.06,118.71 18.48,118.72 19.89,118.73 21.64,118.73 23.40,118.74 25.31,118.56 27.22,118.38 29.17,118.11 31.13,117.85 33.49,117.72 35.86,117.59 37.61,117.54 39.36,117.49 41.27,117.47 43.18,117.44 45.16,117.25 47.13,117.06 49.61,116.62 52.08,116.17 54.58,115.77 57.09,115.37 59.61,115.37 62.13,115.38 64.21,115.59 66.28,115.80 67.75,115.88 69.22,115.96 70.41,115.99 71.61,116.03 73.06,116.05 74.52,116.07 75.78,116.07 77.04,116.08 78.66,116.09 80.28,116.10 81.71,115.54 83.14,114.99 83.49,114.95 83.84,114.91 84.31,114.84 84.78,114.78 85.25,114.84 85.72,114.89 86.17,115.06 86.61,115.22 87.00,115.49 87.40,115.75 87.71,116.11 88.03,116.46 88.26,116.88 88.48,117.30 88.60,117.76 88.71,118.22 88.72,118.69 88.72,119.17 88.61,119.63 88.50,120.09 88.28,120.51 88.07,120.93 87.75,121.29 87.44,121.65 87.05,121.92 86.66,122.20 86.22,122.37 85.78,122.54 86.70,121.76 87.62,120.99 86.19,121.72 84.76,122.45 82.29,121.86 79.82,121.27 79.61,121.26 79.40,121.24 79.20,121.15 79.01,121.07 78.85,120.93 78.69,120.78 78.59,120.60 78.49,120.41 78.45,120.20 78.41,119.99 78.44,119.78 78.47,119.57 78.56,119.38 78.66,119.19 78.81,119.04 78.96,118.89 79.15,118.80 79.34,118.71 79.55,118.68 79.76,118.65 79.97,118.69 80.18,118.73 80.36,118.84 80.55,118.95 80.69,119.10 80.83,119.26 80.91,119.46 81.00,119.65 81.01,119.87 81.03,120.08 80.98,120.28 80.92,120.49 80.81,120.67 80.69,120.85 80.53,120.98 80.36,121.11 80.16,121.18 79.96,121.26 79.75,121.26 79.54,121.27 79.33,121.20 79.13,121.14 78.96,121.01 78.79,120.89 78.66,120.72 78.54,120.54 78.48,120.34 78.42,120.14 78.43,119.92 78.43,119.71 78.51,119.51 78.58,119.31 78.71,119.15 78.85,118.98 79.03,118.87 79.21,118.76 79.41,118.71 79.62,118.66 79.62,118.66 79.62,118.66 80.72,117.91 81.82,117.16 82.83,116.03 83.84,114.91 84.31,114.84 84.78,114.78 85.25,114.84 85.72,114.89 86.17,115.06 86.61,115.22 87.00,115.49 87.40,115.75 87.71,116.11 88.03,116.46 88.26,116.88 88.48,117.30 88.60,117.76 88.71,118.22 88.72,118.69 88.72,119.17 88.61,119.63 88.50,120.09 88.28,120.51 88.07,120.93 87.75,121.29 87.44,121.65 87.05,121.92 86.66,122.20 86.22,122.37 85.78,122.54 85.46,122.52 85.13,122.50 83.96,122.87 82.80,123.25 81.65,123.57 80.51,123.89 78.77,123.90 77.03,123.91 75.73,123.90 74.43,123.90 72.90,123.88 71.38,123.85 70.08,123.81 68.79,123.78 67.12,123.68 65.45,123.59 63.74,123.40 62.03,123.21 60.16,123.16 58.29,123.11 55.87,123.49 53.45,123.87 50.66,124.36 47.87,124.85 45.57,125.06 43.27,125.27 41.43,125.29 39.59,125.32 37.93,125.36 36.27,125.41 34.22,125.51 32.16,125.61 30.04,125.89 27.92,126.17 25.65,126.37 23.38,126.57 21.60,126.56 19.83,126.56 18.35,126.55 16.87,126.53 15.63,126.50 14.38,126.46 13.24,126.35 12.09,126.25 10.07,125.31 8.06,124.37 6.83,122.85 5.59,121.33 5.06,119.45 4.54,117.57 4.28,116.30 4.02,115.04 3.98,113.89 3.94,112.75 3.87,111.51 3.80,110.28 3.54,108.83 3.28,107.38 3.21,106.11 3.13,104.84 2.85,102.52 2.56,100.19 2.35,98.89 2.15,97.58 2.20,96.39 2.26,95.20 2.40,93.84 2.54,92.48 2.80,91.18 3.05,89.88 3.23,88.55 3.41,87.23 3.41,85.81 3.41,84.40 3.41,82.87 3.41,81.34 3.41,79.99 3.41,78.64 3.40,77.27 3.40,75.90 3.39,74.50 3.38,73.10 3.35,72.02 3.32,70.95 3.25,69.79 3.18,68.63 2.97,67.04 2.75,65.45 2.73,63.74 2.72,62.02 2.69,60.67 2.66,59.33 2.58,57.94 2.51,56.56 2.31,54.63 2.10,52.70 2.09,50.93 2.08,49.15 2.04,47.66 2.00,46.17 1.92,44.46 1.84,42.74 1.60,40.57 1.37,38.40 1.29,36.40 1.21,34.40 0.99,32.04 0.76,29.69 0.70,27.70 0.64,25.71 0.44,23.71 0.24,21.70 0.24,20.15 0.24,18.60 0.24,17.19 0.23,15.79 0.23,14.27 0.22,12.76 0.20,11.03 0.18,9.30 0.12,7.99 0.06,6.68 -0.27,5.58 -0.62,4.48 -0.84,2.62 -1.07,0.76 -1.14,0.62 -1.22,0.48 -1.26,0.33 -1.30,0.17 -1.30,0.02 -1.30,-0.13 -1.27,-0.29 -1.23,-0.44 -1.16,-0.58 -1.09,-0.73 -0.99,-0.85 -0.88,-0.97 -0.75,-1.06 -0.63,-1.15 -0.48,-1.21 -0.33,-1.27 -0.17,-1.29 -0.02,-1.31 0.13,-1.30 0.29,-1.28 0.44,-1.22 0.59,-1.17 0.72,-1.08 0.85,-0.99 0.96,-0.88 1.07,-0.76 1.07,-0.76 L 1.07,-0.76 Z"/></g><g transform="translate(237.33334350585938 356) rotate(0 12.333343505859375 28.333358764648438)" stroke="none" fill="#000000"><path d="M -1.35,0.22 Q -1.35,0.22 -1.82,-0.77 -2.29,-1.78 -3.11,-0.84 -3.92,0.08 -5.45,1.27 -6.98,2.45 -8.38,4.21 -9.77,5.96 -10.49,6.95 -11.21,7.94 -11.89,8.92 -12.57,9.90 -13.04,11.30 -13.51,12.71 -13.95,14.13 -14.38,15.54 -14.97,17.36 -15.55,19.17 -15.72,20.58 -15.89,21.99 -15.97,23.89 -16.05,25.79 -16.08,28.14 -16.10,30.49 -15.75,32.75 -15.39,35.00 -14.85,37.72 -14.31,40.44 -13.55,42.97 -12.79,45.49 -11.70,47.15 -10.60,48.81 -9.31,50.19 -8.03,51.56 -6.19,52.74 -4.36,53.92 -2.65,54.82 -0.94,55.72 0.67,56.21 2.29,56.69 3.94,56.88 5.59,57.07 7.07,57.17 8.55,57.27 10.10,57.13 11.65,56.98 13.69,56.74 15.73,56.49 17.95,56.20 20.16,55.90 22.23,55.59 24.30,55.27 26.16,54.79 28.01,54.31 29.65,53.90 31.28,53.49 32.24,53.04 33.21,52.58 34.25,51.92 35.29,51.25 36.64,49.26 37.98,47.27 38.39,46.09 38.79,44.91 39.18,43.46 39.57,42.02 39.93,40.46 40.30,38.89 40.42,37.48 40.54,36.07 40.60,34.33 40.66,32.59 40.50,30.69 40.35,28.78 39.94,26.99 39.53,25.20 38.97,22.60 38.40,20.01 37.80,17.85 37.21,15.70 36.58,13.66 35.96,11.62 34.65,10.20 33.34,8.78 32.21,8.01 31.09,7.23 29.96,6.46 28.84,5.68 27.36,4.86 25.88,4.05 24.35,3.34 22.82,2.63 21.26,2.22 19.70,1.81 18.23,1.64 16.76,1.47 15.28,1.16 13.79,0.84 12.43,0.52 11.07,0.19 9.88,-0.15 8.69,-0.49 6.65,-0.05 4.61,0.39 3.25,0.94 1.90,1.48 0.40,1.91 -1.08,2.34 -1.73,0.77 -2.38,-0.78 -2.17,-0.80 -1.96,-0.81 -1.75,-0.76 -1.54,-0.70 -1.37,-0.59 -1.19,-0.47 -1.06,-0.30 -0.93,-0.14 -0.86,0.05 -0.79,0.25 -0.78,0.47 -0.78,0.68 -0.84,0.88 -0.91,1.08 -1.03,1.26 -1.16,1.43 -1.33,1.55 -1.51,1.67 -1.71,1.73 -1.92,1.79 -2.13,1.78 -2.34,1.77 -2.54,1.70 -2.74,1.62 -2.90,1.49 -3.07,1.35 -3.18,1.17 -3.29,0.99 -3.34,0.78 -3.39,0.58 -3.37,0.37 -3.35,0.15 -3.26,-0.03 -3.18,-0.22 -3.03,-0.38 -2.89,-0.54 -2.70,-0.64 -2.52,-0.74 -2.31,-0.78 -2.10,-0.82 -1.89,-0.79 -1.68,-0.75 -1.49,-0.66 -1.30,-0.56 -1.15,-0.41 -1.00,-0.26 -0.91,-0.07 -0.82,0.12 -0.79,0.33 -0.77,0.54 -0.81,0.75 -0.85,0.95 -0.96,1.14 -1.06,1.32 -1.22,1.46 -1.38,1.60 -1.58,1.68 -1.78,1.76 -1.78,1.76 -1.78,1.76 -2.85,-0.27 -3.93,-2.31 -2.51,-3.67 -1.09,-5.03 0.80,-5.97 2.69,-6.92 4.66,-7.40 6.63,-7.89 8.65,-7.88 10.67,-7.87 11.75,-7.57 12.84,-7.26 14.13,-6.96 15.42,-6.67 16.58,-6.41 17.73,-6.15 19.75,-5.88 21.77,-5.60 23.92,-4.98 26.06,-4.35 27.85,-3.52 29.63,-2.68 31.42,-1.67 33.22,-0.66 34.40,0.14 35.58,0.95 37.17,2.12 38.76,3.28 39.94,4.51 41.12,5.74 42.20,7.50 43.29,9.27 43.96,11.45 44.64,13.63 45.30,15.98 45.96,18.33 46.54,20.93 47.13,23.53 47.63,25.85 48.12,28.18 48.29,30.53 48.46,32.88 48.38,34.85 48.31,36.83 48.10,38.74 47.90,40.64 47.49,42.37 47.09,44.10 46.58,45.91 46.07,47.72 45.27,49.67 44.46,51.62 43.36,53.22 42.26,54.82 40.88,56.31 39.50,57.81 37.93,58.77 36.36,59.73 34.78,60.39 33.21,61.05 31.57,61.47 29.93,61.88 27.70,62.44 25.47,62.99 23.33,63.32 21.20,63.64 18.93,63.94 16.66,64.24 14.46,64.50 12.26,64.77 10.14,64.91 8.02,65.06 6.29,64.93 4.55,64.81 2.25,64.47 -0.05,64.13 -2.33,63.37 -4.61,62.61 -6.67,61.50 -8.73,60.38 -11.25,58.61 -13.76,56.83 -15.50,54.87 -17.23,52.91 -18.74,50.34 -20.24,47.76 -21.09,44.83 -21.93,41.90 -22.47,38.99 -23.01,36.09 -23.38,33.22 -23.75,30.36 -23.69,27.88 -23.63,25.40 -23.49,23.16 -23.36,20.91 -23.03,18.88 -22.70,16.84 -22.10,15.06 -21.51,13.28 -20.98,11.65 -20.44,10.02 -19.54,7.87 -18.63,5.72 -17.87,4.64 -17.11,3.57 -16.26,2.43 -15.40,1.30 -14.32,0.05 -13.24,-1.19 -12.03,-2.30 -10.81,-3.40 -9.35,-4.21 -7.89,-5.02 -6.48,-5.49 -5.07,-5.96 -3.74,-6.05 -2.40,-6.14 -1.19,-5.70 0.01,-5.26 0.77,-4.04 1.52,-2.81 1.44,-1.52 1.35,-0.22 1.36,-0.06 1.36,0.10 1.33,0.26 1.30,0.42 1.23,0.57 1.16,0.72 1.05,0.85 0.95,0.98 0.82,1.08 0.69,1.18 0.53,1.25 0.38,1.31 0.22,1.34 0.06,1.37 -0.10,1.35 -0.26,1.34 -0.42,1.29 -0.58,1.24 -0.72,1.15 -0.86,1.06 -0.97,0.94 -1.09,0.82 -1.17,0.68 -1.26,0.54 -1.30,0.38 -1.35,0.22 -1.35,0.22 L -1.35,0.22 Z"/></g><g transform="translate(252.66665649414062 358.66668701171875) rotate(0 -14 27)" stroke="none" fill="#000000"><path d="M 1.49,0.44 Q 1.49,0.44 1.82,2.63 2.16,4.82 1.41,7.28 0.67,9.73 -0.41,12.87 -1.49,16.00 -2.38,18.17 -3.26,20.33 -4.24,22.44 -5.21,24.55 -6.47,26.71 -7.74,28.87 -9.57,31.20 -11.41,33.53 -13.02,35.26 -14.64,36.99 -16.53,38.95 -18.42,40.90 -19.73,42.71 -21.04,44.52 -22.26,46.52 -23.49,48.52 -24.91,50.88 -26.33,53.25 -26.44,53.43 -26.54,53.62 -26.70,53.76 -26.85,53.90 -27.05,53.99 -27.24,54.08 -27.45,54.10 -27.66,54.11 -27.87,54.07 -28.08,54.02 -28.26,53.90 -28.44,53.79 -28.57,53.63 -28.71,53.46 -28.78,53.26 -28.86,53.06 -28.87,52.85 -28.87,52.64 -28.81,52.44 -28.75,52.23 -28.63,52.06 -28.51,51.88 -28.34,51.76 -28.16,51.63 -27.96,51.57 -27.76,51.50 -27.55,51.51 -27.33,51.51 -27.13,51.58 -26.93,51.66 -26.77,51.79 -26.60,51.92 -26.48,52.10 -26.37,52.27 -26.32,52.48 -26.26,52.69 -26.28,52.90 -26.29,53.11 -26.38,53.31 -26.46,53.50 -26.60,53.66 -26.74,53.82 -26.92,53.93 -27.11,54.03 -27.31,54.08 -27.52,54.12 -27.73,54.09 -27.94,54.06 -28.14,53.97 -28.33,53.88 -28.48,53.73 -28.63,53.58 -28.73,53.39 -28.82,53.20 -28.85,52.99 -28.88,52.78 -28.85,52.57 -28.81,52.36 -28.81,52.36 -28.81,52.36 -28.30,49.33 -27.80,46.29 -26.74,43.88 -25.69,41.48 -24.34,39.23 -23.00,36.98 -21.34,34.81 -19.68,32.64 -18.37,30.97 -17.05,29.30 -15.60,27.23 -14.14,25.16 -13.07,23.29 -12.00,21.42 -11.10,19.45 -10.19,17.49 -9.36,15.48 -8.53,13.47 -7.39,10.39 -6.25,7.32 -5.35,5.07 -4.46,2.83 -2.97,1.19 -1.49,-0.44 -1.41,-0.62 -1.34,-0.79 -1.22,-0.94 -1.11,-1.09 -0.96,-1.20 -0.82,-1.32 -0.65,-1.40 -0.47,-1.48 -0.29,-1.52 -0.11,-1.55 0.07,-1.54 0.26,-1.53 0.44,-1.48 0.62,-1.42 0.78,-1.33 0.94,-1.23 1.08,-1.10 1.21,-0.97 1.31,-0.81 1.41,-0.65 1.47,-0.47 1.53,-0.29 1.54,-0.10 1.55,0.07 1.52,0.26 1.49,0.44 1.49,0.44 L 1.49,0.44 Z"/></g><g transform="translate(224.66665649414062 368.66668701171875) rotate(0 21.333343505859375 20.666656494140625)" stroke="none" fill="#000000"><path d="M 0.90,-1.01 Q 0.90,-1.01 3.28,-0.22 5.66,0.57 7.71,2.04 9.75,3.50 12.06,5.32 14.37,7.13 15.96,8.51 17.54,9.90 19.21,11.46 20.87,13.03 23.03,15.55 25.18,18.06 27.51,21.09 29.84,24.11 31.93,26.82 34.02,29.52 36.54,32.79 39.06,36.06 40.32,37.32 41.59,38.58 41.72,38.75 41.85,38.91 41.93,39.11 42.00,39.31 42.00,39.53 42.01,39.74 41.94,39.94 41.88,40.14 41.76,40.32 41.63,40.49 41.46,40.61 41.28,40.73 41.08,40.80 40.88,40.86 40.66,40.85 40.45,40.84 40.25,40.77 40.05,40.69 39.89,40.56 39.72,40.43 39.61,40.25 39.50,40.07 39.45,39.86 39.40,39.65 39.42,39.44 39.43,39.23 39.52,39.03 39.60,38.84 39.75,38.68 39.89,38.53 40.08,38.42 40.26,38.32 40.47,38.28 40.68,38.24 40.89,38.27 41.10,38.30 41.29,38.40 41.48,38.49 41.63,38.64 41.78,38.79 41.87,38.99 41.97,39.18 41.99,39.39 42.02,39.60 41.98,39.81 41.94,40.01 41.83,40.20 41.73,40.38 41.57,40.52 41.41,40.67 41.21,40.75 41.02,40.83 40.80,40.85 40.59,40.86 40.39,40.81 40.18,40.76 40.00,40.64 39.82,40.53 39.82,40.53 39.82,40.53 38.45,39.39 37.07,38.25 33.37,35.87 29.67,33.49 27.04,31.02 24.41,28.56 21.95,25.73 19.49,22.90 17.60,20.66 15.71,18.43 14.16,16.92 12.62,15.42 11.17,14.10 9.71,12.77 7.58,10.92 5.44,9.06 3.33,7.31 1.23,5.55 0.16,3.28 -0.90,1.01 -1.01,0.89 -1.12,0.77 -1.19,0.62 -1.27,0.48 -1.31,0.32 -1.35,0.16 -1.35,-0.00 -1.35,-0.16 -1.31,-0.32 -1.27,-0.48 -1.19,-0.63 -1.11,-0.77 -1.01,-0.89 -0.90,-1.02 -0.76,-1.11 -0.63,-1.20 -0.47,-1.26 -0.32,-1.32 -0.16,-1.34 0.00,-1.36 0.16,-1.34 0.32,-1.32 0.48,-1.26 0.63,-1.20 0.76,-1.11 0.90,-1.01 0.90,-1.01 L 0.90,-1.01 Z"/></g><g transform="translate(280.6666564941406 383.3333435058594) rotate(0 17.000030517578125 -66.33332824707031)" stroke="none" fill="#000000"><path d="M -0.12,-1.35 Q -0.12,-1.35 1.90,-2.43 3.93,-3.52 5.85,-3.66 7.78,-3.80 9.81,-4.02 11.83,-4.25 13.62,-4.53 15.41,-4.81 16.66,-4.95 17.92,-5.08 19.49,-5.14 21.06,-5.21 22.87,-5.24 24.67,-5.27 26.41,-5.07 28.14,-4.87 29.26,-4.79 30.38,-4.72 29.52,-7.06 28.66,-9.39 28.01,-11.21 27.36,-13.03 26.58,-14.57 25.80,-16.10 25.04,-17.58 24.28,-19.07 23.67,-20.88 23.07,-22.70 22.79,-25.02 22.51,-27.34 22.41,-29.45 22.31,-31.55 22.27,-33.20 22.23,-34.86 22.20,-36.72 22.18,-38.59 22.37,-40.33 22.55,-42.08 22.59,-43.59 22.63,-45.09 22.12,-46.77 21.60,-48.44 21.15,-49.81 20.71,-51.18 20.49,-52.30 20.27,-53.42 20.35,-55.20 20.43,-56.98 20.45,-58.23 20.48,-59.48 20.31,-60.53 20.14,-61.58 19.89,-63.03 19.63,-64.48 19.49,-66.06 19.36,-67.63 19.30,-69.47 19.24,-71.31 19.21,-73.04 19.18,-74.77 18.98,-76.26 18.79,-77.76 18.34,-79.63 17.90,-81.51 17.67,-83.95 17.43,-86.40 17.15,-89.45 16.88,-92.50 16.76,-95.02 16.64,-97.54 16.44,-100.04 16.25,-102.54 16.54,-106.13 16.82,-109.73 18.22,-116.37 19.62,-123.02 19.96,-125.82 20.30,-128.63 20.36,-128.83 20.41,-129.04 20.53,-129.21 20.64,-129.39 20.81,-129.52 20.98,-129.65 21.18,-129.73 21.38,-129.80 21.59,-129.80 21.80,-129.80 22.00,-129.74 22.21,-129.67 22.38,-129.55 22.55,-129.42 22.67,-129.25 22.79,-129.07 22.85,-128.87 22.91,-128.67 22.91,-128.45 22.90,-128.24 22.82,-128.04 22.75,-127.85 22.61,-127.68 22.48,-127.52 22.30,-127.40 22.12,-127.29 21.91,-127.24 21.70,-127.19 21.49,-127.21 21.28,-127.23 21.08,-127.32 20.89,-127.41 20.73,-127.55 20.58,-127.69 20.47,-127.88 20.37,-128.07 20.33,-128.27 20.30,-128.48 20.33,-128.69 20.36,-128.90 20.46,-129.09 20.55,-129.28 20.70,-129.43 20.86,-129.58 21.05,-129.67 21.24,-129.76 21.45,-129.79 21.66,-129.82 21.87,-129.77 22.08,-129.73 22.26,-129.63 22.44,-129.52 22.58,-129.36 22.72,-129.20 22.81,-129.00 22.89,-128.81 22.90,-128.59 22.92,-128.38 22.92,-128.38 22.92,-128.38 22.74,-125.56 22.56,-122.74 22.73,-116.15 22.91,-109.56 23.01,-106.37 23.12,-103.18 23.41,-100.53 23.70,-97.88 23.82,-95.51 23.93,-93.14 24.21,-90.09 24.48,-87.04 24.64,-85.05 24.80,-83.07 25.30,-80.83 25.80,-78.59 26.00,-76.72 26.20,-74.86 26.21,-73.18 26.22,-71.50 26.26,-69.84 26.30,-68.18 26.38,-66.92 26.47,-65.66 26.74,-64.06 27.01,-62.46 27.19,-60.84 27.36,-59.22 27.28,-57.79 27.20,-56.37 27.14,-54.76 27.08,-53.15 27.40,-52.04 27.73,-50.93 28.27,-49.41 28.82,-47.90 28.97,-46.34 29.12,-44.79 29.01,-43.06 28.89,-41.33 28.71,-39.98 28.52,-38.64 28.54,-36.82 28.55,-35.01 28.58,-33.42 28.62,-31.84 28.70,-29.93 28.79,-28.01 28.94,-26.30 29.09,-24.59 29.50,-23.22 29.90,-21.86 30.63,-20.36 31.36,-18.86 32.26,-17.00 33.17,-15.14 33.78,-13.47 34.39,-11.80 34.96,-10.46 35.53,-9.13 36.37,-7.04 37.20,-4.95 37.07,-3.58 36.94,-2.21 36.24,-1.15 35.54,-0.08 34.26,0.65 32.99,1.39 31.49,1.61 30.00,1.83 28.68,1.74 27.36,1.66 26.05,1.50 24.75,1.33 23.02,1.35 21.29,1.36 19.94,1.40 18.60,1.44 17.50,1.55 16.41,1.66 14.47,1.96 12.53,2.25 10.30,2.48 8.06,2.70 6.28,2.73 4.50,2.75 2.31,2.05 0.12,1.35 -0.04,1.34 -0.20,1.34 -0.36,1.29 -0.51,1.25 -0.66,1.17 -0.80,1.09 -0.92,0.98 -1.04,0.86 -1.13,0.73 -1.22,0.59 -1.27,0.43 -1.32,0.28 -1.34,0.12 -1.35,-0.04 -1.33,-0.20 -1.30,-0.36 -1.24,-0.51 -1.18,-0.66 -1.08,-0.79 -0.98,-0.93 -0.86,-1.03 -0.73,-1.14 -0.59,-1.21 -0.44,-1.28 -0.28,-1.31 -0.12,-1.35 -0.12,-1.35 L -0.12,-1.35 Z"/></g><g transform="translate(320.6666564941406 157.33334350585938) rotate(0 6.66668701171875 8)" stroke="none" fill="#000000"><path d="M -1.45,0 Q -1.45,0 -2.27,-1.62 -3.10,-3.25 -1.89,-4.75 -0.68,-6.25 1.73,-6.40 4.16,-6.56 5.92,-5.15 7.69,-3.75 8.56,-1.61 9.42,0.53 9.55,2.91 9.69,5.28 9.07,7.89 8.45,10.50 8.01,12.02 7.56,13.54 7.15,14.67 6.73,15.80 7.86,15.98 8.99,16.16 11.28,15.96 13.57,15.77 13.77,15.69 13.97,15.62 14.18,15.62 14.39,15.61 14.60,15.68 14.80,15.74 14.97,15.87 15.14,15.99 15.27,16.17 15.39,16.34 15.45,16.54 15.51,16.75 15.50,16.96 15.50,17.17 15.42,17.37 15.35,17.57 15.21,17.73 15.08,17.90 14.90,18.01 14.72,18.12 14.51,18.17 14.31,18.22 14.09,18.20 13.88,18.19 13.69,18.10 13.49,18.02 13.34,17.87 13.18,17.73 13.08,17.54 12.97,17.36 12.93,17.15 12.90,16.94 12.93,16.73 12.96,16.52 13.05,16.33 13.15,16.14 13.30,15.99 13.45,15.84 13.64,15.75 13.83,15.66 14.04,15.63 14.25,15.60 14.46,15.64 14.67,15.68 14.85,15.79 15.04,15.90 15.18,16.06 15.32,16.21 15.40,16.41 15.49,16.61 15.50,16.82 15.52,17.03 15.46,17.24 15.41,17.44 15.30,17.62 15.18,17.80 15.01,17.93 14.85,18.06 14.85,18.06 14.85,18.06 12.58,19.99 10.32,21.93 8.54,22.51 6.76,23.10 4.65,22.52 2.54,21.93 1.14,20.34 -0.25,18.74 -0.51,17.12 -0.78,15.49 -0.20,13.46 0.36,11.43 0.78,10.01 1.20,8.58 1.70,6.97 2.20,5.35 2.05,3.15 1.90,0.94 2.50,-0.20 3.10,-1.34 2.27,-0.67 1.45,0 1.42,0.17 1.40,0.34 1.34,0.51 1.28,0.67 1.18,0.81 1.08,0.96 0.95,1.07 0.82,1.19 0.66,1.27 0.51,1.35 0.34,1.39 0.17,1.43 -0.00,1.43 -0.17,1.43 -0.34,1.39 -0.51,1.35 -0.66,1.27 -0.82,1.19 -0.95,1.07 -1.08,0.96 -1.18,0.81 -1.28,0.67 -1.34,0.51 -1.40,0.34 -1.42,0.17 -1.45,-0.00 -1.45,-0.00 L -1.45,0 Z"/></g><g transform="translate(352.0000305175781 165.33334350585938) rotate(0 1.666656494140625 3)" stroke="none" fill="#000000"><path d="M 0.41,1.44 Q 0.41,1.44 -0.62,2.58 -1.65,3.71 0.66,3.79 2.98,3.87 3.81,2.98 4.64,2.09 3.16,1.25 1.67,0.42 1.34,-0.43 1.01,-1.29 1.03,-1.08 1.05,-0.87 1.00,-0.66 0.95,-0.46 0.84,-0.28 0.73,-0.09 0.57,0.03 0.40,0.17 0.21,0.24 0.01,0.32 -0.20,0.33 -0.41,0.34 -0.61,0.28 -0.82,0.22 -0.99,0.10 -1.16,-0.01 -1.29,-0.19 -1.42,-0.36 -1.48,-0.56 -1.55,-0.76 -1.55,-0.97 -1.54,-1.19 -1.47,-1.39 -1.40,-1.59 -1.27,-1.75 -1.14,-1.92 -0.96,-2.04 -0.79,-2.16 -0.58,-2.21 -0.38,-2.26 -0.16,-2.25 0.04,-2.24 0.24,-2.15 0.43,-2.07 0.59,-1.93 0.75,-1.79 0.86,-1.61 0.97,-1.43 1.01,-1.22 1.05,-1.01 1.03,-0.80 1.00,-0.59 0.91,-0.40 0.82,-0.21 0.67,-0.05 0.52,0.09 0.33,0.19 0.14,0.28 -0.06,0.31 -0.27,0.35 -0.48,0.31 -0.68,0.27 -0.87,0.17 -1.06,0.07 -1.20,-0.08 -1.35,-0.23 -1.43,-0.43 -1.52,-0.62 -1.52,-0.62 -1.52,-0.62 1.13,-3.08 3.79,-5.53 5.83,-4.63 7.86,-3.72 9.22,-1.56 10.58,0.59 10.05,3.35 9.52,6.11 7.31,8.06 5.09,10.02 2.12,10.79 -0.85,11.56 -3.35,10.77 -5.85,9.98 -7.12,7.65 -8.39,5.31 -7.78,2.93 -7.18,0.55 -5.44,-0.81 -3.71,-2.18 -2.06,-1.81 -0.41,-1.44 -0.23,-1.47 -0.05,-1.50 0.12,-1.48 0.30,-1.47 0.47,-1.41 0.65,-1.35 0.80,-1.25 0.95,-1.16 1.08,-1.03 1.20,-0.89 1.29,-0.74 1.38,-0.58 1.43,-0.41 1.48,-0.23 1.49,-0.05 1.49,0.12 1.46,0.30 1.42,0.48 1.34,0.64 1.26,0.80 1.15,0.94 1.03,1.08 0.89,1.19 0.74,1.30 0.58,1.37 0.41,1.44 0.41,1.44 L 0.41,1.44 Z"/></g><g transform="translate(365.3333435058594 162) rotate(0 7 3)" stroke="none" fill="#000000"><path d="M 1.38,-0.37 Q 1.38,-0.37 2.79,1.50 4.20,3.38 4.69,5.28 5.19,7.17 5.58,8.20 5.96,9.24 6.25,9.69 6.53,10.15 6.62,10.58 6.70,11.01 6.68,11.44 6.65,11.88 6.53,12.30 6.40,12.71 6.18,13.09 5.96,13.46 5.65,13.77 5.35,14.08 4.98,14.31 4.61,14.54 4.19,14.68 3.78,14.81 3.34,14.84 2.91,14.87 2.48,14.80 2.05,14.72 1.65,14.55 1.25,14.37 0.90,14.10 0.56,13.84 0.29,13.50 0.01,13.16 -0.16,12.76 -0.34,12.37 -0.06,10.47 0.21,8.57 0.57,6.93 0.93,5.30 2.00,2.66 3.07,0.01 4.97,-2.32 6.87,-4.67 10.18,-5.30 13.49,-5.94 13.70,-5.92 13.91,-5.90 14.10,-5.82 14.30,-5.74 14.46,-5.59 14.62,-5.45 14.72,-5.27 14.83,-5.08 14.87,-4.87 14.91,-4.67 14.88,-4.46 14.85,-4.24 14.76,-4.05 14.66,-3.86 14.51,-3.71 14.36,-3.56 14.17,-3.47 13.98,-3.37 13.77,-3.34 13.56,-3.32 13.35,-3.36 13.14,-3.39 12.96,-3.50 12.77,-3.60 12.63,-3.76 12.49,-3.92 12.40,-4.11 12.32,-4.31 12.30,-4.52 12.29,-4.73 12.34,-4.94 12.39,-5.15 12.50,-5.32 12.62,-5.50 12.78,-5.64 12.95,-5.77 13.15,-5.84 13.35,-5.92 13.56,-5.92 13.77,-5.93 13.97,-5.87 14.18,-5.81 14.35,-5.68 14.52,-5.56 14.65,-5.39 14.77,-5.21 14.83,-5.01 14.90,-4.81 14.89,-4.60 14.88,-4.38 14.81,-4.18 14.74,-3.98 14.61,-3.82 14.47,-3.65 14.29,-3.54 14.12,-3.42 13.91,-3.37 13.70,-3.32 13.70,-3.32 13.70,-3.32 13.10,-1.75 12.49,-0.18 11.26,1.39 10.03,2.97 9.15,5.06 8.26,7.16 7.40,8.65 6.53,10.15 6.62,10.58 6.70,11.01 6.68,11.44 6.65,11.88 6.53,12.29 6.40,12.71 6.18,13.09 5.96,13.46 5.65,13.77 5.35,14.08 4.98,14.31 4.61,14.54 4.19,14.68 3.78,14.81 3.34,14.84 2.91,14.87 2.48,14.80 2.05,14.72 1.65,14.55 1.25,14.37 0.90,14.10 0.56,13.84 0.29,13.50 0.01,13.16 -0.16,12.76 -0.34,12.37 -0.38,11.83 -0.41,11.29 -0.78,9.98 -1.15,8.67 -1.52,6.86 -1.90,5.04 -1.64,2.71 -1.38,0.37 -1.40,0.20 -1.43,0.03 -1.41,-0.13 -1.40,-0.30 -1.34,-0.47 -1.28,-0.63 -1.19,-0.78 -1.09,-0.92 -0.97,-1.04 -0.84,-1.16 -0.69,-1.24 -0.54,-1.32 -0.37,-1.37 -0.20,-1.42 -0.03,-1.42 0.13,-1.42 0.30,-1.39 0.47,-1.35 0.63,-1.27 0.78,-1.20 0.91,-1.08 1.05,-0.97 1.15,-0.83 1.25,-0.69 1.31,-0.53 1.38,-0.37 1.38,-0.37 L 1.38,-0.37 Z"/></g><g transform="translate(323.3333435058594 198) rotate(0 8 7)" stroke="none" fill="#000000"><path d="M 1.27,0.31 Q 1.27,0.31 2.29,1.38 3.31,2.44 3.31,3.93 3.30,5.41 3.46,7.72 3.63,10.04 3.69,11.72 3.76,13.41 3.78,14.11 3.80,14.81 3.77,15.27 3.73,15.73 3.58,16.17 3.44,16.61 3.19,17.01 2.94,17.40 2.60,17.72 2.27,18.04 1.87,18.28 1.46,18.51 1.02,18.64 0.57,18.77 0.11,18.79 -0.35,18.80 -0.80,18.71 -1.26,18.62 -1.68,18.42 -2.10,18.22 -2.46,17.93 -2.82,17.63 -3.10,17.26 -3.37,16.89 -3.56,16.46 -3.74,16.04 -3.81,15.58 -3.89,15.12 -3.52,13.82 -3.14,12.53 -2.98,11.24 -2.81,9.96 -2.49,8.06 -2.16,6.17 -1.80,4.80 -1.43,3.42 -0.83,2.25 -0.22,1.07 2.10,0.53 4.43,-0.01 5.43,0.48 6.43,0.98 9.30,0.11 12.17,-0.76 13.25,1.20 14.33,3.17 14.77,4.63 15.22,6.09 15.71,7.03 16.20,7.97 16.41,8.02 16.61,8.08 16.79,8.19 16.97,8.30 17.10,8.47 17.24,8.64 17.31,8.84 17.38,9.03 17.39,9.25 17.39,9.46 17.33,9.66 17.27,9.87 17.14,10.04 17.02,10.21 16.85,10.33 16.68,10.46 16.47,10.52 16.27,10.58 16.06,10.58 15.84,10.57 15.64,10.50 15.45,10.42 15.28,10.29 15.11,10.16 15.00,9.98 14.89,9.80 14.83,9.59 14.78,9.39 14.80,9.18 14.82,8.96 14.90,8.77 14.99,8.57 15.13,8.42 15.27,8.26 15.46,8.15 15.64,8.05 15.85,8.01 16.06,7.97 16.27,8.00 16.48,8.03 16.67,8.12 16.86,8.22 17.01,8.37 17.16,8.52 17.25,8.71 17.35,8.90 17.38,9.11 17.41,9.32 17.36,9.53 17.32,9.74 17.22,9.92 17.12,10.11 16.96,10.25 16.80,10.39 16.60,10.47 16.41,10.56 16.20,10.57 15.98,10.59 15.99,10.59 15.99,10.59 12.33,10.07 8.68,9.54 8.19,7.10 7.70,4.66 9.86,4.83 12.02,5.00 10.87,6.42 9.72,7.83 7.96,8.47 6.19,9.10 4.53,8.75 2.86,8.39 2.18,7.02 1.49,5.65 3.32,5.31 5.15,4.97 5.20,6.18 5.25,7.40 4.95,9.28 4.65,11.16 4.23,12.98 3.80,14.81 3.77,15.27 3.73,15.73 3.58,16.17 3.44,16.61 3.19,17.01 2.94,17.40 2.60,17.72 2.27,18.04 1.87,18.28 1.47,18.51 1.02,18.64 0.57,18.77 0.11,18.79 -0.35,18.80 -0.80,18.71 -1.26,18.62 -1.68,18.42 -2.10,18.22 -2.46,17.93 -2.82,17.63 -3.10,17.26 -3.37,16.89 -3.56,16.46 -3.74,16.04 -3.81,15.58 -3.89,15.12 -3.92,14.42 -3.96,13.72 -4.03,12.12 -4.09,10.52 -4.24,7.80 -4.39,5.08 -4.23,2.85 -4.08,0.62 -2.67,0.15 -1.27,-0.31 -1.21,-0.46 -1.16,-0.61 -1.07,-0.74 -0.98,-0.87 -0.86,-0.97 -0.74,-1.08 -0.60,-1.15 -0.46,-1.22 -0.30,-1.26 -0.15,-1.30 0.00,-1.30 0.16,-1.30 0.31,-1.26 0.46,-1.22 0.60,-1.15 0.74,-1.07 0.86,-0.97 0.98,-0.86 1.07,-0.73 1.16,-0.60 1.22,-0.45 1.27,-0.30 1.29,-0.15 1.31,0.00 1.29,0.16 1.27,0.31 1.27,0.31 L 1.27,0.31 Z"/></g><g transform="translate(345.3333435058594 200.66668701171875) rotate(0 3.333343505859375 4.3333282470703125)" stroke="none" fill="#000000"><path d="M 1.27,0.95 Q 1.27,0.95 1.49,2.12 1.71,3.28 3.11,3.25 4.51,3.23 5.59,2.22 6.68,1.22 7.11,1.19 7.53,1.16 7.96,1.24 8.38,1.31 8.77,1.49 9.16,1.66 9.50,1.92 9.84,2.19 10.10,2.52 10.37,2.86 10.54,3.25 10.72,3.64 10.80,4.06 10.88,4.48 10.86,4.91 10.83,5.34 10.71,5.75 10.58,6.16 10.36,6.52 10.14,6.89 9.84,7.20 9.53,7.50 9.17,7.72 8.80,7.95 8.39,8.08 7.99,8.20 4.14,5.10 0.29,2.00 0.16,1.84 0.02,1.67 -0.04,1.47 -0.12,1.27 -0.13,1.06 -0.14,0.85 -0.08,0.65 -0.02,0.44 0.09,0.27 0.22,0.09 0.39,-0.02 0.56,-0.15 0.76,-0.21 0.96,-0.28 1.17,-0.28 1.39,-0.27 1.59,-0.20 1.79,-0.13 1.96,-0.00 2.12,0.12 2.24,0.30 2.36,0.47 2.41,0.68 2.46,0.89 2.45,1.10 2.44,1.31 2.35,1.51 2.27,1.70 2.13,1.86 1.99,2.02 1.81,2.13 1.63,2.24 1.42,2.28 1.21,2.32 1.00,2.30 0.79,2.27 0.60,2.18 0.41,2.09 0.25,1.94 0.10,1.79 0.00,1.60 -0.08,1.41 -0.11,1.20 -0.15,0.99 -0.11,0.78 -0.07,0.57 0.02,0.39 0.12,0.20 0.28,0.06 0.44,-0.08 0.63,-0.16 0.82,-0.25 1.04,-0.27 1.25,-0.29 1.45,-0.24 1.66,-0.19 1.84,-0.08 2.02,0.02 2.02,0.02 2.02,0.02 4.35,0.62 6.68,1.22 7.11,1.19 7.53,1.16 7.95,1.24 8.38,1.31 8.77,1.49 9.16,1.66 9.50,1.92 9.84,2.19 10.10,2.52 10.37,2.86 10.54,3.25 10.72,3.64 10.80,4.06 10.88,4.48 10.86,4.91 10.83,5.34 10.71,5.75 10.58,6.16 10.36,6.52 10.14,6.89 9.84,7.20 9.54,7.50 9.17,7.72 8.80,7.95 8.39,8.08 7.99,8.20 7.27,9.07 6.56,9.93 3.33,10.17 0.11,10.41 -1.88,8.66 -3.88,6.92 -4.35,5.06 -4.82,3.20 -4.41,1.49 -4.01,-0.22 -2.64,-0.58 -1.27,-0.95 -1.14,-1.09 -1.00,-1.23 -0.84,-1.33 -0.68,-1.43 -0.50,-1.49 -0.31,-1.56 -0.12,-1.57 0.06,-1.59 0.25,-1.56 0.44,-1.53 0.61,-1.45 0.79,-1.37 0.94,-1.26 1.10,-1.14 1.22,-1.00 1.34,-0.85 1.42,-0.67 1.51,-0.50 1.54,-0.31 1.58,-0.12 1.57,0.06 1.57,0.25 1.51,0.43 1.46,0.62 1.36,0.78 1.27,0.95 1.27,0.95 L 1.27,0.95 Z"/></g><g transform="translate(358.0000305175781 199.33334350585938) rotate(0 7 6)" stroke="none" fill="#000000"><path d="M 1.12,-0.74 Q 1.12,-0.74 3.29,0.29 5.46,1.34 6.47,3.20 7.47,5.07 8.15,7.01 8.84,8.95 9.03,10.07 9.23,11.19 9.62,11.65 10.01,12.10 10.06,12.56 10.10,13.03 10.03,13.49 9.96,13.95 9.79,14.38 9.61,14.82 9.33,15.19 9.06,15.57 8.70,15.87 8.34,16.17 7.92,16.38 7.50,16.58 7.05,16.68 6.59,16.78 6.12,16.77 5.66,16.75 5.21,16.63 4.76,16.51 4.35,16.28 3.94,16.05 3.60,15.73 3.26,15.41 3.00,15.02 2.75,14.63 2.60,14.19 2.44,13.75 2.70,12.30 2.96,10.86 3.10,8.62 3.25,6.39 3.36,4.83 3.47,3.26 4.44,1.49 5.41,-0.27 9.14,-1.59 12.86,-2.90 13.06,-2.96 13.27,-3.03 13.48,-3.02 13.69,-3.01 13.89,-2.93 14.09,-2.86 14.25,-2.72 14.42,-2.59 14.53,-2.41 14.64,-2.23 14.69,-2.02 14.74,-1.81 14.72,-1.60 14.70,-1.39 14.61,-1.20 14.53,-1.00 14.38,-0.85 14.24,-0.69 14.05,-0.59 13.87,-0.48 13.66,-0.45 13.45,-0.41 13.24,-0.44 13.03,-0.47 12.84,-0.57 12.65,-0.66 12.50,-0.82 12.35,-0.97 12.26,-1.16 12.17,-1.35 12.14,-1.56 12.12,-1.77 12.16,-1.98 12.20,-2.19 12.31,-2.37 12.41,-2.56 12.57,-2.70 12.73,-2.84 12.93,-2.92 13.13,-3.00 13.34,-3.01 13.55,-3.03 13.76,-2.98 13.96,-2.92 14.14,-2.81 14.32,-2.69 14.45,-2.52 14.58,-2.36 14.65,-2.15 14.72,-1.95 14.72,-1.74 14.73,-1.53 14.66,-1.33 14.60,-1.13 14.47,-0.95 14.35,-0.78 14.17,-0.66 14.00,-0.54 14.00,-0.54 14.00,-0.54 12.46,1.76 10.92,4.06 10.84,5.65 10.77,7.24 10.39,9.67 10.01,12.10 10.06,12.56 10.10,13.03 10.03,13.49 9.96,13.95 9.79,14.38 9.61,14.82 9.33,15.19 9.06,15.57 8.70,15.87 8.34,16.17 7.92,16.38 7.50,16.58 7.05,16.68 6.59,16.78 6.12,16.77 5.66,16.75 5.21,16.63 4.76,16.51 4.35,16.28 3.94,16.05 3.60,15.73 3.26,15.41 3.01,15.02 2.75,14.63 2.60,14.19 2.44,13.75 2.25,13.65 2.05,13.56 1.77,12.48 1.49,11.41 1.05,10.00 0.61,8.59 -0.12,7.07 -0.86,5.55 -0.99,3.15 -1.12,0.74 -1.19,0.60 -1.26,0.45 -1.30,0.29 -1.33,0.14 -1.33,-0.02 -1.33,-0.18 -1.29,-0.34 -1.25,-0.49 -1.17,-0.64 -1.09,-0.78 -0.98,-0.90 -0.87,-1.02 -0.74,-1.11 -0.60,-1.20 -0.45,-1.25 -0.30,-1.31 -0.13,-1.32 0.02,-1.34 0.18,-1.32 0.34,-1.30 0.49,-1.24 0.64,-1.18 0.77,-1.08 0.90,-0.99 1.01,-0.87 1.12,-0.74 1.12,-0.74 L 1.12,-0.74 Z"/></g><g transform="translate(376.0000305175781 200.66668701171875) rotate(0 4.999969482421875 2.3333282470703125)" stroke="none" fill="#000000"><path d="M 0.69,-1.16 Q 0.69,-1.16 2.00,-1.63 3.32,-2.10 4.45,-3.21 5.59,-4.33 6.21,-5.65 6.84,-6.98 7.20,-7.23 7.57,-7.49 7.98,-7.66 8.39,-7.82 8.84,-7.88 9.28,-7.94 9.72,-7.90 10.16,-7.85 10.58,-7.70 11.00,-7.55 11.37,-7.30 11.74,-7.05 12.04,-6.72 12.34,-6.39 12.55,-6.00 12.77,-5.61 12.88,-5.18 12.99,-4.75 13.00,-4.31 13.01,-3.86 12.91,-3.43 12.81,-2.99 12.61,-2.60 12.41,-2.20 12.12,-1.86 11.83,-1.52 9.84,-1.03 7.85,-0.53 6.09,0.92 4.33,2.39 3.82,4.16 3.32,5.93 6.38,6.66 9.44,7.39 9.65,7.41 9.86,7.42 10.06,7.51 10.25,7.59 10.41,7.74 10.56,7.88 10.67,8.07 10.77,8.25 10.81,8.46 10.85,8.67 10.82,8.88 10.79,9.09 10.69,9.28 10.60,9.47 10.45,9.62 10.30,9.77 10.10,9.86 9.91,9.95 9.70,9.98 9.49,10.01 9.28,9.97 9.08,9.93 8.89,9.82 8.71,9.71 8.57,9.56 8.43,9.40 8.34,9.20 8.26,9.01 8.24,8.79 8.23,8.58 8.28,8.38 8.33,8.17 8.45,7.99 8.56,7.81 8.73,7.68 8.90,7.55 9.10,7.48 9.30,7.40 9.51,7.40 9.72,7.40 9.92,7.46 10.13,7.52 10.30,7.65 10.47,7.77 10.59,7.95 10.72,8.12 10.78,8.32 10.84,8.53 10.83,8.74 10.82,8.95 10.75,9.15 10.68,9.35 10.54,9.51 10.41,9.68 10.23,9.79 10.05,9.91 9.84,9.96 9.63,10.01 9.63,10.01 9.63,10.01 7.13,11.31 4.62,12.62 2.10,12.09 -0.41,11.55 -1.77,9.91 -3.13,8.27 -3.41,6.47 -3.69,4.66 -3.20,2.77 -2.71,0.88 -1.53,-1.05 -0.35,-2.99 1.25,-4.30 2.86,-5.61 4.85,-6.29 6.84,-6.98 7.20,-7.23 7.57,-7.49 7.98,-7.66 8.39,-7.82 8.84,-7.88 9.28,-7.94 9.72,-7.90 10.16,-7.85 10.58,-7.70 11.00,-7.55 11.37,-7.30 11.74,-7.05 12.04,-6.72 12.34,-6.39 12.55,-6.00 12.77,-5.61 12.88,-5.18 12.99,-4.75 13.00,-4.31 13.01,-3.86 12.91,-3.43 12.81,-2.99 12.61,-2.60 12.41,-2.20 12.12,-1.86 11.83,-1.52 12.04,-1.24 12.26,-0.95 10.89,0.52 9.53,2.00 7.18,3.26 4.84,4.52 2.67,4.46 0.51,4.40 -0.09,2.78 -0.69,1.16 -0.82,1.06 -0.95,0.96 -1.05,0.83 -1.15,0.70 -1.22,0.55 -1.29,0.40 -1.32,0.24 -1.35,0.08 -1.34,-0.07 -1.33,-0.23 -1.28,-0.39 -1.23,-0.55 -1.15,-0.69 -1.06,-0.83 -0.95,-0.94 -0.83,-1.06 -0.69,-1.14 -0.55,-1.23 -0.40,-1.28 -0.24,-1.33 -0.08,-1.34 0.07,-1.35 0.23,-1.32 0.39,-1.29 0.54,-1.22 0.69,-1.16 0.69,-1.16 L 0.69,-1.16 Z"/></g><g transform="translate(325.3333435058594 239.33334350585938) rotate(0 7.66668701171875 11.333343505859375)" stroke="none" fill="#000000"><path d="M 1.35,-0.38 Q 1.35,-0.38 2.88,0.62 4.40,1.64 5.00,4.24 5.59,6.83 6.20,9.61 6.82,12.39 7.41,14.15 8.01,15.91 8.33,17.35 8.66,18.79 8.56,19.26 8.46,19.73 8.50,20.19 8.55,20.64 8.49,21.09 8.42,21.54 8.25,21.96 8.08,22.39 7.82,22.76 7.55,23.13 7.20,23.42 6.86,23.72 6.45,23.92 6.04,24.12 5.60,24.22 5.16,24.32 4.70,24.32 4.25,24.31 3.81,24.19 3.37,24.07 2.97,23.85 2.57,23.63 2.23,23.33 1.90,23.02 1.65,22.64 1.39,22.26 1.24,21.83 1.09,21.40 0.23,18.82 -0.61,16.24 -0.21,14.32 0.19,12.39 1.59,10.75 2.98,9.11 5.08,8.33 7.17,7.55 9.43,7.73 11.69,7.91 13.74,8.83 15.79,9.76 17.33,11.93 18.87,14.10 18.82,16.65 18.76,19.21 17.38,21.53 15.99,23.85 13.81,25.37 11.62,26.89 9.40,27.20 7.18,27.52 5.26,25.67 3.33,23.83 3.20,23.67 3.07,23.50 2.99,23.30 2.92,23.10 2.91,22.89 2.91,22.68 2.97,22.47 3.03,22.27 3.16,22.10 3.28,21.93 3.45,21.80 3.63,21.68 3.83,21.62 4.03,21.55 4.25,21.56 4.46,21.57 4.66,21.64 4.86,21.71 5.02,21.85 5.19,21.98 5.30,22.16 5.42,22.34 5.47,22.54 5.52,22.75 5.50,22.96 5.48,23.17 5.40,23.37 5.32,23.56 5.17,23.72 5.03,23.88 4.85,23.98 4.66,24.09 4.45,24.13 4.24,24.17 4.03,24.14 3.82,24.11 3.63,24.02 3.44,23.92 3.29,23.77 3.14,23.62 3.05,23.43 2.95,23.24 2.93,23.03 2.90,22.82 2.94,22.61 2.98,22.40 3.08,22.22 3.19,22.03 3.35,21.89 3.50,21.75 3.70,21.66 3.89,21.58 4.11,21.56 4.32,21.55 4.52,21.60 4.73,21.65 4.91,21.76 5.09,21.88 5.09,21.88 5.09,21.88 6.43,21.26 7.77,20.63 8.78,20.04 9.80,19.44 10.95,18.16 12.11,16.88 11.28,16.14 10.46,15.40 8.69,15.11 6.93,14.81 6.81,16.10 6.69,17.40 7.57,18.57 8.46,19.73 8.50,20.19 8.55,20.64 8.49,21.09 8.42,21.54 8.25,21.96 8.08,22.39 7.82,22.76 7.55,23.13 7.21,23.42 6.86,23.72 6.45,23.92 6.04,24.12 5.60,24.22 5.16,24.32 4.70,24.32 4.25,24.31 3.81,24.19 3.37,24.07 2.97,23.85 2.57,23.63 2.23,23.33 1.90,23.02 1.65,22.64 1.40,22.26 1.24,21.83 1.09,21.40 0.92,19.86 0.74,18.31 0.05,16.18 -0.64,14.04 -1.25,11.26 -1.87,8.47 -2.37,6.10 -2.87,3.72 -2.11,2.05 -1.35,0.38 -1.38,0.22 -1.41,0.05 -1.39,-0.11 -1.38,-0.28 -1.32,-0.44 -1.27,-0.61 -1.18,-0.75 -1.09,-0.89 -0.96,-1.01 -0.84,-1.13 -0.69,-1.21 -0.54,-1.30 -0.38,-1.34 -0.22,-1.39 -0.05,-1.40 0.11,-1.40 0.28,-1.37 0.45,-1.33 0.60,-1.26 0.75,-1.19 0.89,-1.08 1.02,-0.97 1.12,-0.83 1.22,-0.70 1.29,-0.54 1.35,-0.38 1.35,-0.38 L 1.35,-0.38 Z"/></g><g transform="translate(346.6666564941406 254) rotate(0 4.333343505859375 5.333343505859375)" stroke="none" fill="#000000"><path d="M 1.16,-0.83 Q 1.16,-0.83 2.89,-0.01 4.61,0.80 5.59,2.86 6.56,4.93 6.96,6.70 7.36,8.48 7.44,9.86 7.52,11.23 7.43,11.23 7.34,11.23 7.33,11.70 7.33,12.16 7.21,12.60 7.09,13.05 6.87,13.45 6.65,13.85 6.34,14.19 6.03,14.53 5.65,14.79 5.27,15.05 4.83,15.20 4.40,15.36 3.94,15.41 3.49,15.46 3.03,15.39 2.57,15.33 2.15,15.16 1.72,14.99 1.34,14.72 0.97,14.46 0.67,14.11 0.37,13.76 0.16,13.35 -0.04,12.94 -0.14,12.49 -0.24,12.04 -0.34,9.10 -0.44,6.16 0.01,4.14 0.47,2.12 1.44,0.58 2.41,-0.95 4.84,-1.78 7.27,-2.61 7.46,-2.70 7.65,-2.80 7.86,-2.83 8.07,-2.86 8.28,-2.82 8.48,-2.78 8.67,-2.67 8.86,-2.57 9.00,-2.41 9.14,-2.25 9.22,-2.06 9.31,-1.86 9.33,-1.65 9.34,-1.44 9.29,-1.23 9.24,-1.03 9.13,-0.85 9.02,-0.67 8.85,-0.53 8.68,-0.40 8.49,-0.33 8.29,-0.25 8.07,-0.25 7.86,-0.24 7.66,-0.30 7.45,-0.36 7.28,-0.49 7.11,-0.61 6.98,-0.78 6.86,-0.96 6.80,-1.16 6.73,-1.36 6.74,-1.57 6.75,-1.79 6.82,-1.99 6.89,-2.19 7.02,-2.35 7.16,-2.52 7.33,-2.63 7.51,-2.75 7.72,-2.80 7.93,-2.85 8.14,-2.83 8.35,-2.82 8.54,-2.73 8.74,-2.65 8.90,-2.51 9.06,-2.37 9.16,-2.18 9.27,-2.00 9.31,-1.79 9.35,-1.58 9.32,-1.37 9.29,-1.16 9.20,-0.97 9.10,-0.78 8.95,-0.63 8.80,-0.48 8.80,-0.48 8.80,-0.48 8.28,1.69 7.75,3.86 7.47,4.98 7.18,6.11 7.26,8.67 7.34,11.23 7.33,11.69 7.33,12.15 7.21,12.60 7.09,13.05 6.87,13.45 6.65,13.85 6.34,14.19 6.03,14.53 5.65,14.79 5.27,15.05 4.83,15.20 4.40,15.36 3.94,15.41 3.49,15.46 3.03,15.39 2.57,15.33 2.15,15.16 1.72,14.99 1.34,14.73 0.97,14.46 0.67,14.11 0.37,13.76 0.16,13.35 -0.04,12.94 -0.14,12.49 -0.24,12.04 -0.18,10.90 -0.11,9.75 -0.22,8.53 -0.33,7.31 -0.56,5.94 -0.78,4.56 -0.97,2.69 -1.16,0.83 -1.24,0.68 -1.33,0.52 -1.37,0.36 -1.41,0.19 -1.42,0.02 -1.42,-0.14 -1.38,-0.31 -1.34,-0.48 -1.26,-0.64 -1.19,-0.79 -1.07,-0.92 -0.96,-1.05 -0.82,-1.15 -0.68,-1.25 -0.52,-1.32 -0.36,-1.38 -0.19,-1.40 -0.02,-1.43 0.14,-1.41 0.32,-1.39 0.48,-1.33 0.64,-1.27 0.78,-1.18 0.93,-1.08 1.04,-0.95 1.16,-0.83 1.16,-0.83 L 1.16,-0.83 Z"/></g><g transform="translate(370.0000305175781 247.33334350585938) rotate(0 -1.66668701171875 7.333343505859375)" stroke="none" fill="#000000"><path d="M 0,1.59 Q 0,1.59 -1.67,2.59 -3.34,3.60 -3.55,5.85 -3.77,8.11 -3.02,9.70 -2.26,11.29 -2.70,9.55 -3.14,7.81 -3.52,6.23 -3.91,4.65 -3.90,4.30 -3.89,3.94 -3.80,3.60 -3.71,3.26 -3.54,2.94 -3.36,2.63 -3.12,2.37 -2.88,2.11 -2.58,1.91 -2.29,1.72 -1.95,1.60 -1.62,1.48 -1.26,1.44 -0.91,1.41 -0.56,1.46 -0.20,1.51 0.12,1.64 0.45,1.77 0.73,1.98 1.02,2.19 1.25,2.46 1.48,2.73 1.64,3.05 1.80,3.37 1.88,3.72 1.96,4.06 3.64,7.40 5.32,10.73 5.43,10.92 5.54,11.10 5.58,11.31 5.62,11.52 5.60,11.73 5.57,11.94 5.48,12.13 5.39,12.32 5.24,12.47 5.10,12.63 4.91,12.73 4.72,12.82 4.51,12.86 4.30,12.89 4.09,12.85 3.88,12.82 3.69,12.71 3.51,12.61 3.36,12.46 3.22,12.30 3.13,12.11 3.04,11.92 3.02,11.70 3.00,11.49 3.05,11.29 3.10,11.08 3.21,10.90 3.32,10.72 3.48,10.58 3.64,10.44 3.84,10.37 4.04,10.29 4.25,10.28 4.47,10.27 4.67,10.33 4.87,10.39 5.05,10.51 5.22,10.63 5.35,10.80 5.48,10.97 5.54,11.17 5.61,11.37 5.61,11.59 5.61,11.80 5.54,12.00 5.47,12.20 5.34,12.37 5.21,12.54 5.03,12.65 4.85,12.77 4.65,12.83 4.44,12.88 4.23,12.87 4.02,12.86 3.82,12.77 3.62,12.69 3.46,12.56 3.30,12.42 3.30,12.42 3.30,12.42 1.00,10.85 -1.30,9.29 -2.15,7.95 -3.01,6.62 -3.46,5.64 -3.91,4.65 -3.90,4.30 -3.89,3.94 -3.80,3.60 -3.71,3.26 -3.54,2.94 -3.36,2.63 -3.12,2.37 -2.88,2.11 -2.58,1.91 -2.29,1.72 -1.95,1.60 -1.62,1.48 -1.26,1.44 -0.91,1.41 -0.56,1.46 -0.20,1.51 0.12,1.64 0.45,1.77 0.73,1.98 1.02,2.19 1.25,2.46 1.48,2.73 1.64,3.05 1.80,3.37 1.88,3.72 1.96,4.06 2.16,4.76 2.36,5.45 2.50,6.95 2.64,8.46 2.52,10.26 2.40,12.05 1.71,13.87 1.02,15.68 -0.18,16.62 -1.40,17.56 -3.17,17.62 -4.94,17.67 -6.62,16.63 -8.30,15.58 -9.49,13.59 -10.69,11.59 -10.97,9.31 -11.24,7.03 -10.69,4.29 -10.14,1.56 -8.61,-0.39 -7.07,-2.36 -5.31,-2.98 -3.55,-3.60 -1.77,-2.59 0,-1.59 0.19,-1.57 0.38,-1.54 0.56,-1.48 0.74,-1.41 0.90,-1.30 1.05,-1.19 1.18,-1.05 1.31,-0.90 1.40,-0.73 1.49,-0.56 1.53,-0.37 1.58,-0.19 1.58,0.00 1.58,0.19 1.53,0.37 1.49,0.56 1.40,0.73 1.31,0.90 1.18,1.05 1.05,1.19 0.90,1.30 0.74,1.41 0.56,1.48 0.38,1.54 0.19,1.57 -0.00,1.59 -0.00,1.59 L 0,1.59 Z"/></g><g transform="translate(379.3333435058594 250) rotate(0 8.333343505859375 7.333343505859375)" stroke="none" fill="#000000"><path d="M 1.36,-0.68 Q 1.36,-0.68 2.83,0.02 4.29,0.72 4.90,2.17 5.51,3.62 5.83,5.90 6.16,8.18 6.41,9.61 6.67,11.03 6.97,12.08 7.27,13.13 7.30,13.59 7.32,14.05 7.23,14.49 7.15,14.94 6.95,15.36 6.76,15.77 6.48,16.13 6.19,16.48 5.83,16.76 5.47,17.04 5.05,17.22 4.63,17.41 4.18,17.48 3.73,17.56 3.28,17.53 2.82,17.50 2.39,17.36 1.95,17.22 1.57,16.98 1.18,16.74 0.86,16.41 0.54,16.08 0.31,15.69 0.07,15.30 -0.05,14.86 -0.18,14.42 0.37,13.00 0.93,11.58 0.95,9.20 0.97,6.82 1.28,5.05 1.58,3.28 1.94,1.98 2.30,0.68 3.03,-0.64 3.77,-1.97 4.89,-2.89 6.01,-3.81 7.68,-4.07 9.35,-4.33 11.10,-3.54 12.84,-2.75 13.66,-1.25 14.48,0.24 14.84,1.46 15.20,2.68 15.40,4.43 15.59,6.18 16.31,8.31 17.04,10.44 17.06,12.52 17.08,14.61 17.21,14.77 17.35,14.94 17.42,15.14 17.50,15.34 17.50,15.55 17.51,15.76 17.45,15.97 17.39,16.17 17.26,16.34 17.14,16.51 16.97,16.64 16.79,16.76 16.59,16.83 16.39,16.89 16.18,16.89 15.96,16.88 15.76,16.81 15.56,16.74 15.40,16.60 15.23,16.47 15.12,16.29 15.00,16.11 14.95,15.91 14.90,15.70 14.91,15.49 14.93,15.28 15.01,15.08 15.10,14.89 15.24,14.73 15.38,14.57 15.56,14.46 15.75,14.36 15.96,14.32 16.17,14.28 16.38,14.30 16.59,14.33 16.78,14.43 16.97,14.52 17.12,14.67 17.27,14.82 17.37,15.01 17.46,15.20 17.49,15.41 17.52,15.62 17.48,15.83 17.44,16.04 17.34,16.22 17.23,16.41 17.08,16.55 16.92,16.69 16.72,16.78 16.53,16.86 16.32,16.88 16.10,16.90 15.90,16.85 15.69,16.80 15.51,16.68 15.33,16.57 15.33,16.57 15.33,16.57 12.58,14.68 9.83,12.79 9.44,11.63 9.05,10.46 8.53,8.69 8.01,6.92 7.68,4.83 7.35,2.75 8.36,2.29 9.36,1.83 8.80,3.11 8.24,4.40 7.98,6.03 7.71,7.66 7.56,9.26 7.41,10.87 7.04,13.16 6.67,15.46 6.97,14.30 7.27,13.13 7.30,13.59 7.32,14.05 7.23,14.49 7.15,14.94 6.95,15.36 6.76,15.77 6.48,16.13 6.19,16.48 5.83,16.76 5.47,17.04 5.05,17.22 4.63,17.41 4.18,17.48 3.73,17.56 3.28,17.53 2.82,17.50 2.39,17.36 1.95,17.22 1.57,16.98 1.18,16.74 0.86,16.41 0.54,16.08 0.31,15.69 0.07,15.30 -0.05,14.86 -0.18,14.42 -0.49,13.38 -0.81,12.33 -1.09,10.63 -1.37,8.93 -1.42,7.46 -1.46,5.99 -1.73,4.93 -1.99,3.87 -1.68,2.27 -1.36,0.68 -1.43,0.51 -1.49,0.33 -1.51,0.15 -1.53,-0.03 -1.50,-0.21 -1.47,-0.39 -1.40,-0.56 -1.34,-0.73 -1.23,-0.88 -1.12,-1.03 -0.98,-1.15 -0.84,-1.27 -0.67,-1.35 -0.51,-1.44 -0.33,-1.48 -0.15,-1.52 0.02,-1.51 0.21,-1.51 0.39,-1.46 0.57,-1.42 0.73,-1.33 0.89,-1.24 1.02,-1.11 1.16,-0.99 1.26,-0.83 1.36,-0.68 1.36,-0.68 L 1.36,-0.68 Z"/></g><g transform="translate(416.6666564941406 251.33334350585938) rotate(0 -2.33331298828125 8.666656494140625)" stroke="none" fill="#000000"><path d="M 0.21,1.49 Q 0.21,1.49 -0.94,2.79 -2.09,4.09 -2.75,5.18 -3.41,6.28 -4.27,7.81 -5.12,9.34 -5.33,10.85 -5.53,12.36 -5.36,13.56 -5.19,14.76 -3.20,14.09 -1.21,13.42 0.14,12.62 1.50,11.82 2.69,10.72 3.88,9.63 4.05,9.49 4.22,9.36 4.42,9.29 4.62,9.22 4.83,9.22 5.04,9.22 5.25,9.28 5.45,9.35 5.62,9.47 5.79,9.60 5.91,9.77 6.03,9.95 6.09,10.15 6.15,10.35 6.14,10.57 6.14,10.78 6.06,10.98 5.98,11.18 5.85,11.34 5.71,11.50 5.53,11.62 5.35,11.73 5.15,11.78 4.94,11.83 4.73,11.81 4.52,11.79 4.32,11.70 4.13,11.61 3.97,11.47 3.82,11.32 3.71,11.14 3.61,10.95 3.57,10.74 3.54,10.53 3.57,10.32 3.60,10.11 3.70,9.92 3.79,9.74 3.94,9.59 4.10,9.44 4.29,9.35 4.48,9.25 4.69,9.23 4.90,9.20 5.11,9.25 5.32,9.29 5.50,9.40 5.69,9.50 5.83,9.66 5.97,9.82 6.05,10.02 6.13,10.22 6.14,10.43 6.16,10.64 6.10,10.84 6.05,11.05 5.93,11.23 5.82,11.41 5.82,11.40 5.82,11.40 4.83,12.67 3.85,13.93 2.53,16.13 1.21,18.33 -1.02,19.72 -3.26,21.12 -5.79,21.11 -8.33,21.11 -10.14,19.69 -11.95,18.27 -12.60,16.45 -13.25,14.63 -13.23,12.73 -13.21,10.83 -12.57,8.20 -11.93,5.56 -10.81,3.64 -9.68,1.73 -8.05,-0.12 -6.42,-1.98 -4.84,-2.65 -3.26,-3.32 -1.74,-2.41 -0.21,-1.49 -0.03,-1.50 0.15,-1.50 0.32,-1.46 0.50,-1.42 0.66,-1.34 0.83,-1.26 0.97,-1.14 1.11,-1.02 1.21,-0.87 1.32,-0.73 1.39,-0.56 1.46,-0.39 1.48,-0.21 1.51,-0.03 1.49,0.14 1.47,0.33 1.41,0.50 1.35,0.67 1.25,0.82 1.15,0.97 1.01,1.10 0.88,1.22 0.72,1.31 0.56,1.40 0.38,1.44 0.21,1.49 0.21,1.49 L 0.21,1.49 Z"/></g><g transform="translate(423.3333435058594 238.66668701171875) rotate(0 12.333343505859375 14.666656494140625)" stroke="none" fill="#000000"><path d="M 1.20,-0.54 Q 1.20,-0.54 3.31,1.04 5.42,2.64 6.18,6.05 6.94,9.46 7.23,12.27 7.53,15.08 7.46,17.98 7.39,20.87 7.36,23.12 7.34,25.36 7.32,26.88 7.31,28.40 7.49,29.26 7.67,30.11 7.61,30.59 7.54,31.06 7.37,31.50 7.20,31.95 6.92,32.33 6.65,32.72 6.29,33.04 5.93,33.35 5.51,33.56 5.08,33.78 4.62,33.89 4.16,34.00 3.68,34.00 3.21,33.99 2.75,33.87 2.29,33.75 1.87,33.53 1.45,33.30 1.09,32.98 0.74,32.66 0.47,32.27 0.21,31.88 0.04,31.43 -0.11,30.98 -0.16,30.51 -0.22,30.04 1.08,28.40 2.39,26.76 3.29,22.98 4.20,19.19 5.03,16.91 5.86,14.64 7.08,12.88 8.30,11.12 10.58,10.71 12.87,10.29 14.28,11.23 15.69,12.16 16.44,14.21 17.18,16.26 17.41,18.54 17.64,20.81 18.00,22.07 18.35,23.32 19.71,24.65 21.06,25.97 22.92,27.29 24.78,28.62 24.96,28.73 25.14,28.85 25.27,29.01 25.41,29.18 25.48,29.38 25.55,29.58 25.56,29.79 25.56,30.00 25.50,30.21 25.44,30.41 25.31,30.58 25.19,30.75 25.01,30.88 24.84,31.00 24.64,31.06 24.44,31.12 24.22,31.12 24.01,31.11 23.81,31.04 23.61,30.96 23.45,30.83 23.28,30.70 23.17,30.52 23.05,30.34 23.00,30.13 22.95,29.92 22.97,29.71 22.99,29.50 23.07,29.31 23.16,29.11 23.30,28.95 23.44,28.80 23.63,28.69 23.81,28.59 24.02,28.55 24.23,28.51 24.44,28.54 24.65,28.57 24.84,28.66 25.03,28.76 25.18,28.91 25.33,29.06 25.42,29.25 25.52,29.44 25.55,29.65 25.57,29.86 25.53,30.07 25.49,30.28 25.39,30.46 25.28,30.65 25.12,30.79 24.97,30.93 24.77,31.01 24.57,31.10 24.36,31.11 24.15,31.13 23.94,31.08 23.74,31.03 23.74,31.03 23.74,31.03 21.69,30.26 19.64,29.50 17.69,29.25 15.75,29.00 13.96,28.18 12.17,27.36 11.34,25.89 10.50,24.42 10.18,22.95 9.87,21.48 10.26,19.07 10.65,16.66 11.85,16.97 13.05,17.27 12.26,19.46 11.46,21.65 10.46,24.67 9.46,27.70 8.18,30.11 6.90,32.53 7.29,31.32 7.67,30.11 7.61,30.59 7.54,31.06 7.37,31.50 7.20,31.94 6.92,32.33 6.65,32.72 6.29,33.03 5.93,33.35 5.51,33.56 5.09,33.78 4.62,33.89 4.16,34.00 3.68,34.00 3.21,33.99 2.75,33.87 2.29,33.75 1.87,33.53 1.45,33.30 1.09,32.98 0.74,32.67 0.47,32.27 0.21,31.88 0.04,31.43 -0.11,30.98 -0.16,30.51 -0.22,30.04 -0.41,29.20 -0.60,28.37 -0.58,26.80 -0.56,25.24 -0.52,22.93 -0.48,20.63 -0.38,18.23 -0.28,15.83 -0.50,13.41 -0.71,10.98 -1.15,8.38 -1.59,5.78 -1.39,3.16 -1.20,0.54 -1.25,0.39 -1.29,0.24 -1.30,0.08 -1.31,-0.07 -1.29,-0.23 -1.26,-0.38 -1.19,-0.53 -1.13,-0.67 -1.03,-0.80 -0.93,-0.93 -0.81,-1.02 -0.68,-1.12 -0.54,-1.19 -0.39,-1.25 -0.24,-1.28 -0.08,-1.31 0.07,-1.30 0.23,-1.29 0.38,-1.25 0.53,-1.20 0.67,-1.12 0.81,-1.04 0.92,-0.93 1.03,-0.81 1.11,-0.68 1.20,-0.54 1.20,-0.54 L 1.20,-0.54 Z"/></g><g transform="translate(450.6666564941406 265.3333435058594) rotate(0 4.66668701171875 -1.6666717529296875)" stroke="none" fill="#000000"><path d="M -0.96,-1.12 Q -0.96,-1.12 -0.11,-2.84 0.74,-4.56 1.80,-5.61 2.86,-6.66 3.01,-5.60 3.17,-4.53 2.35,-2.53 1.53,-0.52 1.27,0.71 1.02,1.95 3.95,1.15 6.88,0.35 9.10,0.05 11.32,-0.24 11.53,-0.28 11.74,-0.32 11.95,-0.29 12.16,-0.26 12.35,-0.16 12.53,-0.07 12.68,0.08 12.83,0.23 12.92,0.42 13.02,0.61 13.04,0.82 13.07,1.03 13.03,1.24 12.98,1.45 12.88,1.63 12.77,1.82 12.61,1.96 12.45,2.10 12.26,2.18 12.06,2.26 11.85,2.28 11.64,2.29 11.43,2.24 11.22,2.18 11.05,2.07 10.87,1.95 10.74,1.78 10.61,1.62 10.54,1.42 10.46,1.22 10.46,1.00 10.46,0.79 10.52,0.59 10.59,0.39 10.71,0.22 10.84,0.04 11.01,-0.07 11.19,-0.19 11.39,-0.25 11.59,-0.31 11.81,-0.30 12.02,-0.29 12.22,-0.22 12.42,-0.14 12.58,-0.01 12.74,0.12 12.86,0.30 12.97,0.48 13.02,0.68 13.07,0.89 13.05,1.10 13.03,1.31 12.94,1.51 12.86,1.70 12.71,1.86 12.57,2.02 12.38,2.12 12.20,2.22 12.20,2.22 12.20,2.22 10.31,3.37 8.42,4.53 6.40,5.80 4.38,7.07 1.94,7.68 -0.50,8.28 -2.53,7.25 -4.56,6.21 -5.53,3.49 -6.50,0.77 -5.95,-1.54 -5.40,-3.86 -4.14,-6.23 -2.87,-8.60 -1.33,-10.00 0.21,-11.39 2.43,-11.83 4.65,-12.28 6.51,-11.14 8.36,-10.01 8.75,-7.92 9.15,-5.82 8.11,-4.00 7.08,-2.18 5.85,-1.11 4.62,-0.03 2.79,0.54 0.96,1.12 0.81,1.21 0.66,1.31 0.49,1.37 0.32,1.43 0.15,1.45 -0.02,1.47 -0.20,1.45 -0.37,1.42 -0.54,1.36 -0.70,1.29 -0.85,1.19 -0.99,1.08 -1.11,0.95 -1.22,0.81 -1.30,0.65 -1.38,0.50 -1.42,0.32 -1.46,0.15 -1.46,-0.02 -1.46,-0.20 -1.41,-0.37 -1.37,-0.54 -1.28,-0.70 -1.20,-0.85 -1.08,-0.98 -0.96,-1.12 -0.96,-1.12 L -0.96,-1.12 Z"/></g><g transform="translate(470.6666564941406 256) rotate(0 -3.666656494140625 10.000015258789062)" stroke="none" fill="#000000"><path d="M 0.21,1.47 Q 0.21,1.47 -0.87,2.56 -1.96,3.65 -1.02,2.94 -0.09,2.23 1.02,3.69 2.13,5.16 2.86,5.98 3.58,6.80 4.41,8.42 5.25,10.03 5.63,11.87 6.01,13.71 5.42,15.99 4.82,18.27 2.93,20.14 1.04,22.01 -1.14,22.77 -3.33,23.53 -6.56,22.13 -9.80,20.72 -9.99,20.64 -10.19,20.56 -10.35,20.42 -10.51,20.28 -10.62,20.10 -10.72,19.91 -10.77,19.71 -10.81,19.50 -10.78,19.29 -10.76,19.08 -10.66,18.88 -10.57,18.69 -10.42,18.54 -10.28,18.39 -10.09,18.29 -9.90,18.20 -9.69,18.16 -9.48,18.13 -9.27,18.17 -9.06,18.21 -8.87,18.31 -8.69,18.41 -8.54,18.57 -8.40,18.72 -8.31,18.92 -8.23,19.11 -8.21,19.32 -8.19,19.53 -8.23,19.74 -8.28,19.95 -8.39,20.13 -8.51,20.31 -8.67,20.44 -8.83,20.58 -9.03,20.66 -9.23,20.73 -9.44,20.74 -9.66,20.75 -9.86,20.69 -10.06,20.63 -10.24,20.51 -10.41,20.39 -10.54,20.22 -10.66,20.04 -10.73,19.84 -10.79,19.64 -10.79,19.43 -10.79,19.21 -10.72,19.01 -10.65,18.81 -10.52,18.65 -10.39,18.48 -10.21,18.36 -10.03,18.25 -9.82,18.19 -9.62,18.14 -9.41,18.15 -9.20,18.17 -9.20,18.17 -9.20,18.17 -6.45,17.07 -3.71,15.97 -2.54,15.26 -1.37,14.54 -1.72,13.12 -2.07,11.71 -3.61,9.82 -5.15,7.94 -5.89,6.97 -6.62,6.00 -7.12,4.16 -7.62,2.32 -6.91,0.51 -6.21,-1.29 -4.80,-2.09 -3.40,-2.89 -1.80,-2.18 -0.21,-1.47 -0.03,-1.48 0.14,-1.48 0.32,-1.44 0.50,-1.40 0.66,-1.32 0.82,-1.24 0.96,-1.13 1.09,-1.01 1.20,-0.86 1.30,-0.72 1.37,-0.55 1.44,-0.38 1.46,-0.20 1.49,-0.03 1.47,0.14 1.45,0.32 1.39,0.49 1.33,0.66 1.23,0.81 1.13,0.96 1.00,1.08 0.87,1.21 0.71,1.29 0.55,1.38 0.38,1.43 0.21,1.47 0.21,1.47 L 0.21,1.47 Z"/></g><g transform="translate(13.333343505859375 32) rotate(0 2.9999847412109375 11.666671752929688)" stroke="none" fill="#000000"><path d="M -1.04,1.04 Q -1.04,1.04 -2.09,0.94 -3.15,0.85 -3.36,0.58 -3.57,0.31 -3.71,0.00 -3.85,-0.30 -3.91,-0.64 -3.97,-0.97 -3.95,-1.31 -3.93,-1.66 -3.83,-1.98 -3.73,-2.31 -3.55,-2.60 -3.37,-2.89 -3.13,-3.13 -2.89,-3.37 -2.60,-3.55 -2.31,-3.73 -1.98,-3.83 -1.66,-3.93 -1.31,-3.95 -0.97,-3.97 -0.64,-3.91 -0.30,-3.85 0.00,-3.71 0.31,-3.57 0.58,-3.36 0.85,-3.15 1.37,-1.16 1.90,0.82 2.56,3.29 3.21,5.76 4.06,9.84 4.92,13.92 5.65,17.58 6.38,21.23 6.87,23.96 7.37,26.69 7.72,28.34 8.08,29.99 8.21,30.93 8.34,31.86 8.39,32.26 8.43,32.67 8.38,33.07 8.33,33.47 8.18,33.85 8.03,34.22 7.80,34.55 7.56,34.88 7.26,35.15 6.95,35.41 6.59,35.60 6.23,35.78 5.84,35.87 5.44,35.97 5.04,35.96 4.63,35.96 4.24,35.86 3.85,35.76 3.49,35.56 3.13,35.37 2.83,35.10 2.53,34.83 2.31,34.49 2.08,34.16 1.94,33.78 1.80,33.40 1.38,31.38 0.95,29.37 0.09,25.67 -0.76,21.98 -1.95,17.97 -3.14,13.95 -3.92,10.01 -4.71,6.08 -4.72,2.46 -4.73,-1.14 -3.85,-4.00 -2.97,-6.86 -0.76,-8.89 1.43,-10.92 4.07,-10.98 6.71,-11.05 8.50,-9.16 10.29,-7.26 10.37,-4.03 10.45,-0.79 9.30,2.38 8.15,5.56 5.89,8.03 3.62,10.49 1.64,11.99 -0.33,13.50 -0.50,13.62 -0.67,13.75 -0.88,13.82 -1.08,13.88 -1.29,13.88 -1.50,13.88 -1.70,13.81 -1.90,13.74 -2.07,13.61 -2.24,13.48 -2.36,13.30 -2.48,13.13 -2.53,12.92 -2.59,12.72 -2.57,12.51 -2.56,12.29 -2.48,12.10 -2.40,11.90 -2.26,11.74 -2.12,11.58 -1.94,11.47 -1.76,11.36 -1.55,11.32 -1.34,11.27 -1.13,11.30 -0.92,11.32 -0.73,11.41 -0.53,11.50 -0.38,11.65 -0.23,11.80 -0.13,11.99 -0.03,12.18 -0.00,12.39 0.02,12.60 -0.00,12.81 -0.04,13.01 -0.14,13.20 -0.24,13.39 -0.40,13.53 -0.55,13.68 -0.75,13.77 -0.94,13.85 -1.15,13.87 -1.36,13.90 -1.57,13.85 -1.78,13.80 -1.96,13.69 -2.14,13.58 -2.27,13.42 -2.41,13.25 -2.49,13.06 -2.57,12.86 -2.57,12.65 -2.58,12.43 -2.53,12.23 -2.47,12.02 -2.35,11.85 -2.23,11.67 -2.23,11.67 -2.23,11.67 -0.97,9.81 0.28,7.94 1.57,5.74 2.85,3.54 3.74,1.16 4.63,-1.20 4.44,-3.74 4.25,-6.28 3.09,-5.52 1.92,-4.75 1.20,-2.85 0.47,-0.94 0.29,2.14 0.10,5.22 0.71,8.93 1.31,12.65 2.49,16.71 3.68,20.77 4.79,24.36 5.90,27.95 6.11,29.07 6.32,30.19 7.33,31.03 8.34,31.86 8.39,32.26 8.43,32.67 8.38,33.07 8.33,33.47 8.18,33.85 8.03,34.22 7.80,34.55 7.56,34.88 7.26,35.15 6.95,35.41 6.59,35.60 6.23,35.78 5.84,35.87 5.44,35.97 5.04,35.96 4.63,35.96 4.24,35.86 3.85,35.76 3.49,35.56 3.13,35.37 2.83,35.10 2.53,34.83 2.31,34.49 2.08,34.16 1.94,33.78 1.80,33.40 1.59,32.48 1.38,31.56 0.93,29.77 0.48,27.97 -0.02,25.29 -0.53,22.61 -1.25,18.95 -1.98,15.29 -2.74,11.17 -3.51,7.06 -3.33,3.95 -3.15,0.85 -3.36,0.58 -3.57,0.31 -3.71,0.00 -3.85,-0.30 -3.91,-0.64 -3.97,-0.97 -3.95,-1.31 -3.93,-1.66 -3.83,-1.98 -3.73,-2.31 -3.55,-2.60 -3.37,-2.89 -3.13,-3.13 -2.89,-3.37 -2.60,-3.55 -2.31,-3.73 -1.98,-3.83 -1.66,-3.93 -1.31,-3.95 -0.97,-3.97 -0.64,-3.91 -0.30,-3.85 0.00,-3.71 0.31,-3.57 0.58,-3.36 0.85,-3.15 0.94,-2.09 1.04,-1.04 1.15,-0.90 1.26,-0.76 1.33,-0.60 1.41,-0.44 1.44,-0.26 1.47,-0.08 1.46,0.08 1.45,0.26 1.40,0.43 1.34,0.60 1.25,0.75 1.16,0.91 1.03,1.03 0.91,1.16 0.75,1.25 0.60,1.34 0.43,1.40 0.26,1.45 0.08,1.46 -0.08,1.47 -0.26,1.44 -0.44,1.41 -0.60,1.33 -0.76,1.26 -0.90,1.15 -1.04,1.04 -1.04,1.04 L -1.04,1.04 Z"/></g><g transform="translate(44.000030517578125 32) rotate(0 -3.333343505859375 8.000007629394531)" stroke="none" fill="#000000"><path d="M -0.12,1.49 Q -0.12,1.49 -2.42,1.84 -4.72,2.20 -5.98,2.80 -7.25,3.40 -7.83,4.71 -8.41,6.03 -8.33,7.67 -8.25,9.32 -7.72,10.58 -7.20,11.84 -5.91,12.46 -4.62,13.07 -3.34,12.11 -2.05,11.15 -1.56,10.07 -1.06,8.98 -1.06,7.51 -1.06,6.05 -1.19,4.47 -1.32,2.90 -1.88,2.04 -2.44,1.19 -2.52,0.85 -2.61,0.51 -2.61,0.16 -2.61,-0.19 -2.53,-0.53 -2.44,-0.87 -2.28,-1.18 -2.12,-1.49 -1.89,-1.75 -1.65,-2.01 -1.37,-2.21 -1.08,-2.41 -0.75,-2.54 -0.42,-2.66 -0.07,-2.71 0.26,-2.75 0.61,-2.71 0.96,-2.67 1.29,-2.54 1.62,-2.42 1.91,-2.22 2.20,-2.02 2.43,-1.76 2.66,-1.50 2.83,-1.19 2.99,-0.88 3.77,1.64 4.55,4.17 5.05,5.72 5.54,7.27 6.09,8.93 6.63,10.59 6.72,10.78 6.81,10.98 6.83,11.19 6.85,11.40 6.81,11.61 6.76,11.81 6.65,11.99 6.54,12.18 6.38,12.31 6.22,12.45 6.02,12.53 5.82,12.61 5.61,12.62 5.40,12.63 5.19,12.57 4.99,12.51 4.81,12.39 4.64,12.27 4.51,12.11 4.38,11.94 4.31,11.73 4.25,11.53 4.25,11.32 4.25,11.11 4.32,10.91 4.38,10.71 4.51,10.54 4.64,10.37 4.82,10.25 4.99,10.13 5.20,10.07 5.40,10.02 5.62,10.03 5.83,10.04 6.03,10.12 6.22,10.20 6.38,10.34 6.55,10.48 6.65,10.66 6.76,10.84 6.81,11.05 6.85,11.26 6.83,11.47 6.81,11.68 6.72,11.87 6.63,12.06 6.48,12.22 6.33,12.37 6.15,12.47 5.96,12.57 5.75,12.60 5.54,12.64 5.33,12.60 5.12,12.57 4.93,12.47 4.74,12.37 4.60,12.21 4.45,12.06 4.45,12.06 4.45,12.06 2.95,10.67 1.44,9.29 0.35,7.61 -0.73,5.94 -1.59,3.56 -2.44,1.19 -2.52,0.85 -2.61,0.51 -2.61,0.16 -2.61,-0.18 -2.53,-0.53 -2.44,-0.87 -2.28,-1.18 -2.12,-1.49 -1.89,-1.75 -1.65,-2.01 -1.37,-2.21 -1.08,-2.41 -0.75,-2.54 -0.42,-2.66 -0.07,-2.71 0.26,-2.75 0.61,-2.71 0.96,-2.67 1.29,-2.54 1.62,-2.42 1.91,-2.22 2.20,-2.02 2.43,-1.76 2.66,-1.50 2.83,-1.19 2.99,-0.88 3.02,-0.94 3.05,-1.01 3.71,0.70 4.37,2.42 4.50,4.44 4.63,6.46 4.33,8.96 4.04,11.46 2.94,13.38 1.84,15.31 -0.32,16.87 -2.50,18.44 -4.99,18.23 -7.47,18.02 -9.85,16.21 -12.23,14.41 -13.13,11.80 -14.03,9.18 -13.69,6.21 -13.35,3.24 -11.51,0.90 -9.68,-1.42 -7.08,-2.19 -4.47,-2.96 -2.17,-2.23 0.12,-1.49 0.30,-1.45 0.47,-1.42 0.64,-1.34 0.80,-1.26 0.94,-1.15 1.08,-1.03 1.19,-0.89 1.30,-0.74 1.37,-0.58 1.44,-0.41 1.47,-0.23 1.50,-0.05 1.48,0.12 1.47,0.30 1.41,0.47 1.35,0.64 1.25,0.80 1.16,0.95 1.02,1.07 0.89,1.20 0.74,1.29 0.58,1.38 0.41,1.43 0.23,1.48 0.05,1.48 -0.12,1.49 -0.12,1.49 L -0.12,1.49 Z"/></g><g transform="translate(54.666656494140625 31.333343505859375) rotate(0 8 6.999992370605469)" stroke="none" fill="#000000"><path d="M 1.20,-0.54 Q 1.20,-0.54 2.88,1.23 4.56,3.02 5.26,5.47 5.96,7.92 6.64,10.41 7.33,12.90 7.69,13.55 8.06,14.20 8.11,14.58 8.16,14.97 8.12,15.36 8.07,15.74 7.94,16.11 7.80,16.47 7.58,16.80 7.37,17.12 7.08,17.38 6.79,17.64 6.45,17.83 6.10,18.01 5.73,18.11 5.35,18.20 4.96,18.21 4.57,18.21 4.19,18.12 3.81,18.03 3.46,17.85 3.12,17.68 2.82,17.42 2.53,17.17 2.31,16.85 2.08,16.53 1.94,16.17 1.80,15.80 1.47,14.04 1.14,12.27 1.27,8.50 1.40,4.72 5.74,2.05 10.09,-0.61 11.57,-1.67 13.06,-2.73 13.24,-2.83 13.43,-2.93 13.64,-2.96 13.85,-3.00 14.06,-2.97 14.27,-2.93 14.46,-2.83 14.65,-2.74 14.79,-2.58 14.94,-2.43 15.03,-2.24 15.12,-2.04 15.15,-1.83 15.17,-1.62 15.13,-1.41 15.08,-1.21 14.97,-1.02 14.86,-0.84 14.70,-0.70 14.54,-0.56 14.34,-0.48 14.15,-0.41 13.93,-0.39 13.72,-0.38 13.52,-0.44 13.31,-0.49 13.14,-0.61 12.96,-0.73 12.83,-0.90 12.70,-1.07 12.63,-1.27 12.56,-1.47 12.56,-1.68 12.56,-1.89 12.63,-2.09 12.69,-2.30 12.82,-2.47 12.95,-2.64 13.13,-2.76 13.30,-2.88 13.51,-2.93 13.71,-2.99 13.92,-2.98 14.13,-2.97 14.33,-2.89 14.53,-2.81 14.69,-2.68 14.85,-2.54 14.97,-2.36 15.08,-2.18 15.12,-1.97 15.17,-1.76 15.15,-1.55 15.13,-1.34 15.04,-1.15 14.95,-0.95 14.80,-0.80 14.66,-0.64 14.66,-0.64 14.66,-0.64 13.25,0.51 11.85,1.67 9.39,4.23 6.93,6.79 7.28,9.00 7.64,11.21 7.85,12.70 8.06,14.20 8.11,14.58 8.16,14.97 8.12,15.36 8.07,15.74 7.94,16.11 7.80,16.47 7.58,16.80 7.37,17.12 7.08,17.38 6.79,17.64 6.45,17.83 6.10,18.01 5.73,18.11 5.35,18.20 4.96,18.21 4.57,18.21 4.19,18.12 3.81,18.03 3.46,17.86 3.12,17.68 2.82,17.42 2.53,17.17 2.31,16.85 2.08,16.53 1.94,16.17 1.80,15.80 1.62,15.11 1.44,14.41 0.85,11.93 0.26,9.45 -0.23,7.43 -0.72,5.41 -0.96,2.97 -1.20,0.54 -1.25,0.39 -1.29,0.24 -1.30,0.08 -1.31,-0.07 -1.29,-0.23 -1.26,-0.38 -1.19,-0.53 -1.13,-0.67 -1.03,-0.80 -0.93,-0.93 -0.81,-1.02 -0.68,-1.12 -0.54,-1.19 -0.39,-1.25 -0.24,-1.28 -0.08,-1.31 0.07,-1.30 0.23,-1.29 0.38,-1.25 0.53,-1.20 0.67,-1.12 0.81,-1.04 0.92,-0.93 1.03,-0.81 1.11,-0.68 1.20,-0.54 1.20,-0.54 L 1.20,-0.54 Z"/></g><g transform="translate(83.33334350585938 28) rotate(0 4 8.333335876464844)" stroke="none" fill="#000000"><path d="M 1.22,0.66 Q 1.22,0.66 0.68,3.00 0.15,5.33 0.41,7.34 0.66,9.35 1.00,10.88 1.34,12.41 1.50,11.33 1.65,10.24 1.85,8.68 2.05,7.11 1.93,5.59 1.82,4.06 1.73,3.68 1.65,3.30 1.68,2.94 1.72,2.57 1.84,2.23 1.96,1.88 2.16,1.57 2.36,1.27 2.63,1.02 2.90,0.77 3.22,0.59 3.54,0.41 3.89,0.31 4.25,0.21 4.61,0.20 4.98,0.19 5.34,0.27 5.70,0.35 6.02,0.51 6.35,0.67 6.63,0.91 6.92,1.15 7.13,1.44 7.35,1.74 7.49,2.08 7.63,2.42 7.68,2.78 7.73,3.14 8.81,5.21 9.88,7.28 10.55,9.15 11.21,11.02 11.92,12.49 12.63,13.96 12.72,14.15 12.82,14.34 12.85,14.55 12.88,14.76 12.84,14.97 12.80,15.18 12.70,15.37 12.60,15.55 12.44,15.70 12.28,15.84 12.09,15.93 11.89,16.01 11.68,16.03 11.47,16.05 11.26,16.00 11.06,15.95 10.88,15.84 10.70,15.72 10.56,15.56 10.43,15.40 10.35,15.20 10.28,15.00 10.27,14.79 10.26,14.57 10.32,14.37 10.38,14.17 10.51,13.99 10.63,13.82 10.80,13.69 10.97,13.57 11.17,13.50 11.38,13.44 11.59,13.44 11.80,13.45 12.00,13.52 12.20,13.59 12.37,13.72 12.54,13.85 12.65,14.03 12.77,14.21 12.82,14.42 12.87,14.62 12.86,14.83 12.84,15.05 12.76,15.24 12.68,15.44 12.54,15.60 12.40,15.76 12.21,15.86 12.03,15.97 11.82,16.01 11.61,16.05 11.40,16.03 11.19,16.00 11.00,15.91 10.81,15.81 10.66,15.66 10.50,15.51 10.50,15.51 10.50,15.51 9.26,14.32 8.02,13.12 6.36,11.48 4.70,9.85 3.69,7.98 2.68,6.12 2.16,4.71 1.65,3.30 1.68,2.94 1.72,2.57 1.84,2.23 1.96,1.88 2.16,1.57 2.36,1.27 2.63,1.02 2.90,0.77 3.22,0.59 3.54,0.41 3.89,0.31 4.24,0.21 4.61,0.20 4.98,0.19 5.34,0.27 5.70,0.35 6.02,0.51 6.35,0.67 6.63,0.91 6.92,1.15 7.13,1.44 7.35,1.74 7.49,2.08 7.63,2.42 7.68,2.78 7.73,3.14 7.69,3.53 7.65,3.91 7.63,5.98 7.61,8.05 7.13,10.43 6.65,12.82 5.27,14.82 3.89,16.82 2.11,17.19 0.32,17.56 -1.80,15.79 -3.92,14.02 -4.42,11.79 -4.92,9.55 -4.83,6.32 -4.75,3.09 -2.98,1.21 -1.22,-0.66 -1.12,-0.80 -1.02,-0.93 -0.89,-1.04 -0.77,-1.15 -0.62,-1.23 -0.47,-1.30 -0.30,-1.34 -0.14,-1.38 0.02,-1.38 0.18,-1.37 0.35,-1.33 0.51,-1.29 0.66,-1.21 0.80,-1.13 0.93,-1.01 1.05,-0.90 1.14,-0.76 1.24,-0.62 1.29,-0.46 1.35,-0.31 1.37,-0.14 1.39,0.02 1.36,0.18 1.34,0.35 1.28,0.51 1.22,0.66 1.22,0.66 L 1.22,0.66 Z"/></g><g transform="translate(101.33334350585938 12.666671752929688) rotate(0 3 13.666664123535156)" stroke="none" fill="#000000"><path d="M 1.24,-0.45 Q 1.24,-0.45 3.16,1.23 5.09,2.93 5.88,6.78 6.68,10.63 7.33,14.70 7.99,18.77 8.03,21.91 8.08,25.05 7.62,26.72 7.16,28.40 7.16,28.61 7.17,28.82 7.10,29.02 7.04,29.23 6.91,29.40 6.79,29.57 6.62,29.69 6.44,29.82 6.24,29.88 6.04,29.94 5.82,29.93 5.61,29.92 5.41,29.85 5.21,29.77 5.05,29.64 4.88,29.51 4.77,29.33 4.66,29.15 4.61,28.94 4.56,28.73 4.58,28.52 4.59,28.31 4.68,28.12 4.76,27.92 4.91,27.76 5.05,27.61 5.23,27.50 5.42,27.40 5.63,27.36 5.84,27.32 6.05,27.35 6.26,27.38 6.45,27.48 6.64,27.57 6.79,27.72 6.94,27.88 7.03,28.07 7.12,28.26 7.15,28.47 7.18,28.68 7.14,28.89 7.10,29.10 6.99,29.28 6.88,29.46 6.73,29.60 6.57,29.75 6.37,29.83 6.18,29.91 5.96,29.93 5.75,29.94 5.55,29.89 5.34,29.84 5.16,29.72 4.98,29.61 4.85,29.44 4.72,29.27 4.65,29.07 4.57,28.87 4.57,28.87 4.57,28.88 3.53,27.40 2.48,25.93 1.57,22.98 0.65,20.02 -0.06,16.07 -0.78,12.11 -1.40,8.80 -2.02,5.50 -1.63,2.97 -1.24,0.45 -1.27,0.29 -1.31,0.14 -1.31,-0.01 -1.30,-0.17 -1.26,-0.33 -1.22,-0.48 -1.15,-0.62 -1.07,-0.76 -0.96,-0.88 -0.86,-1.00 -0.72,-1.08 -0.59,-1.17 -0.44,-1.23 -0.29,-1.28 -0.14,-1.30 0.01,-1.32 0.17,-1.29 0.33,-1.27 0.48,-1.21 0.62,-1.16 0.75,-1.06 0.88,-0.97 0.99,-0.85 1.09,-0.73 1.16,-0.59 1.24,-0.45 1.24,-0.45 L 1.24,-0.45 Z"/></g><g transform="translate(110.00003051757812 16) rotate(0 4.666656494140625 11.666671752929688)" stroke="none" fill="#000000"><path d="M 1.12,-0.67 Q 1.12,-0.67 3.30,0.63 5.48,1.94 6.57,5.04 7.65,8.14 8.43,11.12 9.20,14.11 9.74,16.70 10.28,19.29 10.23,21.76 10.18,24.23 10.27,24.42 10.35,24.62 10.37,24.83 10.39,25.04 10.33,25.25 10.28,25.45 10.17,25.63 10.05,25.81 9.89,25.95 9.72,26.08 9.52,26.15 9.32,26.22 9.11,26.23 8.90,26.24 8.70,26.17 8.49,26.11 8.32,25.99 8.15,25.86 8.02,25.69 7.90,25.52 7.84,25.31 7.78,25.11 7.78,24.90 7.79,24.69 7.86,24.49 7.93,24.29 8.07,24.12 8.20,23.96 8.38,23.84 8.56,23.73 8.76,23.68 8.97,23.63 9.18,23.64 9.39,23.66 9.59,23.74 9.78,23.83 9.94,23.97 10.10,24.11 10.21,24.30 10.31,24.48 10.35,24.69 10.39,24.90 10.36,25.11 10.33,25.32 10.24,25.51 10.14,25.70 9.99,25.85 9.84,26.00 9.65,26.10 9.46,26.19 9.25,26.22 9.04,26.25 8.83,26.21 8.62,26.17 8.44,26.06 8.25,25.96 8.11,25.80 7.97,25.64 7.97,25.64 7.97,25.64 5.80,23.38 3.63,21.11 2.76,18.56 1.89,16.02 1.16,13.23 0.42,10.44 -0.22,8.08 -0.88,5.71 -1.00,3.19 -1.12,0.67 -1.19,0.53 -1.25,0.38 -1.28,0.23 -1.31,0.07 -1.30,-0.08 -1.29,-0.24 -1.24,-0.39 -1.19,-0.54 -1.11,-0.67 -1.03,-0.81 -0.91,-0.92 -0.80,-1.03 -0.67,-1.11 -0.53,-1.19 -0.38,-1.24 -0.23,-1.29 -0.07,-1.30 0.08,-1.31 0.23,-1.28 0.39,-1.25 0.53,-1.18 0.68,-1.12 0.80,-1.02 0.93,-0.92 1.02,-0.80 1.12,-0.67 1.12,-0.67 L 1.12,-0.67 Z"/></g><g transform="translate(127.33334350585938 38.66667175292969) rotate(0 6.666656494140625 -1.3333358764648438)" stroke="none" fill="#000000"><path d="M -0.41,-1.25 Q -0.41,-1.25 0.99,-2.66 2.40,-4.08 3.33,-5.07 4.27,-6.05 5.69,-6.99 7.10,-7.92 6.70,-4.25 6.31,-0.57 6.74,0.84 7.18,2.26 8.23,2.77 9.27,3.29 10.74,3.45 12.21,3.62 12.42,3.59 12.64,3.57 12.84,3.61 13.05,3.65 13.23,3.76 13.42,3.87 13.56,4.03 13.69,4.19 13.78,4.39 13.86,4.58 13.87,4.80 13.88,5.01 13.83,5.21 13.77,5.42 13.65,5.60 13.54,5.77 13.37,5.90 13.20,6.03 13.00,6.10 12.80,6.17 12.59,6.17 12.37,6.18 12.17,6.11 11.97,6.04 11.80,5.92 11.63,5.79 11.51,5.61 11.39,5.44 11.33,5.23 11.27,5.03 11.28,4.82 11.29,4.61 11.37,4.41 11.44,4.21 11.58,4.05 11.72,3.88 11.90,3.77 12.08,3.66 12.29,3.61 12.49,3.57 12.70,3.59 12.92,3.61 13.11,3.70 13.30,3.78 13.46,3.93 13.61,4.07 13.72,4.26 13.82,4.45 13.85,4.66 13.89,4.87 13.86,5.08 13.82,5.29 13.73,5.48 13.63,5.66 13.47,5.81 13.32,5.96 13.13,6.05 12.94,6.14 12.94,6.14 12.94,6.14 10.99,7.28 9.05,8.42 6.73,8.37 4.41,8.32 2.45,6.46 0.49,4.60 -0.19,1.64 -0.87,-1.30 -0.30,-5.22 0.26,-9.13 4.12,-10.07 7.97,-11.00 9.29,-8.84 10.61,-6.67 9.61,-3.86 8.62,-1.05 6.56,0.36 4.49,1.78 2.45,1.51 0.41,1.25 0.26,1.28 0.10,1.31 -0.05,1.31 -0.21,1.30 -0.36,1.25 -0.51,1.21 -0.65,1.13 -0.79,1.05 -0.90,0.94 -1.02,0.83 -1.10,0.70 -1.19,0.56 -1.24,0.41 -1.29,0.26 -1.30,0.10 -1.31,-0.05 -1.29,-0.21 -1.26,-0.36 -1.20,-0.51 -1.14,-0.66 -1.04,-0.78 -0.95,-0.91 -0.82,-1.01 -0.70,-1.11 -0.56,-1.18 -0.41,-1.25 -0.41,-1.25 L -0.41,-1.25 Z"/></g><g transform="translate(138.66665649414062 16.666671752929688) rotate(0 6.333343505859375 11.666667938232422)" stroke="none" fill="#000000"><path d="M 0.34,-1.37 Q 0.34,-1.37 1.80,-2.05 3.26,-2.72 5.41,0.27 7.56,3.28 8.75,5.96 9.95,8.64 10.99,11.33 12.03,14.02 12.50,17.13 12.98,20.24 13.24,22.71 13.49,25.18 13.54,25.39 13.58,25.60 13.56,25.81 13.53,26.02 13.44,26.21 13.35,26.40 13.21,26.56 13.06,26.71 12.87,26.81 12.68,26.91 12.47,26.94 12.26,26.98 12.05,26.94 11.84,26.91 11.66,26.81 11.47,26.71 11.32,26.55 11.18,26.40 11.09,26.20 11.00,26.01 10.98,25.80 10.96,25.59 11.00,25.38 11.05,25.17 11.16,24.99 11.27,24.81 11.43,24.67 11.60,24.54 11.79,24.46 11.99,24.38 12.20,24.37 12.42,24.36 12.62,24.42 12.82,24.47 13.00,24.59 13.18,24.71 13.30,24.88 13.43,25.05 13.50,25.25 13.57,25.46 13.56,25.67 13.56,25.88 13.49,26.08 13.43,26.28 13.30,26.45 13.17,26.62 12.99,26.74 12.81,26.86 12.61,26.91 12.41,26.97 12.19,26.96 11.98,26.94 11.78,26.87 11.59,26.79 11.43,26.65 11.26,26.51 11.16,26.33 11.05,26.14 11.05,26.14 11.05,26.14 9.52,24.09 7.99,22.04 6.42,19.47 4.86,16.90 3.79,14.36 2.73,11.82 1.68,9.41 0.63,7.01 0.22,5.25 -0.19,3.49 -0.27,2.43 -0.34,1.37 -0.50,1.31 -0.66,1.25 -0.80,1.15 -0.94,1.05 -1.05,0.92 -1.16,0.80 -1.24,0.64 -1.32,0.49 -1.36,0.33 -1.40,0.16 -1.40,-0.00 -1.40,-0.17 -1.36,-0.34 -1.32,-0.50 -1.24,-0.65 -1.16,-0.80 -1.04,-0.93 -0.93,-1.06 -0.79,-1.16 -0.65,-1.25 -0.49,-1.31 -0.33,-1.37 -0.16,-1.39 0.00,-1.41 0.17,-1.39 0.34,-1.37 0.34,-1.37 L 0.34,-1.37 Z"/></g></svg>